<svg width="500" height="500" viewBox="0 0 500 500" fill="none" xmlns="http://www.w3.org/2000/svg">
<path d="M449.899 398.49H416.779V398.74H449.899V398.49Z" fill="#EBEBEB"/>
<path d="M331.219 401.211H322.529V401.461H331.219V401.211Z" fill="#EBEBEB"/>
<path d="M415.78 389.211H396.59V389.461H415.78V389.211Z" fill="#EBEBEB"/>
<path d="M95.6509 390.891H52.4609V391.141H95.6509V390.891Z" fill="#EBEBEB"/>
<path d="M110.891 390.891H104.561V391.141H110.891V390.891Z" fill="#EBEBEB"/>
<path d="M225.151 395.109H131.471V395.359H225.151V395.109Z" fill="#EBEBEB"/>
<path d="M238.4 337.8H45.2998C43.7855 337.8 42.3331 337.198 41.2623 336.128C40.1914 335.057 39.5898 333.604 39.5898 332.09V60.66C39.603 59.1543 40.2104 57.7147 41.2798 56.6547C42.3492 55.5947 43.7941 54.9999 45.2998 55H238.4C239.15 55 239.892 55.1477 240.585 55.4346C241.278 55.7216 241.907 56.1422 242.437 56.6724C242.968 57.2026 243.388 57.8321 243.675 58.5249C243.962 59.2176 244.11 59.9602 244.11 60.71V332.09C244.11 332.84 243.962 333.582 243.675 334.275C243.388 334.968 242.968 335.597 242.437 336.128C241.907 336.658 241.278 337.078 240.585 337.365C239.892 337.652 239.15 337.8 238.4 337.8ZM45.2998 55.2C43.8526 55.2026 42.4653 55.7787 41.442 56.8021C40.4186 57.8255 39.8425 59.2127 39.8398 60.66V332.09C39.8425 333.537 40.4186 334.924 41.442 335.948C42.4653 336.971 43.8526 337.547 45.2998 337.55H238.4C239.847 337.547 241.234 336.971 242.258 335.948C243.281 334.924 243.857 333.537 243.86 332.09V60.66C243.857 59.2127 243.281 57.8255 242.258 56.8021C241.234 55.7787 239.847 55.2026 238.4 55.2H45.2998Z" fill="#EBEBEB"/>
<path d="M454.701 337.8H261.601C260.086 337.8 258.634 337.198 257.563 336.128C256.492 335.057 255.891 333.604 255.891 332.09V60.66C255.904 59.1543 256.511 57.7147 257.581 56.6547C258.65 55.5947 260.095 54.9999 261.601 55H454.701C456.215 55 457.667 55.6016 458.738 56.6724C459.809 57.7433 460.411 59.1956 460.411 60.71V332.09C460.411 333.604 459.809 335.057 458.738 336.128C457.667 337.198 456.215 337.8 454.701 337.8ZM261.601 55.2C260.153 55.2026 258.766 55.7787 257.743 56.8021C256.719 57.8255 256.143 59.2127 256.141 60.66V332.09C256.143 333.537 256.719 334.924 257.743 335.948C258.766 336.971 260.153 337.547 261.601 337.55H454.701C456.148 337.547 457.535 336.971 458.559 335.948C459.582 334.924 460.158 333.537 460.161 332.09V60.66C460.158 59.2127 459.582 57.8255 458.559 56.8021C457.535 55.7787 456.148 55.2026 454.701 55.2H261.601Z" fill="#EBEBEB"/>
<path d="M500 382.4H0V382.65H500V382.4Z" fill="#EBEBEB"/>
<path d="M396.301 330.54H421.551C422.63 330.541 423.698 330.33 424.696 329.918C425.693 329.506 426.599 328.901 427.363 328.139C428.126 327.376 428.732 326.471 429.145 325.474C429.558 324.477 429.771 323.409 429.771 322.33V285.42C429.771 285.022 429.613 284.641 429.331 284.359C429.05 284.078 428.669 283.92 428.271 283.92C427.873 283.92 427.491 284.078 427.21 284.359C426.929 284.641 426.771 285.022 426.771 285.42V322.33C426.768 323.713 426.217 325.038 425.238 326.015C424.26 326.991 422.933 327.54 421.551 327.54H396.301V330.54Z" fill="#E0E0E0"/>
<path d="M389.08 365.931V331.551L387.08 330.911C385.973 330.564 385.005 329.872 384.318 328.937C383.631 328.002 383.26 326.871 383.26 325.711H402.3C402.3 326.871 401.929 328.002 401.242 328.937C400.555 329.872 399.587 330.564 398.48 330.911L396.48 331.551V365.931L412.3 373.001V376.001L392.77 369.181L373.25 376.001V373.001L389.08 365.931Z" fill="#E0E0E0"/>
<path d="M367.871 327.54H417.681C419.114 327.54 420.489 326.972 421.503 325.959C422.517 324.947 423.088 323.574 423.091 322.14C423.091 320.706 422.521 319.33 421.506 318.315C420.492 317.3 419.116 316.73 417.681 316.73H367.871C366.436 316.73 365.06 317.3 364.046 318.315C363.031 319.33 362.461 320.706 362.461 322.14C362.464 323.574 363.035 324.947 364.049 325.959C365.063 326.972 366.438 327.54 367.871 327.54Z" fill="#F0F0F0"/>
<path d="M426.471 298.41L429.161 260C429.26 258.572 428.79 257.164 427.852 256.082C426.915 255.001 425.588 254.335 424.161 254.23C422.734 254.131 421.327 254.602 420.247 255.539C419.167 256.476 418.503 257.804 418.401 259.23L415.711 297.67C415.609 299.098 416.079 300.508 417.016 301.59C417.954 302.672 419.283 303.337 420.711 303.44C422.142 303.536 423.552 303.06 424.632 302.117C425.712 301.174 426.373 299.84 426.471 298.41Z" fill="#EBEBEB"/>
<path d="M408.891 378.15C408.891 378.827 409.091 379.489 409.468 380.052C409.844 380.614 410.379 381.053 411.004 381.311C411.63 381.57 412.318 381.637 412.982 381.504C413.645 381.371 414.255 381.045 414.732 380.565C415.21 380.086 415.535 379.476 415.666 378.812C415.797 378.147 415.728 377.46 415.467 376.835C415.207 376.21 414.767 375.677 414.203 375.302C413.64 374.927 412.977 374.729 412.301 374.73C411.395 374.733 410.528 375.095 409.889 375.736C409.25 376.377 408.891 377.245 408.891 378.15Z" fill="#E0E0E0"/>
<path d="M369.83 378.15C369.83 378.827 370.031 379.488 370.406 380.051C370.782 380.613 371.316 381.051 371.941 381.31C372.566 381.569 373.254 381.637 373.917 381.505C374.581 381.373 375.19 381.047 375.668 380.569C376.147 380.09 376.472 379.481 376.604 378.818C376.736 378.154 376.669 377.467 376.41 376.842C376.151 376.217 375.713 375.683 375.15 375.307C374.588 374.931 373.927 374.73 373.25 374.73C372.343 374.73 371.473 375.091 370.832 375.732C370.19 376.374 369.83 377.243 369.83 378.15Z" fill="#E0E0E0"/>
<path d="M100.259 330.54H74.9993C73.9203 330.541 72.8516 330.33 71.8544 329.918C70.8572 329.506 69.9509 328.901 69.1875 328.139C68.4241 327.376 67.8184 326.471 67.4052 325.474C66.992 324.477 66.7793 323.409 66.7793 322.33V285.42C66.7793 285.022 66.9373 284.641 67.2186 284.359C67.4999 284.078 67.8815 283.92 68.2793 283.92C68.6771 283.92 69.0587 284.078 69.34 284.359C69.6213 284.641 69.7793 285.022 69.7793 285.42V322.33C69.7819 323.713 70.3331 325.038 71.3117 326.015C72.2904 326.991 73.6166 327.54 74.9993 327.54H100.249L100.259 330.54Z" fill="#E0E0E0"/>
<path d="M107.48 365.931V331.551L109.48 330.911C110.587 330.564 111.555 329.872 112.242 328.937C112.929 328.002 113.3 326.871 113.3 325.711H94.2998C94.2999 326.871 94.6705 328.002 95.3575 328.937C96.0446 329.872 97.0123 330.564 98.1198 330.911L100.12 331.551V365.931L84.2598 373.001V376.001L103.79 369.181L123.32 376.001V373.001L107.48 365.931Z" fill="#E0E0E0"/>
<path d="M128.691 327.54H78.8807C77.4476 327.54 76.0731 326.972 75.0588 325.959C74.0445 324.947 73.4734 323.574 73.4707 322.14C73.4707 320.706 74.0407 319.33 75.0553 318.315C76.0698 317.3 77.4459 316.73 78.8807 316.73H128.691C130.126 316.73 131.502 317.3 132.516 318.315C133.531 319.33 134.101 320.706 134.101 322.14C134.098 323.574 133.527 324.947 132.513 325.959C131.498 326.972 130.124 327.54 128.691 327.54Z" fill="#F0F0F0"/>
<path d="M70.0897 298.41L67.3997 260C67.3006 258.572 67.7711 257.164 68.7082 256.082C69.6453 255.001 70.9726 254.335 72.3997 254.23C73.8262 254.131 75.2336 254.602 76.3135 255.539C77.3933 256.476 78.0572 257.804 78.1597 259.23L80.8497 297.67C80.9515 299.098 80.4819 300.508 79.5443 301.59C78.6067 302.672 77.2778 303.337 75.8497 303.44C74.419 303.536 73.0087 303.06 71.9287 302.117C70.8486 301.174 70.1872 299.84 70.0897 298.41Z" fill="#EBEBEB"/>
<path d="M87.6701 378.15C87.6701 378.827 87.4692 379.489 87.093 380.052C86.7168 380.614 86.182 381.053 85.5565 381.311C84.931 381.57 84.2429 381.637 83.5792 381.504C82.9155 381.371 82.3061 381.045 81.8282 380.565C81.3503 380.086 81.0254 379.476 80.8946 378.812C80.7638 378.147 80.8329 377.46 81.0933 376.835C81.3537 376.21 81.7936 375.677 82.3573 375.302C82.921 374.927 83.5832 374.729 84.2601 374.73C85.1654 374.733 86.0327 375.095 86.6719 375.736C87.3111 376.377 87.6701 377.245 87.6701 378.15Z" fill="#E0E0E0"/>
<path d="M126.731 378.15C126.731 378.827 126.53 379.489 126.154 380.052C125.777 380.614 125.243 381.053 124.617 381.311C123.992 381.57 123.303 381.637 122.64 381.504C121.976 381.371 121.367 381.045 120.889 380.565C120.411 380.086 120.086 379.476 119.955 378.812C119.824 378.147 119.893 377.46 120.154 376.835C120.414 376.21 120.854 375.677 121.418 375.302C121.982 374.927 122.644 374.729 123.321 374.73C124.226 374.733 125.093 375.095 125.732 375.736C126.372 376.377 126.731 377.245 126.731 378.15Z" fill="#E0E0E0"/>
<path d="M207.571 382.691H188.061L186.061 345.711H209.571L207.571 382.691Z" fill="#EBEBEB"/>
<path d="M192.561 382.691H184.561V381.051L192.561 380.051V382.691Z" fill="#E0E0E0"/>
<path d="M189.001 342.711H206.561C207.356 342.711 208.119 343.027 208.682 343.59C209.244 344.152 209.561 344.915 209.561 345.711H186.061C186.061 344.915 186.377 344.152 186.939 343.59C187.502 343.027 188.265 342.711 189.061 342.711H189.001Z" fill="#E0E0E0"/>
<path d="M167.56 286.791H136.35V283.051L167.56 281.051V286.791Z" fill="#E0E0E0"/>
<path d="M213.73 290.6H121.4V303.38H213.73V290.6Z" fill="#F0F0F0"/>
<path d="M232.87 286.789H102.59V294.409H232.87V286.789Z" fill="#FAFAFA"/>
<path d="M220.77 382.69H226.65L216.47 294.41H209.57L220.77 382.69Z" fill="#E6E6E6"/>
<path d="M125.891 294.41H118.991L108.801 382.69H114.691L125.891 294.41Z" fill="#E6E6E6"/>
<path d="M199.18 284.891C196.514 271.644 193.847 258.397 191.18 245.151C190.79 243.251 187.9 244.061 188.28 245.941L195.9 283.791H179.4C179.003 283.791 178.621 283.949 178.34 284.23C178.058 284.511 177.9 284.893 177.9 285.291C177.9 285.688 178.058 286.07 178.34 286.351C178.621 286.633 179.003 286.791 179.4 286.791H197.73C197.96 286.785 198.185 286.729 198.39 286.625C198.594 286.52 198.773 286.372 198.912 286.189C199.051 286.007 199.148 285.795 199.194 285.57C199.241 285.346 199.236 285.113 199.18 284.891Z" fill="#E0E0E0"/>
<path d="M180.5 274.23L185.64 200.74C187.537 202.098 189.054 203.92 190.047 206.031C191.039 208.143 191.474 210.473 191.31 212.8L187.8 263.08C187.636 265.407 186.879 267.653 185.601 269.605C184.323 271.557 182.567 273.149 180.5 274.23Z" fill="#FAFAFA"/>
<path d="M220.549 265.43H212.189C210.587 265.43 209.289 266.728 209.289 268.33V283.89C209.289 285.491 210.587 286.79 212.189 286.79H220.549C222.151 286.79 223.449 285.491 223.449 283.89V268.33C223.449 266.728 222.151 265.43 220.549 265.43Z" fill="#F5F5F5"/>
<path d="M214.891 257.471C212.681 257.471 210.891 258.021 210.891 258.701C210.891 259.381 212.691 258.461 214.891 258.461C215.181 258.461 215.461 258.461 215.741 258.461V263.311H217.001V258.651C218.141 258.871 218.891 259.091 218.891 258.651C218.891 258.001 217.101 257.471 214.891 257.471Z" fill="#E0E0E0"/>
<path d="M218.619 261.77H214.109V266.28H218.619V261.77Z" fill="#F0F0F0"/>
<path d="M282.83 303.381H375.16V290.601H282.83V303.381Z" fill="#F0F0F0"/>
<path d="M263.7 294.41H393.98V286.79H263.7V294.41Z" fill="#FAFAFA"/>
<path d="M275.79 382.69H269.91L280.09 294.41H286.99L275.79 382.69Z" fill="#E6E6E6"/>
<path d="M370.68 294.41H377.57L387.76 382.69H381.87L370.68 294.41Z" fill="#E6E6E6"/>
<path d="M348.52 286.791H379.73V283.051L348.52 281.051V286.791Z" fill="#E0E0E0"/>
<path d="M285.73 219.711V286.791H290.06L291.06 280.791C291.244 279.738 291.793 278.784 292.611 278.097C293.428 277.409 294.462 277.032 295.53 277.031H335.9C336.969 277.032 338.003 277.409 338.82 278.097C339.638 278.784 340.187 279.738 340.37 280.791L341.37 286.791H345.7V219.711H285.73Z" fill="#F5F5F5"/>
<path d="M305.129 284.891C307.796 271.644 310.463 258.397 313.129 245.151C313.519 243.251 316.409 244.061 316.029 245.941L308.409 283.791H324.909C325.307 283.791 325.689 283.949 325.97 284.23C326.251 284.511 326.409 284.893 326.409 285.291C326.409 285.688 326.251 286.07 325.97 286.351C325.689 286.633 325.307 286.791 324.909 286.791H306.579C306.35 286.785 306.125 286.729 305.92 286.625C305.715 286.52 305.537 286.372 305.398 286.189C305.258 286.007 305.162 285.795 305.116 285.57C305.069 285.346 305.074 285.113 305.129 284.891Z" fill="#E0E0E0"/>
<path d="M323.811 274.23L318.671 200.74C316.774 202.098 315.257 203.92 314.264 206.031C313.271 208.143 312.836 210.473 313.001 212.8L316.511 263.08C316.673 265.408 317.429 267.655 318.707 269.607C319.985 271.559 321.742 273.151 323.811 274.23Z" fill="#E0E0E0"/>
<path d="M217.66 147.939H53.8301V247.769H217.66V147.939Z" fill="#EBEBEB"/>
<path d="M218.88 147.9H217.68V247.73H218.88V147.9Z" fill="#E0E0E0"/>
<path d="M59.7791 152.27H58.7891V242.1H59.7791V152.27Z" fill="#E0E0E0"/>
<path d="M212.319 152.27H58.6895V242.1H212.319V152.27Z" fill="white"/>
<path d="M113.109 191.839V196.119H123.089V191.839H113.109Z" fill="#F5F5F5"/>
<path d="M115.061 224.051V227.381H125.041V224.051H115.061Z" fill="#F5F5F5"/>
<path d="M116.68 190.439H84.2598V235.999H116.68V190.439Z" fill="#F0F0F0"/>
<path d="M112.82 231.41V234.74H122.8V231.41H112.82Z" fill="#F5F5F5"/>
<path d="M114.48 200.949V204.279H124.46V200.949H114.48Z" fill="#F5F5F5"/>
<path d="M112.289 209.221V212.551H122.269V209.221H112.289Z" fill="#F5F5F5"/>
<path d="M110.18 196.039H88.0801V199.959H110.18V196.039Z" fill="#E6E6E6"/>
<path d="M110.53 212.79H88.4301L88.0801 211.01H110.17L110.53 212.79Z" fill="#E6E6E6"/>
<path d="M95.9201 203.881H88.0801V207.801H95.9201V203.881Z" fill="#E6E6E6"/>
<path d="M162.689 182.211H150.029V200.391H162.689V182.211Z" fill="#F5F5F5"/>
<path d="M78.7498 211.02H66.0898V229.2H78.7498V211.02Z" fill="#F5F5F5"/>
<path d="M80.4706 158.779H67.8105V171.439H80.4706V158.779Z" fill="#F5F5F5"/>
<path d="M140.49 216.82H127.83V229.48H140.49V216.82Z" fill="#F5F5F5"/>
<path d="M202.67 183.779H170.25V229.339H202.67V183.779Z" fill="#F5F5F5"/>
<path d="M197.979 190.369H174.689V190.869H197.979V190.369Z" fill="#E0E0E0"/>
<path d="M186.58 190.859H186.08V224.599H186.58V190.859Z" fill="#E0E0E0"/>
<path d="M197.279 190.859H196.779V224.599H197.279V190.859Z" fill="#E0E0E0"/>
<path d="M177.08 190.859H176.58V224.599H177.08V190.859Z" fill="#E0E0E0"/>
<path d="M175.41 190.859H174.91V224.599H175.41V190.859Z" fill="#E0E0E0"/>
<path d="M196.78 192.641H175.16V193.141H196.78V192.641Z" fill="#E0E0E0"/>
<path d="M245.179 423.71C352.262 423.71 439.069 418.642 439.069 412.39C439.069 406.138 352.262 401.07 245.179 401.07C138.097 401.07 51.2891 406.138 51.2891 412.39C51.2891 418.642 138.097 423.71 245.179 423.71Z" fill="#F5F5F5"/>
<path d="M275.201 205.07C275.201 210.961 272.863 216.61 268.7 220.779C264.538 224.947 258.891 227.292 253.001 227.3H244.921V248.48H223.001V257.17C222.877 262.983 220.482 268.516 216.327 272.583C212.173 276.651 206.59 278.929 200.776 278.929C194.962 278.929 189.379 276.651 185.224 272.583C181.07 268.516 178.674 262.983 178.551 257.17V248.48H158.081V227.3H148.781C142.885 227.3 137.231 224.958 133.062 220.789C128.893 216.62 126.551 210.966 126.551 205.07C126.551 199.174 128.893 193.52 133.062 189.351C137.231 185.182 142.885 182.84 148.781 182.84H158.081V161.66H179.261V171C179.198 173.958 179.726 176.9 180.815 179.651C181.904 182.402 183.531 184.909 185.601 187.023C187.671 189.137 190.142 190.817 192.87 191.964C195.598 193.111 198.527 193.702 201.486 193.702C204.445 193.702 207.374 193.111 210.102 191.964C212.829 190.817 215.301 189.137 217.371 187.023C219.441 184.909 221.068 182.402 222.156 179.651C223.245 176.9 223.774 173.958 223.711 171V161.7H244.891V182.88H253.001C258.884 182.888 264.525 185.228 268.686 189.388C272.848 193.547 275.19 199.187 275.201 205.07Z" fill="#8F0B16"/>
<g opacity="0.5">
<path d="M275.201 205.07C275.201 210.961 272.863 216.61 268.7 220.779C264.538 224.947 258.891 227.292 253.001 227.3H244.921V248.48H223.001V257.17C222.877 262.983 220.482 268.516 216.327 272.583C212.173 276.651 206.59 278.929 200.776 278.929C194.962 278.929 189.379 276.651 185.224 272.583C181.07 268.516 178.674 262.983 178.551 257.17V248.48H158.081V227.3H148.781C142.885 227.3 137.231 224.958 133.062 220.789C128.893 216.62 126.551 210.966 126.551 205.07C126.551 199.174 128.893 193.52 133.062 189.351C137.231 185.182 142.885 182.84 148.781 182.84H158.081V161.66H179.261V171C179.198 173.958 179.726 176.9 180.815 179.651C181.904 182.402 183.531 184.909 185.601 187.023C187.671 189.137 190.142 190.817 192.87 191.964C195.598 193.111 198.527 193.702 201.486 193.702C204.445 193.702 207.374 193.111 210.102 191.964C212.829 190.817 215.301 189.137 217.371 187.023C219.441 184.909 221.068 182.402 222.156 179.651C223.245 176.9 223.774 173.958 223.711 171V161.7H244.891V182.88H253.001C258.884 182.888 264.525 185.228 268.686 189.388C272.848 193.547 275.19 199.187 275.201 205.07Z" fill="white"/>
</g>
<path d="M253.081 227.19H243.781V248.37H330.601V227.19H338.671C344.567 227.19 350.221 224.847 354.39 220.679C358.559 216.51 360.901 210.855 360.901 204.96C360.901 199.064 358.559 193.409 354.39 189.241C350.221 185.072 344.567 182.73 338.671 182.73H330.601V161.55H309.421V152.25C309.421 146.354 307.079 140.699 302.91 136.531C298.741 132.362 293.087 130.02 287.191 130.02C281.295 130.02 275.641 132.362 271.472 136.531C267.303 140.699 264.961 146.354 264.961 152.25V161.55H243.781V182.73H253.081C258.977 182.73 264.631 185.072 268.8 189.241C272.969 193.409 275.311 199.064 275.311 204.96C275.311 210.855 272.969 216.51 268.8 220.679C264.631 224.847 258.977 227.19 253.081 227.19Z" fill="#8F0B16"/>
<g opacity="0.3">
<path d="M253.081 227.19H243.781V248.37H330.601V227.19H338.671C344.567 227.19 350.221 224.847 354.39 220.679C358.559 216.51 360.901 210.855 360.901 204.96C360.901 199.064 358.559 193.409 354.39 189.241C350.221 185.072 344.567 182.73 338.671 182.73H330.601V161.55H309.421V152.25C309.421 146.354 307.079 140.699 302.91 136.531C298.741 132.362 293.087 130.02 287.191 130.02C281.295 130.02 275.641 132.362 271.472 136.531C267.303 140.699 264.961 146.354 264.961 152.25V161.55H243.781V182.73H253.081C258.977 182.73 264.631 185.072 268.8 189.241C272.969 193.409 275.311 199.064 275.311 204.96C275.311 210.855 272.969 216.51 268.8 220.679C264.631 224.847 258.977 227.19 253.081 227.19Z" fill="white"/>
</g>
<path d="M258.381 151.729L256.511 151.259C254.498 150.845 252.536 150.211 250.661 149.369L250.411 149.249C248.571 148.359 246.271 147.249 245.781 143.379C245.773 143.135 245.679 142.902 245.517 142.719C245.354 142.537 245.133 142.416 244.891 142.379C227.751 141.549 221.781 132.479 221.771 122.379C221.771 112.479 228.281 103.129 246.771 102.909C263.911 102.699 272.491 113.249 271.971 124.119C271.631 131.059 266.191 140.569 255.841 142.729C254.571 143.159 252.311 143.239 251.521 144.379C251.345 144.656 251.252 144.977 251.252 145.304C251.252 145.632 251.345 145.953 251.521 146.229C251.893 146.798 252.348 147.307 252.871 147.739C254.711 149.319 258.381 151.729 258.381 151.729Z" fill="white"/>
<path d="M258.381 152.229H258.261L256.391 151.769C254.344 151.343 252.349 150.696 250.441 149.839L250.201 149.719C248.351 148.829 245.811 147.609 245.291 143.459C245.291 143.369 245.201 142.879 244.861 142.859C224.351 141.859 221.281 129.609 221.271 122.399C221.271 116.489 223.741 102.709 246.771 102.399C257.641 102.289 263.771 106.279 267.051 109.679C268.903 111.585 270.342 113.854 271.276 116.342C272.21 118.83 272.621 121.484 272.481 124.139C272.139 128.664 270.353 132.96 267.386 136.395C264.419 139.829 260.429 142.221 256.001 143.219C255.582 143.354 255.155 143.461 254.721 143.539C253.651 143.759 252.441 144.009 251.991 144.669C251.869 144.861 251.803 145.085 251.803 145.314C251.803 145.542 251.869 145.766 251.991 145.959C252.337 146.485 252.758 146.956 253.241 147.359C255.031 148.899 258.661 151.279 258.701 151.309C258.799 151.372 258.871 151.469 258.904 151.581C258.937 151.692 258.929 151.812 258.881 151.919C258.842 152.017 258.772 152.099 258.682 152.155C258.592 152.211 258.487 152.237 258.381 152.229ZM247.291 103.399H246.781C224.641 103.669 222.261 116.749 222.271 122.399C222.271 129.259 225.221 140.909 244.911 141.859C245.28 141.897 245.623 142.069 245.875 142.341C246.127 142.613 246.271 142.968 246.281 143.339C246.741 146.939 248.801 147.939 250.631 148.819L250.881 148.939C252.458 149.663 254.107 150.216 255.801 150.589C254.691 149.819 253.421 148.889 252.551 148.139C251.991 147.672 251.506 147.122 251.111 146.509C250.876 146.155 250.751 145.739 250.751 145.314C250.751 144.889 250.876 144.473 251.111 144.119C251.781 143.119 253.201 142.839 254.461 142.579C254.911 142.479 255.351 142.389 255.681 142.279C259.914 141.347 263.734 139.079 266.578 135.808C269.421 132.538 271.137 128.439 271.471 124.119C271.605 121.6 271.217 119.081 270.331 116.72C269.444 114.359 268.079 112.207 266.321 110.399C263.241 107.179 257.441 103.399 247.291 103.399Z" fill="#8F0B16"/>
<path d="M238.001 147.529C239.191 146.179 239.751 144.829 239.451 143.589C238.831 140.979 236.521 141.019 235.031 140.519C224.681 138.349 219.241 130.849 218.901 123.909C218.381 113.039 226.961 102.479 244.101 102.689C262.601 102.919 269.101 112.269 269.101 122.159C269.101 132.229 263.101 141.299 245.981 142.159C245.411 142.159 245.151 142.709 245.081 143.159C244.601 147.029 242.301 148.159 240.461 149.029L240.211 149.149C238.335 149.986 236.373 150.62 234.361 151.039L232.491 151.499C232.491 151.499 236.371 149.349 238.001 147.529Z" fill="white"/>
<path d="M232.461 151.999C232.36 152.001 232.262 151.972 232.178 151.917C232.094 151.861 232.029 151.782 231.991 151.689C231.946 151.577 231.944 151.452 231.985 151.338C232.025 151.224 232.105 151.129 232.211 151.069C232.211 151.069 236.071 148.919 237.591 147.189C238.721 145.889 239.171 144.719 238.931 143.699C238.501 141.889 237.191 141.579 235.811 141.249C235.471 141.169 235.131 141.089 234.811 140.989C223.911 138.709 218.671 130.769 218.341 123.929C218.202 121.274 218.612 118.618 219.547 116.128C220.481 113.638 221.919 111.368 223.771 109.459C227.051 106.069 233.181 102.039 244.051 102.179C267.051 102.469 269.561 116.239 269.551 122.179C269.551 129.389 266.471 141.649 245.961 142.639C245.621 142.639 245.541 143.139 245.531 143.239C245.011 147.379 242.471 148.609 240.621 149.499L240.381 149.619C238.456 150.475 236.444 151.122 234.381 151.549L232.501 152.009L232.461 151.999ZM243.551 103.179C233.391 103.179 227.551 106.959 224.551 110.179C222.793 111.988 221.428 114.14 220.542 116.501C219.655 118.862 219.267 121.381 219.401 123.899C219.711 130.359 224.701 137.899 235.131 140.039C235.461 140.149 235.771 140.219 236.131 140.299C237.511 140.629 239.411 141.079 239.981 143.479C240.301 144.839 239.781 146.309 238.421 147.869C237.544 148.782 236.564 149.591 235.501 150.279C237.063 149.913 238.584 149.39 240.041 148.719L240.291 148.599C242.111 147.719 244.181 146.719 244.641 143.119C244.647 142.747 244.79 142.39 245.043 142.117C245.295 141.844 245.64 141.674 246.011 141.639C265.691 140.689 268.641 129.039 268.651 122.169C268.651 116.559 266.281 103.479 244.131 103.169L243.551 103.179Z" fill="#8F0B16"/>
<path d="M238.391 123.149L242.751 127.509L252.601 119.529" fill="white"/>
<path d="M242.752 128.51C242.62 128.511 242.489 128.486 242.368 128.436C242.246 128.386 242.135 128.313 242.042 128.22L237.682 123.86C237.577 123.771 237.492 123.66 237.432 123.536C237.372 123.412 237.338 123.277 237.333 123.139C237.327 123.002 237.351 122.864 237.401 122.736C237.451 122.608 237.527 122.491 237.625 122.394C237.722 122.296 237.839 122.22 237.967 122.17C238.096 122.119 238.233 122.096 238.371 122.101C238.508 122.107 238.643 122.141 238.768 122.201C238.892 122.261 239.002 122.346 239.092 122.45L242.822 126.17L251.972 118.76C252.072 118.67 252.19 118.601 252.319 118.557C252.447 118.513 252.583 118.496 252.718 118.507C252.853 118.517 252.985 118.555 253.105 118.618C253.225 118.681 253.331 118.768 253.416 118.873C253.502 118.978 253.565 119.1 253.602 119.23C253.639 119.36 253.649 119.497 253.632 119.631C253.615 119.766 253.57 119.895 253.502 120.012C253.433 120.129 253.341 120.23 253.232 120.31L243.382 128.31C243.2 128.446 242.978 128.517 242.752 128.51Z" fill="#8F0B16"/>
<path d="M370.119 99.4301C370.378 99.5236 370.661 99.5303 370.924 99.4491C371.188 99.368 371.417 99.2033 371.579 98.9801L379.159 88.4001C379.257 88.2668 379.327 88.1153 379.365 87.9546C379.403 87.7938 379.409 87.627 379.382 87.464C379.355 87.301 379.296 87.145 379.208 87.0052C379.12 86.8654 379.004 86.7447 378.869 86.6501C378.598 86.4579 378.262 86.3806 377.934 86.4349C377.607 86.4892 377.313 86.6708 377.119 86.9401L369.539 97.5201C369.441 97.6533 369.371 97.8048 369.333 97.9655C369.294 98.1263 369.288 98.2931 369.316 98.4561C369.343 98.6191 369.402 98.7751 369.49 98.9149C369.578 99.0547 369.693 99.1754 369.829 99.2701C369.918 99.3368 370.015 99.3906 370.119 99.4301Z" fill="#8F0B16"/>
<path d="M379.08 113.361C379.285 113.436 379.505 113.457 379.72 113.421L392.29 111.341C392.6 111.267 392.87 111.078 393.047 110.812C393.223 110.547 393.292 110.224 393.24 109.91C393.188 109.596 393.019 109.312 392.766 109.118C392.514 108.923 392.197 108.831 391.88 108.861L379.31 110.941C379.038 110.988 378.789 111.124 378.601 111.326C378.413 111.529 378.297 111.788 378.271 112.063C378.245 112.338 378.31 112.614 378.456 112.849C378.602 113.083 378.822 113.263 379.08 113.361Z" fill="#8F0B16"/>
<path d="M340.46 104.61C340.744 104.71 341.055 104.705 341.336 104.595C341.617 104.486 341.85 104.279 341.991 104.013C342.133 103.747 342.174 103.439 342.108 103.144C342.041 102.85 341.872 102.59 341.63 102.41L330.73 94.5997C330.464 94.4571 330.155 94.4154 329.861 94.4824C329.567 94.5493 329.307 94.7205 329.129 94.9642C328.951 95.2079 328.867 95.5077 328.893 95.8083C328.919 96.1089 329.053 96.39 329.27 96.5997L340.17 104.41C340.256 104.491 340.354 104.558 340.46 104.61Z" fill="#8F0B16"/>
<path d="M385.641 137.001C385.926 137.107 386.24 137.106 386.525 136.999C386.809 136.891 387.046 136.684 387.19 136.416C387.333 136.147 387.375 135.836 387.307 135.539C387.24 135.242 387.067 134.98 386.821 134.801L376.571 127.451C376.436 127.355 376.284 127.286 376.122 127.248C375.961 127.21 375.794 127.205 375.63 127.232C375.467 127.259 375.31 127.317 375.17 127.405C375.029 127.492 374.907 127.607 374.811 127.741C374.714 127.876 374.645 128.028 374.607 128.189C374.57 128.351 374.564 128.518 374.591 128.681C374.618 128.845 374.677 129.001 374.764 129.142C374.852 129.283 374.966 129.405 375.101 129.501L385.351 136.841C385.441 136.906 385.538 136.959 385.641 137.001Z" fill="#8F0B16"/>
<path d="M354.149 96.0003C354.355 96.0763 354.578 96.097 354.795 96.0604C355.011 96.0238 355.215 95.9311 355.384 95.7916C355.554 95.6521 355.685 95.4706 355.763 95.2651C355.841 95.0597 355.864 94.8374 355.829 94.6203L353.659 81.5103C353.643 81.3381 353.592 81.171 353.508 81.0194C353.425 80.8679 353.311 80.7352 353.174 80.6295C353.037 80.5239 352.88 80.4475 352.712 80.4053C352.544 80.3631 352.37 80.3558 352.199 80.3841C352.028 80.4123 351.865 80.4753 351.72 80.5693C351.575 80.6633 351.45 80.7862 351.355 80.9303C351.259 81.0744 351.194 81.2367 351.164 81.407C351.134 81.5773 351.139 81.7521 351.179 81.9203L353.349 95.0003C353.38 95.2236 353.47 95.4345 353.611 95.6105C353.752 95.7866 353.938 95.9212 354.149 96.0003Z" fill="#8F0B16"/>
<g opacity="0.5">
<path d="M370.119 99.4301C370.378 99.5236 370.661 99.5303 370.924 99.4491C371.188 99.368 371.417 99.2033 371.579 98.9801L379.159 88.4001C379.257 88.2668 379.327 88.1153 379.365 87.9546C379.403 87.7938 379.409 87.627 379.382 87.464C379.355 87.301 379.296 87.145 379.208 87.0052C379.12 86.8654 379.004 86.7447 378.869 86.6501C378.598 86.4579 378.262 86.3806 377.934 86.4349C377.607 86.4892 377.313 86.6708 377.119 86.9401L369.539 97.5201C369.441 97.6533 369.371 97.8048 369.333 97.9655C369.294 98.1263 369.288 98.2931 369.316 98.4561C369.343 98.6191 369.402 98.7751 369.49 98.9149C369.578 99.0547 369.693 99.1754 369.829 99.2701C369.918 99.3368 370.015 99.3906 370.119 99.4301Z" fill="white"/>
<path d="M379.08 113.361C379.285 113.436 379.505 113.457 379.72 113.421L392.29 111.341C392.6 111.267 392.87 111.078 393.047 110.812C393.223 110.547 393.292 110.224 393.24 109.91C393.188 109.596 393.019 109.312 392.766 109.118C392.514 108.923 392.197 108.831 391.88 108.861L379.31 110.941C379.038 110.988 378.789 111.124 378.601 111.326C378.413 111.529 378.297 111.788 378.271 112.063C378.245 112.338 378.31 112.614 378.456 112.849C378.602 113.083 378.822 113.263 379.08 113.361Z" fill="white"/>
<path d="M340.46 104.61C340.744 104.71 341.055 104.705 341.336 104.595C341.617 104.486 341.85 104.279 341.991 104.013C342.133 103.747 342.174 103.439 342.108 103.144C342.041 102.85 341.872 102.59 341.63 102.41L330.73 94.5997C330.464 94.4571 330.155 94.4154 329.861 94.4824C329.567 94.5493 329.307 94.7205 329.129 94.9642C328.951 95.2079 328.867 95.5077 328.893 95.8083C328.919 96.1089 329.053 96.39 329.27 96.5997L340.17 104.41C340.256 104.491 340.354 104.558 340.46 104.61Z" fill="white"/>
<path d="M385.641 137.001C385.926 137.107 386.24 137.106 386.525 136.999C386.809 136.891 387.046 136.684 387.19 136.416C387.333 136.147 387.375 135.836 387.307 135.539C387.24 135.242 387.067 134.98 386.821 134.801L376.571 127.451C376.436 127.355 376.284 127.286 376.122 127.248C375.961 127.21 375.794 127.205 375.63 127.232C375.467 127.259 375.31 127.317 375.17 127.405C375.029 127.492 374.907 127.607 374.811 127.741C374.714 127.876 374.645 128.028 374.607 128.189C374.57 128.351 374.564 128.518 374.591 128.681C374.618 128.845 374.677 129.001 374.764 129.142C374.852 129.283 374.966 129.405 375.101 129.501L385.351 136.841C385.441 136.906 385.538 136.959 385.641 137.001Z" fill="white"/>
<path d="M354.149 96.0003C354.355 96.0763 354.578 96.097 354.795 96.0604C355.011 96.0238 355.215 95.9311 355.384 95.7916C355.554 95.6521 355.685 95.4706 355.763 95.2651C355.841 95.0597 355.864 94.8374 355.829 94.6203L353.659 81.5103C353.643 81.3381 353.592 81.171 353.508 81.0194C353.425 80.8679 353.311 80.7352 353.174 80.6295C353.037 80.5239 352.88 80.4475 352.712 80.4053C352.544 80.3631 352.37 80.3558 352.199 80.3841C352.028 80.4123 351.865 80.4753 351.72 80.5693C351.575 80.6633 351.45 80.7862 351.355 80.9303C351.259 81.0744 351.194 81.2367 351.164 81.407C351.134 81.5773 351.139 81.7521 351.179 81.9203L353.349 95.0003C353.38 95.2236 353.47 95.4345 353.611 95.6105C353.752 95.7866 353.938 95.9212 354.149 96.0003Z" fill="white"/>
</g>
<path d="M343.23 108.189C345.967 104.808 349.896 102.604 354.209 102.032C358.522 101.46 362.889 102.564 366.413 105.115C369.937 107.666 372.349 111.471 373.152 115.747C373.955 120.023 373.088 124.444 370.73 128.099C366.73 133.609 359.66 134.159 353.73 136.519C351.89 137.249 348.33 142.369 348.33 142.369L336.67 133.919C336.67 133.919 340.42 128.919 340.54 126.969C340.93 120.599 339.24 113.699 343.23 108.189Z" fill="#8F0B16"/>
<path opacity="0.4" d="M343.23 108.189C345.967 104.808 349.896 102.604 354.209 102.032C358.522 101.46 362.889 102.564 366.413 105.115C369.937 107.666 372.349 111.471 373.152 115.747C373.955 120.023 373.088 124.444 370.73 128.099C366.73 133.609 359.66 134.159 353.73 136.519C351.89 137.249 348.33 142.369 348.33 142.369L336.67 133.919C336.67 133.919 340.42 128.919 340.54 126.969C340.93 120.599 339.24 113.699 343.23 108.189Z" fill="white"/>
<path d="M337 140.471L342 144.071C342.439 144.39 342.937 144.619 343.465 144.745C343.992 144.871 344.54 144.892 345.076 144.807C345.611 144.721 346.125 144.531 346.587 144.247C347.05 143.963 347.452 143.59 347.77 143.151L336.1 134.711C335.46 135.596 335.196 136.697 335.364 137.776C335.533 138.855 336.121 139.824 337 140.471Z" fill="#263238"/>
<path d="M337 145.78C337.723 146.303 338.624 146.517 339.505 146.377C340.386 146.236 341.175 145.752 341.7 145.03L336.25 141.08C335.727 141.803 335.513 142.704 335.653 143.585C335.794 144.466 336.278 145.256 337 145.78Z" fill="#263238"/>
<path opacity="0.5" d="M337 145.78C337.723 146.303 338.624 146.517 339.505 146.377C340.386 146.236 341.175 145.752 341.7 145.03L336.25 141.08C335.727 141.803 335.513 142.704 335.653 143.585C335.794 144.466 336.278 145.256 337 145.78Z" fill="white"/>
<g opacity="0.7">
<path d="M337 140.471L342 144.071C342.439 144.39 342.937 144.619 343.465 144.745C343.992 144.871 344.54 144.892 345.076 144.807C345.611 144.721 346.125 144.531 346.587 144.247C347.05 143.963 347.452 143.59 347.77 143.151L336.1 134.711C335.46 135.596 335.196 136.697 335.364 137.776C335.533 138.855 336.121 139.824 337 140.471Z" fill="white"/>
</g>
<path opacity="0.3" d="M346.7 106.81C340.47 115.5 338.86 129.24 345.57 134.04C352.28 138.84 365.57 131.74 370.99 124.22C374.31 119.59 371.57 111.93 364.86 107.13C358.15 102.33 350 102.18 346.7 106.81Z" fill="white"/>
<path opacity="0.4" d="M344.91 118.33C343.799 119.878 343.171 121.72 343.107 123.624C343.043 125.528 343.545 127.408 344.55 129.027C345.554 130.646 347.016 131.93 348.751 132.717C350.486 133.505 352.415 133.76 354.295 133.451C356.175 133.141 357.921 132.281 359.312 130.979C360.703 129.678 361.676 127.993 362.11 126.137C362.543 124.282 362.416 122.34 361.745 120.557C361.074 118.774 359.889 117.23 358.34 116.12C356.266 114.634 353.686 114.032 351.168 114.446C348.65 114.861 346.399 116.258 344.91 118.33Z" fill="white"/>
<path opacity="0.4" d="M345.889 121.999C343.709 124.999 345.509 127.719 348.549 129.899C351.589 132.079 354.699 132.899 356.879 129.899C359.059 126.899 357.219 124.219 354.189 122.039C351.159 119.859 348.059 118.999 345.889 121.999Z" fill="white"/>
<path d="M106.66 143.25L110.07 146.09L129.79 129.24L154.97 134.33L174.16 116.23L175.88 118.59L180.43 108.33L169.27 109.52L170.99 111.88L154.15 130.53L128.94 125.63L106.66 143.25Z" fill="#8F0B16"/>
<g opacity="0.3">
<path d="M106.66 143.25L110.07 146.09L129.79 129.24L154.97 134.33L174.16 116.23L175.88 118.59L180.43 108.33L169.27 109.52L170.99 111.88L154.15 130.53L128.94 125.63L106.66 143.25Z" fill="white"/>
</g>
<path d="M293.099 290.719C293.679 299.779 291.439 311.439 289.299 320.129C287.529 327.309 286.299 329.289 285.829 332.469C285.319 336.089 286.419 341.469 286.139 346.019C285.069 364.019 277.749 400.419 277.749 400.419L271.609 400.029L271.769 329.559L275.769 261.279L299.999 267.739C302.419 280.999 293.099 290.719 293.099 290.719Z" fill="#DD8C6A"/>
<path d="M324.279 401.671L318.699 401.511L303.209 332.711L287.549 266.141L312.659 265.391C318.659 277.391 312.569 289.391 312.569 289.391C315.699 297.921 316.889 309.731 317.319 318.681C317.679 326.061 317.029 328.321 317.509 331.491C318.069 335.111 319.829 339.921 320.879 344.391C324.999 362.131 324.279 401.671 324.279 401.671Z" fill="#DD8C6A"/>
<path d="M242.499 204.59L245.419 208.43C248.329 209.33 248.269 213.66 248.269 213.66C248.899 214.15 254.819 217.89 256.199 219.1L252.709 222.86C251.199 220.55 245.949 216.64 245.949 216.64C245.949 216.64 238.809 212.27 237.639 210.71C236.469 209.15 238.419 204.51 238.419 204.51L242.499 204.59Z" fill="#DD8C6A"/>
<path d="M250.579 214.05C255.369 217.54 262.439 222.89 262.439 222.89C266.204 218.73 270.175 214.761 274.339 211C276.92 208.55 279.873 206.525 283.089 205L281.859 219.39C278.069 222.65 266.189 232.51 261.549 232.11C257.719 231.78 250.609 223.57 246.549 218.49L250.579 214.05Z" fill="#263238"/>
<path opacity="0.2" d="M270.15 228.31C272.68 224.04 279.62 212.83 279.62 212.83L281.28 216.6L280.16 220.74C278.4 222.22 272.69 226.46 270.15 228.31Z" fill="black"/>
<path d="M315.71 212.28C314.693 225.457 312.803 238.553 310.05 251.48C310.05 251.48 324.7 263.48 319.95 312.77C319.95 312.77 305.13 319.33 270.15 311.53L276.8 251.26C276.8 251.26 275.26 212.09 279.42 207.72C283.1 203.84 299.15 198.72 311.42 204.8C312.798 205.479 313.941 206.554 314.705 207.886C315.469 209.218 315.819 210.748 315.71 212.28Z" fill="#8F0B16"/>
<path opacity="0.4" d="M315.71 212.28C314.693 225.457 312.803 238.553 310.05 251.48C310.05 251.48 324.7 263.48 319.95 312.77C319.95 312.77 305.13 319.33 270.15 311.53L276.8 251.26C276.8 251.26 275.26 212.09 279.42 207.72C283.1 203.84 299.15 198.72 311.42 204.8C312.798 205.479 313.941 206.554 314.705 207.886C315.469 209.218 315.819 210.748 315.71 212.28Z" fill="black"/>
<path opacity="0.3" d="M298.68 250.16C298.68 250.16 287.95 252.02 280.41 250.16V254.76C280.41 254.76 286.02 255.57 298.68 254.76V250.16Z" fill="black"/>
<path d="M304.92 188C303.5 192 301.65 199.15 303.17 203.26C303.351 203.738 303.363 204.263 303.205 204.748C303.047 205.234 302.727 205.651 302.3 205.93C299.21 208.16 294.18 209.93 290.4 209.56C285.55 209.03 286.81 205.56 288.05 203.71C288.38 203.21 288.9 202.5 289.49 202.39C294.26 201.58 295.17 198 294.8 194.39L304.92 188Z" fill="#DD8C6A"/>
<path opacity="0.3" d="M300.799 190.609L294.799 194.359C294.879 195.244 294.879 196.135 294.799 197.019C296.001 196.983 297.176 196.653 298.222 196.059C299.268 195.465 300.152 194.624 300.799 193.609C301.499 192.339 301.289 190.839 300.799 190.609Z" fill="black"/>
<path d="M289.169 190.051L286.459 194.921C287.299 194.991 288.059 195.271 288.899 195.341C289.319 194.681 289.819 194.031 290.239 193.341C290.079 194.021 289.529 194.751 289.359 195.421C290.85 195.695 292.363 195.839 293.879 195.851C293.955 195.627 293.985 195.39 293.966 195.154C293.947 194.919 293.88 194.69 293.769 194.481C292.966 192.672 291.549 191.206 289.769 190.341L289.169 190.051Z" fill="#263238"/>
<path d="M306.809 181.429C305.059 187.659 304.349 191.429 300.459 193.949C294.609 197.789 287.459 193.199 287.289 186.579C287.159 180.579 290.049 171.419 296.769 170.249C299.068 169.841 301.435 170.36 303.352 171.693C305.269 173.025 306.58 175.062 306.999 177.359C307.248 178.713 307.183 180.105 306.809 181.429Z" fill="#DD8C6A"/>
<path d="M292.2 181.43C291.447 182.603 290.539 183.67 289.5 184.6C289.747 184.858 290.045 185.06 290.377 185.193C290.708 185.325 291.064 185.386 291.42 185.37L292.2 181.43Z" fill="#FF5652"/>
<path d="M299.05 179.14C299.099 179.15 299.15 179.15 299.2 179.14C299.272 179.104 299.328 179.041 299.355 178.965C299.383 178.889 299.381 178.805 299.35 178.73C299.152 178.281 298.851 177.885 298.47 177.576C298.089 177.266 297.64 177.052 297.16 176.95C297.079 176.939 296.997 176.96 296.931 177.008C296.866 177.057 296.822 177.13 296.81 177.21C296.798 177.291 296.819 177.373 296.868 177.439C296.916 177.504 296.989 177.548 297.07 177.56C297.448 177.647 297.801 177.822 298.1 178.07C298.399 178.319 298.635 178.634 298.79 178.99C298.816 179.036 298.854 179.074 298.9 179.1C298.945 179.127 298.997 179.14 299.05 179.14Z" fill="#263238"/>
<path d="M289.219 176.2C289.264 176.228 289.316 176.242 289.369 176.242C289.422 176.242 289.474 176.228 289.519 176.2C289.848 175.999 290.219 175.878 290.604 175.849C290.988 175.819 291.374 175.881 291.729 176.03C291.802 176.065 291.886 176.07 291.963 176.044C292.039 176.018 292.103 175.962 292.139 175.89C292.158 175.855 292.17 175.816 292.173 175.776C292.177 175.736 292.173 175.696 292.161 175.658C292.149 175.619 292.129 175.584 292.103 175.554C292.077 175.523 292.045 175.498 292.009 175.48C291.559 175.284 291.068 175.198 290.577 175.229C290.087 175.26 289.611 175.408 289.189 175.66C289.154 175.679 289.123 175.705 289.098 175.735C289.073 175.766 289.054 175.802 289.043 175.84C289.032 175.878 289.029 175.918 289.033 175.958C289.038 175.997 289.05 176.035 289.069 176.07C289.106 176.126 289.158 176.171 289.219 176.2Z" fill="#263238"/>
<path d="M302.939 201.221L295.939 206.641C295.641 206.873 295.293 207.033 294.923 207.108C294.553 207.183 294.171 207.172 293.806 207.075C293.441 206.979 293.103 206.799 292.819 206.55C292.535 206.301 292.313 205.99 292.169 205.641L290.579 202.001L288.719 202.481C288.506 202.531 288.312 202.641 288.158 202.796C288.004 202.952 287.897 203.147 287.849 203.361C287.479 205.071 286.119 209.251 286.199 213.001C286.199 213.001 290.489 207.261 292.909 211.391C292.909 211.391 296.069 207.661 298.619 214.111C300.251 211.765 301.696 209.294 302.939 206.721C304.249 203.661 305.129 202.001 305.129 202.001L302.939 201.221Z" fill="white"/>
<path d="M303.78 201.529C300.714 214.771 298.625 228.221 297.53 241.769C296.12 262.049 295.83 268.179 303.85 267.299C311.87 266.419 318.44 265.409 317.27 262.489C316.1 259.569 311.73 252.999 312 249.649C312.27 246.299 315.06 220.189 315.38 216.239C315.7 212.289 318.08 203.999 303.78 201.529Z" fill="#263238"/>
<path d="M305.15 256.76C305.05 256.22 306.97 254.27 309.15 252.91C310.603 252.043 312.145 251.335 313.75 250.8C313.75 250.8 318.23 245.53 319.47 244.1L322.93 247.1C320.676 249.175 318.53 251.365 316.5 253.66L314.64 257.59C313.971 258.538 313.074 259.302 312.03 259.81C310.857 260.354 309.635 260.786 308.38 261.1C308.139 261.163 307.884 261.148 307.652 261.056C307.419 260.965 307.223 260.801 307.09 260.59C306.255 259.417 305.601 258.126 305.15 256.76Z" fill="#DD8C6A"/>
<path d="M289.709 202.211C289.709 202.211 283.139 214.571 282.709 235.211C282.279 255.851 283.179 266.791 279.359 267.421C275.539 268.051 274.689 265.421 274.689 265.421C274.689 265.421 275.819 254.221 275.819 251.491C275.819 248.761 274.619 232.231 275.819 220.421C277.019 208.611 275.819 209.331 277.819 208.011C279.819 206.691 284.349 203.301 289.709 202.211Z" fill="#263238"/>
<path opacity="0.2" d="M313.149 238.491L309.209 215.881C309.209 215.881 312.459 219.191 314.869 221.731C314.409 226.351 313.729 232.871 313.149 238.491Z" fill="black"/>
<path d="M311.36 204.121C311.36 204.121 308.69 210.931 309.21 215.881C309.43 217.981 324.35 233.981 324.35 233.981L313.1 248.901L318.9 253.901C318.9 253.901 334.9 238.061 335.03 233.771C335.16 229.481 317.37 205.931 311.36 204.121Z" fill="#263238"/>
<path d="M296.78 180.69C296.68 181.21 296.32 181.57 295.98 181.51C295.64 181.45 295.44 180.97 295.55 180.44C295.66 179.91 296.01 179.56 296.35 179.62C296.69 179.68 296.88 180.16 296.78 180.69Z" fill="#263238"/>
<path d="M290.889 179.529C290.789 180.049 290.429 180.419 290.089 180.349C289.749 180.279 289.559 179.809 289.659 179.289C289.759 178.769 290.119 178.399 290.459 178.469C290.799 178.539 290.999 178.999 290.889 179.529Z" fill="#263238"/>
<path d="M290.6 178.52L289.42 177.92C289.42 177.92 289.88 179 290.6 178.52Z" fill="#263238"/>
<path d="M296.489 179.68L295.309 179.08C295.309 179.08 295.769 180.18 296.489 179.68Z" fill="#263238"/>
<path d="M293.13 188.27C292.797 188.296 292.463 188.296 292.13 188.27C292.107 188.27 292.085 188.265 292.064 188.256C292.043 188.247 292.024 188.233 292.009 188.216C291.994 188.199 291.983 188.179 291.976 188.157C291.969 188.135 291.967 188.113 291.97 188.09C291.973 188.047 291.992 188.006 292.023 187.976C292.055 187.946 292.097 187.93 292.14 187.93C292.858 187.992 293.581 187.886 294.251 187.621C294.921 187.355 295.52 186.937 296 186.4C296.015 186.383 296.033 186.369 296.054 186.36C296.075 186.351 296.097 186.346 296.12 186.346C296.143 186.346 296.165 186.351 296.186 186.36C296.207 186.369 296.225 186.383 296.24 186.4C296.272 186.432 296.29 186.475 296.29 186.52C296.29 186.565 296.272 186.608 296.24 186.64C295.447 187.557 294.336 188.14 293.13 188.27Z" fill="#263238"/>
<path d="M303.089 169.25C306.158 178.03 305.721 187.655 301.869 196.12C302.739 195.86 303.669 195.66 304.529 195.41C304.949 194.3 305.279 193.16 305.699 192.06C305.559 193.06 305.289 194.3 305.149 195.35L307.499 194.92C307.909 193.85 308.249 192.65 308.659 191.58C308.479 192.53 308.279 193.86 308.089 194.81C310.814 192.952 312.739 190.134 313.479 186.92C314.236 183.361 313.77 179.652 312.159 176.39C310.219 173 306.829 171.61 303.089 169.25Z" fill="#263238"/>
<path d="M308.999 186.53C308.517 188.09 307.439 189.398 305.999 190.17C304.089 191.17 302.679 189.59 302.829 187.55C302.949 185.72 304.099 182.98 306.199 182.8C306.663 182.763 307.129 182.844 307.553 183.035C307.978 183.226 308.347 183.522 308.626 183.894C308.905 184.266 309.086 184.703 309.151 185.164C309.217 185.625 309.164 186.095 308.999 186.53Z" fill="#DD8C6A"/>
<path d="M289.75 217.84C289.444 217.838 289.143 217.766 288.87 217.63C288.558 217.474 288.286 217.247 288.078 216.967C287.87 216.688 287.73 216.363 287.67 216.02C287.611 215.438 287.723 214.851 287.993 214.333C288.263 213.814 288.679 213.385 289.19 213.1C290.089 212.58 291.08 212.24 292.11 212.1H292.23H293.04C293.17 212.107 293.292 212.164 293.381 212.259C293.47 212.354 293.52 212.479 293.52 212.61C293.517 212.739 293.465 212.862 293.373 212.953C293.282 213.045 293.159 213.097 293.03 213.1C292.54 213.1 291.95 214.1 291.83 214.91V215.03C291.83 215.524 291.715 216.012 291.495 216.454C291.275 216.897 290.954 217.282 290.56 217.58C290.316 217.734 290.037 217.823 289.75 217.84ZM291.42 213.3C290.822 213.41 290.25 213.627 289.73 213.94C289.391 214.132 289.111 214.414 288.921 214.754C288.731 215.094 288.637 215.48 288.65 215.87C288.688 216.055 288.768 216.229 288.884 216.378C289 216.527 289.149 216.647 289.32 216.73C289.433 216.791 289.56 216.823 289.69 216.823C289.819 216.823 289.946 216.791 290.06 216.73C290.58 216.46 290.7 215.67 290.82 214.91V214.79C290.921 214.259 291.125 213.753 291.42 213.3Z" fill="white"/>
<path d="M295.859 218.171C295.521 218.172 295.19 218.071 294.909 217.881C294.543 217.547 294.262 217.131 294.088 216.666C293.914 216.202 293.853 215.703 293.909 215.211V215.091C293.909 214.301 293.389 213.231 292.909 213.161C292.781 213.146 292.664 213.081 292.583 212.98C292.503 212.878 292.465 212.749 292.479 212.621C292.49 212.493 292.55 212.374 292.647 212.289C292.745 212.205 292.871 212.163 292.999 212.171H293.809H293.929C294.939 212.415 295.893 212.849 296.739 213.451C297.214 213.79 297.579 214.26 297.79 214.804C298.002 215.347 298.05 215.94 297.929 216.511C297.836 216.848 297.662 217.157 297.424 217.413C297.185 217.669 296.889 217.864 296.559 217.981C296.34 218.088 296.103 218.152 295.859 218.171ZM294.499 213.461C294.737 213.956 294.876 214.493 294.909 215.041V215.171C294.909 215.931 294.989 216.721 295.469 217.061C295.58 217.127 295.705 217.166 295.833 217.174C295.962 217.183 296.091 217.161 296.209 217.111C296.388 217.046 296.55 216.941 296.682 216.804C296.813 216.668 296.912 216.502 296.969 216.321C297.021 215.941 296.969 215.554 296.817 215.201C296.666 214.849 296.421 214.545 296.109 214.321C295.625 213.946 295.081 213.655 294.499 213.461Z" fill="white"/>
<path d="M289.999 223.241C289.946 223.251 289.892 223.251 289.839 223.241C289.713 223.2 289.608 223.11 289.548 222.992C289.488 222.874 289.478 222.737 289.519 222.611C290.514 219.519 291.184 216.332 291.519 213.101C291.532 212.968 291.597 212.846 291.701 212.762C291.804 212.678 291.936 212.638 292.069 212.651C292.201 212.664 292.323 212.73 292.408 212.833C292.492 212.936 292.532 213.068 292.519 213.201C292.188 216.501 291.518 219.758 290.519 222.921C290.48 223.024 290.407 223.112 290.313 223.17C290.219 223.227 290.109 223.253 289.999 223.241Z" fill="white"/>
<path d="M293.999 225.73C293.901 225.73 293.804 225.7 293.722 225.645C293.641 225.59 293.577 225.511 293.539 225.42C293.15 224.417 292.931 223.356 292.889 222.28C292.888 221.188 292.978 220.097 293.159 219.02C293.239 218.48 293.319 217.94 293.369 217.4C293.622 215.905 293.35 214.368 292.599 213.05C292.563 212.996 292.537 212.934 292.524 212.87C292.511 212.806 292.51 212.739 292.523 212.675C292.535 212.61 292.561 212.549 292.597 212.494C292.633 212.439 292.68 212.392 292.734 212.355C292.789 212.318 292.85 212.293 292.914 212.28C292.979 212.266 293.045 212.266 293.11 212.279C293.174 212.291 293.236 212.316 293.291 212.353C293.345 212.389 293.393 212.436 293.429 212.49C294.314 213.997 294.643 215.766 294.359 217.49C294.309 218.05 294.229 218.61 294.149 219.16C293.975 220.178 293.889 221.208 293.889 222.24C293.926 223.202 294.122 224.152 294.469 225.05C294.516 225.174 294.513 225.31 294.46 225.432C294.408 225.553 294.311 225.649 294.189 225.7C294.128 225.721 294.064 225.731 293.999 225.73Z" fill="white"/>
<path d="M302.609 180.72C302.069 180.23 301.309 179.62 300.769 179.12C301.025 178.033 301.113 176.914 301.029 175.8C300.779 176.68 300.699 177.58 300.449 178.46L298.609 177.24C298.171 176.881 297.634 176.665 297.069 176.62C297.169 175.71 297.209 174.78 297.319 173.87C297.109 174.68 296.869 175.58 296.669 176.39C295.949 176.29 295.119 176.12 294.409 176.02C294.489 175.02 294.609 174.1 294.699 173.13C294.389 173.89 294.169 175.19 293.859 175.95L293.649 175.66C291.602 175.159 289.48 175.04 287.389 175.31C286.689 172.56 287.529 168.67 290.229 167.78C299.379 164.73 306.869 171.87 307.079 172.46C308.449 176.23 305.919 178.73 302.609 180.72Z" fill="#263238"/>
<path d="M306 188.399C306 188.571 305.949 188.74 305.853 188.883C305.758 189.026 305.622 189.137 305.463 189.203C305.304 189.269 305.129 189.286 304.96 189.253C304.791 189.219 304.636 189.136 304.515 189.014C304.393 188.893 304.31 188.738 304.276 188.569C304.243 188.4 304.26 188.225 304.326 188.066C304.392 187.907 304.503 187.772 304.646 187.676C304.79 187.58 304.958 187.529 305.13 187.529C305.361 187.529 305.582 187.621 305.745 187.784C305.908 187.947 306 188.169 306 188.399Z" fill="#8F0B16"/>
<path d="M269.52 398.78C264.69 401.43 264.15 401.48 258.82 402.49C257.65 402.71 258.06 405.49 260.82 405.55C265.33 405.69 264.95 405.55 268.82 405.63C272.1 405.71 276.05 405.99 278.66 406.1H278.75C279.035 406.08 279.3 405.947 279.488 405.732C279.675 405.516 279.77 405.235 279.75 404.95L279.18 399.01C279.164 398.885 279.104 398.769 279.011 398.683C278.917 398.597 278.797 398.546 278.67 398.54L271.23 398.33C270.63 398.323 270.039 398.478 269.52 398.78Z" fill="#263238"/>
<path d="M269.55 399.229C269.564 399.205 269.571 399.177 269.571 399.149C269.571 399.121 269.564 399.094 269.55 399.069C269.525 399.052 269.495 399.043 269.465 399.043C269.435 399.043 269.405 399.052 269.38 399.069C269.06 399.179 266.28 400.279 266.07 401.169C266.051 401.254 266.052 401.342 266.075 401.426C266.098 401.509 266.141 401.586 266.2 401.649C266.297 401.754 266.417 401.835 266.551 401.885C266.684 401.936 266.828 401.954 266.97 401.939C267.97 401.829 269.02 400.239 269.57 399.299L269.55 399.229ZM266.36 401.139C266.56 400.649 267.95 399.949 269.02 399.489C268.23 400.749 267.44 401.489 266.9 401.579C266.806 401.593 266.711 401.581 266.623 401.546C266.535 401.511 266.458 401.454 266.4 401.379C266.373 401.359 266.353 401.331 266.342 401.299C266.332 401.266 266.331 401.232 266.34 401.199L266.36 401.139Z" fill="#8F0B16"/>
<path d="M269.55 399.231C269.557 399.203 269.555 399.173 269.544 399.146C269.533 399.119 269.514 399.097 269.49 399.081C268.749 398.499 267.842 398.167 266.9 398.131C266.743 398.151 266.592 398.203 266.456 398.283C266.32 398.364 266.202 398.472 266.11 398.601C265.86 398.951 265.93 399.191 266.05 399.331C266.54 399.941 268.66 399.701 269.46 399.331C269.482 399.323 269.502 399.31 269.518 399.292C269.534 399.275 269.545 399.254 269.55 399.231ZM266.29 398.901L266.4 398.781C266.466 398.686 266.55 398.606 266.648 398.546C266.747 398.486 266.856 398.446 266.97 398.431C267.734 398.449 268.473 398.701 269.09 399.151C268.17 399.431 266.61 399.481 266.32 399.151C266.32 399.151 266.25 399.071 266.32 398.951L266.29 398.901Z" fill="#8F0B16"/>
<path d="M316.109 399.251C313.38 401.484 310.18 403.068 306.749 403.881C305.329 404.281 306.219 406.881 309.619 406.881C315.249 406.791 313.009 406.701 317.819 406.591C321.929 406.511 323.019 406.481 326.279 406.461H326.389C326.554 406.457 326.716 406.42 326.867 406.352C327.017 406.284 327.152 406.187 327.264 406.065C327.376 405.944 327.463 405.801 327.518 405.646C327.574 405.49 327.598 405.325 327.589 405.161L326.499 398.781C326.463 398.635 326.378 398.507 326.257 398.419C326.136 398.331 325.988 398.289 325.839 398.301L317.249 398.531C316.499 398.441 316.689 398.841 316.109 399.251Z" fill="#263238"/>
<path d="M316.07 399.749C316.089 399.723 316.1 399.692 316.1 399.659C316.1 399.627 316.089 399.595 316.07 399.569C316.057 399.536 316.035 399.508 316.007 399.486C315.979 399.465 315.945 399.452 315.91 399.449C315.48 399.449 311.75 399.569 311.16 400.449C311.109 400.528 311.082 400.62 311.082 400.714C311.082 400.808 311.109 400.9 311.16 400.979C311.241 401.127 311.354 401.255 311.49 401.354C311.627 401.452 311.784 401.519 311.95 401.549C313.13 401.789 315.05 400.549 316.11 399.779L316.07 399.749ZM311.51 400.549C311.94 400.109 313.87 399.889 315.32 399.819C313.86 400.819 312.61 401.309 311.96 401.199C311.851 401.181 311.748 401.137 311.659 401.07C311.571 401.004 311.499 400.918 311.45 400.819C311.428 400.789 311.416 400.752 311.416 400.714C311.416 400.677 311.428 400.64 311.45 400.609L311.51 400.549Z" fill="#8F0B16"/>
<path d="M316.069 399.75C316.087 399.725 316.096 399.695 316.096 399.665C316.096 399.635 316.087 399.605 316.069 399.58C315.999 399.53 314.749 397.9 313.409 397.69C313.024 397.617 312.626 397.688 312.289 397.89C311.839 398.16 311.829 398.43 311.909 398.61C312.229 399.39 314.829 399.92 315.909 399.85C315.942 399.847 315.974 399.836 316.001 399.819C316.029 399.802 316.052 399.778 316.069 399.75ZM312.359 398.24L312.489 398.11C312.736 397.964 313.028 397.915 313.309 397.97C314.174 398.233 314.94 398.749 315.509 399.45C314.299 399.4 312.449 398.91 312.259 398.45C312.259 398.45 312.259 398.34 312.389 398.23L312.359 398.24Z" fill="#8F0B16"/>
<path d="M228.079 241.29C226.669 244.07 231.359 247.48 231.359 247.48L233.579 249.75C233.943 250.146 234.44 250.394 234.975 250.446C235.51 250.497 236.046 250.349 236.479 250.03L238.669 248.47L238.739 248.42C239.189 248.076 239.487 247.571 239.571 247.011C239.655 246.451 239.518 245.881 239.189 245.42L237.719 243.42C237.123 242.601 236.36 241.919 235.479 241.42L231.269 239L228.079 241.29Z" fill="#FFC3BD"/>
<path d="M209.79 180.38C210.321 179.208 211.185 178.218 212.274 177.533C213.364 176.848 214.631 176.499 215.917 176.529C217.204 176.559 218.453 176.967 219.51 177.701C220.566 178.436 221.384 179.465 221.86 180.66L222 181.01C222.865 183.455 223.205 186.055 223 188.64C222.94 191.19 222.86 193.78 222.9 196.25C222.94 198.72 222.9 207.64 222.98 210.06C223.06 212.3 227.59 222.43 231.98 237.06C232.069 237.342 232.179 237.616 232.31 237.88L233.12 239.49C233.12 239.49 231.91 240.26 230.67 241C229.666 241.755 228.566 242.374 227.4 242.84C226.748 242.249 226.209 241.545 225.81 240.76C222.31 235.24 210.88 214.76 210.28 211.76C209.69 208.98 209.28 199.76 209.02 196.96C208.76 194.16 208.56 191.43 208.48 188.67C208.418 187.285 208.472 185.897 208.64 184.52C208.816 183.088 209.204 181.689 209.79 180.37V180.38Z" fill="#263238"/>
<path opacity="0.3" d="M209.79 180.38C210.321 179.208 211.185 178.218 212.274 177.533C213.364 176.848 214.631 176.499 215.917 176.529C217.204 176.559 218.453 176.967 219.51 177.701C220.566 178.436 221.384 179.465 221.86 180.66L222 181.01C222.865 183.455 223.205 186.055 223 188.64C222.94 191.19 222.86 193.78 222.9 196.25C222.94 198.72 222.9 207.64 222.98 210.06C223.06 212.3 227.59 222.43 231.98 237.06C232.069 237.342 232.179 237.616 232.31 237.88L233.12 239.49C233.12 239.49 231.91 240.26 230.67 241C229.666 241.755 228.566 242.374 227.4 242.84C226.748 242.249 226.209 241.545 225.81 240.76C222.31 235.24 210.88 214.76 210.28 211.76C209.69 208.98 209.28 199.76 209.02 196.96C208.76 194.16 208.56 191.43 208.48 188.67C208.418 187.285 208.472 185.897 208.64 184.52C208.816 183.088 209.204 181.689 209.79 180.37V180.38Z" fill="black"/>
<path d="M173.879 183.831C175.589 203.531 182.129 214.631 181.249 230.371C181.249 230.371 216.749 231.071 217.969 231.071C218.489 202.071 222.629 204.281 221.359 185.921C221.579 179.921 218.149 176.171 214.679 175.571L199.559 172.441L180.069 175.791C178.216 176.108 176.55 177.111 175.403 178.601C174.256 180.091 173.712 181.959 173.879 183.831Z" fill="#8F0B16"/>
<path d="M201.76 364.201L206.36 400.551L215.32 399.911L212.9 364.201H201.76Z" fill="#FFC3BD"/>
<path d="M217.5 325.71C218.31 359.99 216.33 389.37 216.33 389.37L204.24 390.19C204.24 390.19 197.43 345.71 200.18 327.54C200.05 323.72 195.63 275.95 194.11 266.92C191.36 250.71 188.42 239.59 188.42 239.59L216.87 238C216.87 238 217 304.13 217.5 325.71Z" fill="#8F0B16"/>
<g opacity="0.2">
<path d="M201.269 252.051C201.269 252.051 200.349 289.601 198.709 310.191C197.859 299.061 195.629 275.951 194.109 266.921L201.269 252.051Z" fill="black"/>
</g>
<path d="M163.909 364.871L160.219 399.321L169.149 398.351L175.629 364.441L163.909 364.871Z" fill="#FFC3BD"/>
<path d="M159.1 389.25L172.81 388.75C172.81 388.75 184.49 346.66 189.42 324.42C194.2 299.63 203.12 237.76 203.12 237.76L180.33 236C168.19 257.93 172.56 310.43 170.41 325.13C160.11 343.5 159.1 389.25 159.1 389.25Z" fill="#8F0B16"/>
<path d="M216.64 227H183.27C183.27 227 177.79 246.31 177.84 246.12C177.89 245.93 217 248 217 248L216.64 227Z" fill="#8F0B16"/>
<path d="M217 397.001C222.92 400.001 223.57 400.061 230 401.081C231.42 401.311 231 404.671 227.73 404.851C222.3 405.181 222.73 404.961 218.12 405.221C214.17 405.441 208.45 405.911 205.3 406.141H205.2C205.028 406.136 204.859 406.097 204.702 406.026C204.545 405.956 204.403 405.855 204.286 405.729C204.168 405.604 204.076 405.457 204.015 405.296C203.954 405.135 203.925 404.963 203.93 404.791L204.41 397.601C204.424 397.449 204.493 397.306 204.603 397.2C204.713 397.094 204.857 397.03 205.01 397.021L214.94 396.511C215.66 396.473 216.375 396.643 217 397.001Z" fill="#263238"/>
<path d="M217 397.521C217.7 398.641 219.06 400.521 220.23 400.611C220.402 400.626 220.576 400.599 220.736 400.533C220.896 400.467 221.038 400.363 221.15 400.231C221.221 400.154 221.271 400.06 221.295 399.959C221.32 399.857 221.318 399.751 221.29 399.651C221 398.581 217.61 397.361 217.23 397.241C217.192 397.226 217.151 397.223 217.112 397.232C217.073 397.24 217.037 397.261 217.01 397.291C216.993 397.321 216.984 397.356 216.984 397.391C216.984 397.425 216.993 397.46 217.01 397.491L217 397.521ZM220.93 399.751C220.94 399.789 220.939 399.83 220.929 399.868C220.918 399.907 220.898 399.942 220.87 399.971C220.801 400.062 220.709 400.133 220.604 400.177C220.498 400.221 220.383 400.236 220.27 400.221C219.61 400.171 218.64 399.221 217.63 397.781C218.95 398.291 220.63 399.091 220.91 399.671L220.93 399.751Z" fill="#8F0B16"/>
<path d="M217 397.601C218 398.001 220.55 398.211 221.12 397.461C221.25 397.291 221.34 396.991 221.02 396.581C220.898 396.428 220.747 396.301 220.575 396.209C220.403 396.116 220.215 396.059 220.02 396.041C218.71 395.881 217.02 397.221 216.93 397.271C216.906 397.293 216.886 397.321 216.874 397.352C216.862 397.384 216.857 397.417 216.86 397.451C216.86 397.489 216.874 397.525 216.9 397.553C216.926 397.581 216.962 397.598 217 397.601ZM220.82 396.991C220.846 397.027 220.859 397.071 220.859 397.116C220.859 397.16 220.846 397.204 220.82 397.241C220.48 397.681 218.6 397.681 217.48 397.371C218.209 396.809 219.091 396.481 220.01 396.431C220.148 396.445 220.282 396.488 220.402 396.557C220.523 396.626 220.628 396.719 220.71 396.831L220.85 396.971L220.82 396.991Z" fill="#8F0B16"/>
<path d="M171.35 396.63C173.77 398.75 177.24 400.69 182.66 402.21C184.37 402.69 183.29 405.87 179.19 405.78C172.4 405.68 175.1 405.56 169.3 405.44C164.3 405.34 163.03 405.3 159.09 405.27H159C158.8 405.268 158.604 405.225 158.422 405.145C158.24 405.064 158.076 404.947 157.94 404.801C157.805 404.655 157.7 404.483 157.633 404.296C157.566 404.108 157.537 403.909 157.55 403.71L158.86 396.01C158.904 395.833 159.01 395.678 159.158 395.572C159.307 395.465 159.488 395.415 159.67 395.43L170.03 395.71C170.89 395.65 170.67 396.13 171.35 396.63Z" fill="#263238"/>
<path d="M171.379 397.261C172.649 398.191 174.959 399.671 176.379 399.391C176.588 399.364 176.788 399.287 176.962 399.167C177.136 399.047 177.279 398.887 177.379 398.701C177.443 398.607 177.477 398.495 177.477 398.381C177.477 398.267 177.443 398.156 177.379 398.061C176.669 397.011 172.159 396.871 171.649 396.871C171.603 396.87 171.559 396.884 171.523 396.911C171.486 396.938 171.46 396.977 171.449 397.021C171.425 397.051 171.413 397.088 171.413 397.126C171.413 397.164 171.425 397.201 171.449 397.231L171.379 397.261ZM176.979 398.261C177.006 398.297 177.02 398.341 177.02 398.386C177.02 398.431 177.006 398.475 176.979 398.511C176.917 398.63 176.829 398.733 176.722 398.813C176.615 398.893 176.49 398.947 176.359 398.971C175.579 399.101 174.059 398.501 172.299 397.301C174.049 397.391 176.379 397.661 176.899 398.191L176.979 398.261Z" fill="#8F0B16"/>
<path d="M171.56 397.31C172.88 397.4 176.02 396.76 176.4 395.82C176.51 395.6 176.49 395.27 175.95 394.95C175.544 394.71 175.065 394.621 174.6 394.7C172.98 394.96 171.47 396.92 171.39 396.99C171.369 397.019 171.357 397.054 171.357 397.09C171.357 397.126 171.369 397.161 171.39 397.19C171.429 397.25 171.49 397.293 171.56 397.31ZM175.85 395.38C175.99 395.52 175.95 395.61 176.01 395.65C175.78 396.21 173.55 396.8 172.09 396.87C172.775 396.022 173.698 395.399 174.74 395.08C175.083 395.007 175.44 395.068 175.74 395.25L175.9 395.41L175.85 395.38Z" fill="#8F0B16"/>
<path opacity="0.8" d="M173.88 183.831C175.59 203.531 182.13 214.631 181.25 230.371C181.25 230.371 216.75 231.071 217.97 231.071C218.49 202.071 222.63 204.281 221.36 185.921C221.58 179.921 217.99 176.131 214.52 175.531L199.52 172.441L180.03 175.791C178.184 176.117 176.527 177.124 175.388 178.613C174.25 180.102 173.711 181.964 173.88 183.831Z" fill="white"/>
<path d="M210.75 213.141L206.75 220.261L199.51 212.551C199.51 212.361 202.61 180.001 202.61 180.001L204.48 179.861C204.3 183.791 210.75 213.141 210.75 213.141Z" fill="#8F0B16"/>
<path d="M209.55 178.63C211.264 192.461 209.849 206.5 205.41 219.71L208.41 252.05C209 256.74 212.01 257.66 214.7 257.91L220.22 257.47L218.22 226.61C218.22 226.61 222.73 192.61 221.69 184.91C221 179.83 219.32 177.85 218.12 176.82C217.605 176.388 216.99 176.092 216.33 175.96C214.23 175.52 208.05 173.85 208.33 173.96C208.61 174.07 209.55 178.63 209.55 178.63Z" fill="#263238"/>
<path d="M206.62 164.46C205.86 168.07 204.69 172.99 208.62 174.67C210.33 175.41 211.14 177.81 209.5 178.58C207.86 179.35 197.24 178.58 196.31 178.14C194.01 176.96 192.39 176.14 193.63 173.84C195.79 169.91 194.42 161.69 194.13 157.74L206.62 164.46Z" fill="#FFC3BD"/>
<path d="M205.539 178.201L205.049 179.751C205.015 179.929 204.928 180.093 204.799 180.221C204.671 180.35 204.507 180.437 204.329 180.471L202.459 180.611C202.308 180.612 202.161 180.565 202.039 180.477C201.917 180.389 201.826 180.264 201.779 180.121L200.869 178.741L203.199 177.371L205.539 178.201Z" fill="#8F0B16"/>
<path opacity="0.2" d="M196.609 163.451C197.177 164.838 197.99 166.112 199.009 167.211C200.459 168.871 203.189 169.601 205.829 169.601C205.919 167.853 206.18 166.118 206.609 164.421L206.059 164.131L196.609 163.451Z" fill="black"/>
<path d="M192 257.792C201 258.402 203.5 257.472 204.75 250.452C204.75 250.452 207.13 225.282 206.66 219.712C206.66 219.712 200.66 208.012 199.48 199.882C198.2 190.792 192.62 172.592 191.01 172.712C187.92 172.922 176.39 176.962 174.52 179.432C172.04 182.722 173.65 186.522 174.24 190.602C176.12 203.672 177.53 208.172 178.24 221.352C178.24 221.352 172.24 255.352 173.16 255.472C173.86 255.542 184.82 257.302 192 257.792Z" fill="#263238"/>
<path opacity="0.2" d="M181.25 230.371H196.61V231.061C196.61 232.037 196.222 232.973 195.532 233.663C194.842 234.353 193.906 234.741 192.93 234.741H184.93C183.954 234.741 183.018 234.353 182.328 233.663C181.638 232.973 181.25 232.037 181.25 231.061V230.371Z" fill="white"/>
<path opacity="0.2" d="M218.57 234.911H216.41C215.434 234.949 214.482 234.599 213.762 233.938C213.043 233.277 212.614 232.357 212.57 231.381V230.701L218.51 230.451L218.57 234.911Z" fill="white"/>
<path d="M212.67 159.401C211.67 166.551 203.38 170.671 197.56 165.851C194.19 163.071 193.56 159.611 192.68 154.201C192.55 153.381 192.42 152.521 192.27 151.601C192.029 150.174 192.111 148.711 192.51 147.321C192.668 146.74 192.886 146.177 193.16 145.641C194.161 143.617 195.84 142.008 197.905 141.095C199.97 140.181 202.289 140.021 204.46 140.641C211.59 142.721 213.56 153.001 212.67 159.401Z" fill="#FFC3BD"/>
<path d="M195.55 146.221C196.52 147.808 197.34 149.482 198 151.221C197.361 151.367 196.748 151.606 196.18 151.931C195.66 152.261 196.18 153.821 196.45 154.401C196.936 155.571 197.501 156.707 198.14 157.801C197.213 158.195 196.243 158.477 195.25 158.641C194.978 157.882 194.533 157.198 193.95 156.641C193.612 156.228 193.157 155.926 192.646 155.774C192.134 155.623 191.588 155.629 191.08 155.791C190.9 154.901 185.67 150.881 190.03 148.191C190.668 147.684 191.371 147.264 192.12 146.941L193.12 146.571C193.904 146.318 194.726 146.2 195.55 146.221Z" fill="#263238"/>
<path d="M191.32 154C193.55 153.49 195.62 155.94 196.32 157.8C197.14 159.86 196.16 161.97 193.86 161.56C193.003 161.397 192.187 161.065 191.46 160.584C190.732 160.104 190.107 159.484 189.62 158.76C189.312 158.362 189.109 157.893 189.029 157.395C188.95 156.898 188.998 156.389 189.167 155.915C189.336 155.441 189.622 155.017 189.999 154.682C190.375 154.347 190.829 154.113 191.32 154Z" fill="#FFC3BD"/>
<path d="M204.7 151C205.07 151 205.42 151.39 205.48 152C205.54 152.61 205.33 153.06 204.91 153.1C204.49 153.14 204.15 152.71 204.09 152.1C204.03 151.49 204.33 151.08 204.7 151Z" fill="#263238"/>
<path d="M211.11 150.58C211.48 150.58 211.83 150.97 211.89 151.58C211.95 152.19 211.7 152.64 211.32 152.68C210.94 152.72 210.6 152.29 210.54 151.73C210.48 151.17 210.74 150.63 211.11 150.58Z" fill="#263238"/>
<path d="M209.49 157.71C209.972 157.729 210.453 157.642 210.897 157.453C211.342 157.265 211.739 156.98 212.06 156.62C210.654 155.393 209.425 153.976 208.41 152.41L209.49 157.71Z" fill="#F98C8C"/>
<path d="M203.169 150.06C203.374 149.695 203.662 149.383 204.009 149.148C204.356 148.914 204.754 148.764 205.169 148.71H205.279C205.368 148.696 205.447 148.646 205.5 148.573C205.552 148.5 205.573 148.409 205.559 148.32C205.542 148.233 205.492 148.155 205.42 148.103C205.347 148.051 205.257 148.028 205.169 148.04C204.639 148.09 204.128 148.266 203.679 148.553C203.231 148.84 202.857 149.23 202.589 149.69C202.546 149.767 202.534 149.856 202.555 149.942C202.575 150.027 202.626 150.101 202.699 150.15C202.755 150.165 202.813 150.165 202.869 150.15C202.977 150.16 203.084 150.128 203.169 150.06Z" fill="#263238"/>
<path d="M212.379 149.481C212.449 149.426 212.494 149.346 212.505 149.258C212.516 149.17 212.492 149.082 212.439 149.011C212.118 148.587 211.699 148.246 211.219 148.016C210.739 147.787 210.211 147.675 209.679 147.691C209.636 147.695 209.595 147.707 209.556 147.727C209.518 147.748 209.485 147.775 209.458 147.809C209.43 147.843 209.41 147.881 209.399 147.923C209.387 147.965 209.384 148.008 209.389 148.051C209.402 148.135 209.446 148.211 209.513 148.263C209.58 148.315 209.665 148.34 209.749 148.331C210.17 148.324 210.586 148.418 210.964 148.604C211.341 148.79 211.669 149.063 211.919 149.401C211.953 149.445 211.997 149.48 212.048 149.503C212.098 149.526 212.154 149.535 212.209 149.531C212.269 149.525 212.326 149.508 212.379 149.481Z" fill="#263238"/>
<path d="M201.22 214.162C199.97 209.762 198.53 205.322 195.92 201.572C194.98 200.212 193.92 198.962 192.92 197.572C191.579 195.801 190.347 193.951 189.23 192.032C190.33 191.032 191.78 190.032 192.96 189.112L188.5 185.422C189.621 181.182 190.136 176.805 190.03 172.422C190.519 172.073 191.126 171.929 191.72 172.022C193.852 175.331 195.404 178.98 196.31 182.812C198.871 193.096 200.514 203.587 201.22 214.162Z" fill="#263238"/>
<path opacity="0.2" d="M206.129 218.611C206.059 218.521 205.999 218.411 205.929 218.301C203.089 213.881 190.169 193.701 189.269 192.021C190.379 191.021 191.829 190.021 193.009 189.101L188.549 185.411C189.665 181.171 190.18 176.795 190.079 172.411C190.565 172.064 191.168 171.92 191.759 172.011C193.105 174.1 194.224 176.325 195.099 178.651C195.604 180.006 196.022 181.392 196.349 182.801C198.879 192.741 201.519 208.941 205.969 218.171L206.129 218.611Z" fill="white"/>
<path d="M212.57 216.291C212.5 211.711 212.57 207.051 214 202.701C214.51 201.131 215.19 199.621 215.72 198.051C216.4 196.051 218.47 193.571 218.89 191.471C217.55 190.861 215.89 190.241 214.47 189.751L217.68 184.931C215.38 181.201 211.87 178.161 210.68 173.931C210.112 173.738 209.492 173.774 208.95 174.031C208.24 176.381 209.36 183.221 209.42 184.661C209.92 195.291 210.23 205.921 212.57 216.291Z" fill="#263238"/>
<path opacity="0.2" d="M218.89 191.47C216.4 198.29 211.21 212.47 206.13 218.61C205.97 218.8 205.82 218.98 205.66 219.15L205.93 218.3C205.927 218.254 205.927 218.207 205.93 218.16C210.56 203.16 209.93 195.01 209.44 184.62C209.38 183.18 208.26 176.15 208.97 173.81C209.238 173.68 209.528 173.605 209.825 173.588C210.122 173.571 210.419 173.612 210.7 173.71C211.87 177.93 215.38 181.15 217.7 184.88C216.64 186.49 215.57 188.09 214.5 189.7C215.85 190.24 217.55 190.86 218.89 191.47Z" fill="white"/>
<path opacity="0.3" d="M173.46 186.72C173.46 186.72 176.53 193.62 183.94 203.81C191.47 214.16 195.699 214.16 195.699 214.16L201.22 215.82C201.22 215.82 199.799 189.72 183.759 185.82C178.999 184.63 172.44 186.75 173.46 186.72Z" fill="black"/>
<path d="M236.199 203.711L227.949 204.091V208.631L236.199 207.471V203.711Z" fill="#FFC3BD"/>
<path d="M233.831 206.701C233.661 210.701 238.541 211.611 238.541 211.611L241.081 213.691C241.487 214.04 242.005 214.232 242.541 214.232C243.076 214.232 243.594 214.04 244.001 213.691L246.101 211.901L246.161 211.851C246.597 211.45 246.857 210.892 246.884 210.3C246.91 209.708 246.7 209.129 246.301 208.691L244.591 206.801C243.899 206.029 243.05 205.415 242.101 205.001L236.201 203.711L233.831 206.701Z" fill="#FFC3BD"/>
<path d="M174.269 181.22C172.569 184.54 173.329 188.38 175.369 191.5C180.009 198.56 195.309 207.94 198.369 210.01C205.289 214.73 233.369 209.23 233.369 209.23L233.779 202.3L203.779 200.8C203.779 200.8 193.709 184.03 186.779 178.91C183.289 176.35 176.649 176.57 174.269 181.22Z" fill="#263238"/>
<path d="M196.48 139.731C196.014 139.677 195.542 139.723 195.095 139.866C194.649 140.01 194.238 140.246 193.89 140.561C191.902 142.057 190.512 144.213 189.97 146.641C189.841 147.136 189.841 147.656 189.97 148.151C190.024 148.403 190.154 148.634 190.341 148.812C190.528 148.99 190.765 149.108 191.02 149.151C191.722 148.417 192.6 147.873 193.57 147.571C195.524 146.929 197.532 146.464 199.57 146.181C203.27 145.618 206.923 144.782 210.5 143.681C211.21 143.471 212.02 143.151 212.21 142.441C212.4 141.731 210.87 140.571 211.12 140.341C211.51 139.961 212.05 139.621 212.05 139.081C212.044 138.866 211.986 138.657 211.88 138.471C211.731 138.121 211.515 137.804 211.244 137.538C210.973 137.272 210.652 137.063 210.3 136.921C209.941 136.798 209.549 136.82 209.207 136.983C208.865 137.146 208.601 137.435 208.47 137.791C208.36 137.143 208.213 136.502 208.03 135.871C207.854 135.58 207.575 135.366 207.25 135.271C206.751 135.128 206.225 135.11 205.717 135.218C205.21 135.326 204.737 135.557 204.34 135.891C203.547 136.565 202.871 137.366 202.34 138.261C201.3 139.781 198.3 140.151 196.48 139.731Z" fill="#263238"/>
<path d="M205.82 158.8C205.805 158.785 205.793 158.767 205.784 158.748C205.776 158.728 205.771 158.707 205.771 158.685C205.771 158.664 205.776 158.643 205.784 158.623C205.793 158.603 205.805 158.585 205.82 158.57C205.848 158.543 205.886 158.527 205.925 158.527C205.965 158.527 206.002 158.543 206.03 158.57C206.487 159.052 207.052 159.419 207.677 159.641C208.303 159.863 208.972 159.935 209.63 159.85C209.674 159.847 209.717 159.861 209.75 159.889C209.784 159.917 209.805 159.957 209.81 160C209.813 160.041 209.8 160.082 209.774 160.113C209.748 160.145 209.711 160.165 209.67 160.17C208.966 160.264 208.249 160.188 207.58 159.95C206.911 159.712 206.307 159.318 205.82 158.8Z" fill="#263238"/>
<path d="M191.71 172.341L194.25 171.541C196.839 174.389 200.058 176.591 203.65 177.971C202.027 178.952 200.732 180.393 199.93 182.111C191.43 178.751 191.71 172.341 191.71 172.341Z" fill="white"/>
<path d="M208.639 172.78L206.329 172.17C206.329 172.17 205.149 176.98 202.719 177.55C206.829 179.38 207.419 181.48 207.419 181.48C213.539 179.83 208.639 172.78 208.639 172.78Z" fill="white"/>
<path opacity="0.3" d="M203.84 220.902C203.826 221.084 203.758 221.258 203.646 221.402C203.533 221.547 203.381 221.654 203.207 221.712C203.034 221.77 202.847 221.776 202.67 221.728C202.494 221.681 202.335 221.582 202.214 221.445C202.093 221.307 202.016 221.138 201.991 220.956C201.966 220.775 201.995 220.591 202.075 220.426C202.155 220.261 202.281 220.124 202.438 220.03C202.596 219.937 202.777 219.892 202.96 219.902C203.083 219.909 203.204 219.941 203.315 219.996C203.426 220.05 203.526 220.126 203.607 220.219C203.689 220.312 203.752 220.42 203.792 220.537C203.831 220.654 203.848 220.778 203.84 220.902Z" fill="white"/>
</svg>
