<svg width="19" height="18" viewBox="0 0 19 18" fill="none" xmlns="http://www.w3.org/2000/svg">
<g clip-path="url(#clip0_1071_31071)">
<path d="M9.37965 0.136719C5.67858 0.136719 4.59616 0.140537 4.38575 0.157991C3.62623 0.221125 3.15361 0.340713 2.63872 0.597068C2.24191 0.794108 1.92896 1.02251 1.62011 1.34268C1.05763 1.92657 0.716728 2.64492 0.593322 3.4988C0.533324 3.91333 0.51587 3.99787 0.512325 6.11526C0.510961 6.82106 0.512325 7.74994 0.512325 8.99586C0.512325 12.6939 0.516416 13.7753 0.534142 13.9853C0.595504 14.7243 0.71141 15.1893 0.956857 15.6979C1.42593 16.6715 2.32182 17.4024 3.37724 17.6751C3.74268 17.7692 4.14631 17.821 4.66447 17.8456C4.88401 17.8551 7.12167 17.862 9.36069 17.862C11.5997 17.862 13.8387 17.8592 14.0528 17.8483C14.6528 17.8201 15.0012 17.7733 15.3864 17.6738C16.4487 17.3997 17.3282 16.6797 17.8068 15.6925C18.0475 15.1961 18.1695 14.7134 18.2247 14.0129C18.2367 13.8602 18.2418 11.4252 18.2418 8.99354C18.2418 6.56143 18.2363 4.13096 18.2243 3.97824C18.1684 3.26644 18.0464 2.78782 17.7979 2.28193C17.5941 1.8678 17.3677 1.55854 17.0391 1.24232C16.4526 0.682157 15.7354 0.341258 14.8807 0.217989C14.4665 0.158127 14.384 0.1404 12.265 0.136719H9.37965Z" fill="url(#paint0_radial_1071_31071)"/>
<path d="M9.37965 0.136719C5.67858 0.136719 4.59616 0.140537 4.38575 0.157991C3.62623 0.221125 3.15361 0.340713 2.63872 0.597068C2.24191 0.794108 1.92896 1.02251 1.62011 1.34268C1.05763 1.92657 0.716728 2.64492 0.593322 3.4988C0.533324 3.91333 0.51587 3.99787 0.512325 6.11526C0.510961 6.82106 0.512325 7.74994 0.512325 8.99586C0.512325 12.6939 0.516416 13.7753 0.534142 13.9853C0.595504 14.7243 0.71141 15.1893 0.956857 15.6979C1.42593 16.6715 2.32182 17.4024 3.37724 17.6751C3.74268 17.7692 4.14631 17.821 4.66447 17.8456C4.88401 17.8551 7.12167 17.862 9.36069 17.862C11.5997 17.862 13.8387 17.8592 14.0528 17.8483C14.6528 17.8201 15.0012 17.7733 15.3864 17.6738C16.4487 17.3997 17.3282 16.6797 17.8068 15.6925C18.0475 15.1961 18.1695 14.7134 18.2247 14.0129C18.2367 13.8602 18.2418 11.4252 18.2418 8.99354C18.2418 6.56143 18.2363 4.13096 18.2243 3.97824C18.1684 3.26644 18.0464 2.78782 17.7979 2.28193C17.5941 1.8678 17.3677 1.55854 17.0391 1.24232C16.4526 0.682157 15.7354 0.341258 14.8807 0.217989C14.4665 0.158127 14.384 0.1404 12.265 0.136719H9.37965Z" fill="url(#paint1_radial_1071_31071)"/>
<path d="M9.37588 2.45508C7.5983 2.45508 7.37521 2.46285 6.67705 2.49462C5.98026 2.52653 5.50463 2.63685 5.08846 2.7987C4.65798 2.96588 4.29281 3.18951 3.929 3.55345C3.56492 3.91726 3.34129 4.28243 3.17357 4.71278C3.0113 5.12909 2.90085 5.60485 2.86949 6.30137C2.83826 6.99953 2.83008 7.22275 2.83008 9.00033C2.83008 10.7779 2.83799 11.0003 2.86962 11.6985C2.90167 12.3953 3.01198 12.8709 3.1737 13.2871C3.34102 13.7176 3.56465 14.0827 3.92859 14.4465C4.29226 14.8106 4.65743 15.0348 5.08765 15.202C5.50409 15.3638 5.97985 15.4741 6.67651 15.506C7.37467 15.5378 7.59762 15.5456 9.37506 15.5456C11.1528 15.5456 11.3752 15.5378 12.0733 15.506C12.7701 15.4741 13.2463 15.3638 13.6627 15.202C14.0931 15.0348 14.4577 14.8106 14.8214 14.4465C15.1855 14.0827 15.4091 13.7176 15.5768 13.2872C15.7377 12.8709 15.8482 12.3951 15.8809 11.6986C15.9123 11.0005 15.9205 10.7779 15.9205 9.00033C15.9205 7.22275 15.9123 6.99967 15.8809 6.30151C15.8482 5.60471 15.7377 5.12909 15.5768 4.71292C15.4091 4.28243 15.1855 3.91726 14.8214 3.55345C14.4573 3.18937 14.0932 2.96574 13.6623 2.7987C13.2451 2.63685 12.7692 2.52653 12.0724 2.49462C11.3742 2.46285 11.152 2.45508 9.37383 2.45508H9.37588ZM8.78872 3.63459C8.96298 3.63432 9.15743 3.63459 9.37588 3.63459C11.1235 3.63459 11.3306 3.64086 12.0207 3.67222C12.6589 3.7014 13.0052 3.80804 13.2359 3.89763C13.5414 4.01626 13.7592 4.15807 13.9881 4.38716C14.2172 4.61624 14.359 4.83441 14.4779 5.13986C14.5675 5.37031 14.6743 5.71666 14.7033 6.35482C14.7347 7.0448 14.7415 7.25207 14.7415 8.99883C14.7415 10.7456 14.7347 10.9529 14.7033 11.6428C14.6741 12.281 14.5675 12.6274 14.4779 12.8578C14.3593 13.1633 14.2172 13.3807 13.9881 13.6097C13.759 13.8388 13.5415 13.9806 13.2359 14.0992C13.0055 14.1892 12.6589 14.2956 12.0207 14.3248C11.3307 14.3561 11.1235 14.3629 9.37588 14.3629C7.62816 14.3629 7.42103 14.3561 6.73105 14.3248C6.09289 14.2953 5.74654 14.1887 5.51568 14.0991C5.21023 13.9805 4.99206 13.8386 4.76297 13.6096C4.53389 13.3805 4.39208 13.1628 4.27317 12.8573C4.18358 12.6268 4.07681 12.2805 4.04777 11.6423C4.01641 10.9523 4.01013 10.7451 4.01013 8.9972C4.01013 7.24934 4.01641 7.04317 4.04777 6.35319C4.07695 5.71502 4.18358 5.36867 4.27317 5.13795C4.3918 4.83251 4.53389 4.61433 4.76297 4.38525C4.99206 4.15616 5.21023 4.01435 5.51568 3.89544C5.7464 3.80545 6.09289 3.69909 6.73105 3.66977C7.33485 3.6425 7.56884 3.63432 8.78872 3.63295V3.63459ZM12.8697 4.72137C12.4361 4.72137 12.0843 5.07277 12.0843 5.50653C12.0843 5.94015 12.4361 6.29196 12.8697 6.29196C13.3033 6.29196 13.6551 5.94015 13.6551 5.50653C13.6551 5.07291 13.3033 4.7211 12.8697 4.7211V4.72137ZM9.37588 5.63907C7.51962 5.63907 6.01462 7.14407 6.01462 9.00033C6.01462 10.8566 7.51962 12.3609 9.37588 12.3609C11.2321 12.3609 12.7366 10.8566 12.7366 9.00033C12.7366 7.14407 11.2321 5.63907 9.37588 5.63907ZM9.37588 6.81858C10.5808 6.81858 11.5576 7.79533 11.5576 9.00033C11.5576 10.2052 10.5808 11.1821 9.37588 11.1821C8.17087 11.1821 7.19413 10.2052 7.19413 9.00033C7.19413 7.79533 8.17087 6.81858 9.37588 6.81858Z" fill="white"/>
</g>
<defs>
<radialGradient id="paint0_radial_1071_31071" cx="0" cy="0" r="1" gradientUnits="userSpaceOnUse" gradientTransform="translate(5.22129 19.2272) rotate(-90) scale(17.567 16.3432)">
<stop stop-color="#FFDD55"/>
<stop offset="0.1" stop-color="#FFDD55"/>
<stop offset="0.5" stop-color="#FF543E"/>
<stop offset="1" stop-color="#C837AB"/>
</radialGradient>
<radialGradient id="paint1_radial_1071_31071" cx="0" cy="0" r="1" gradientUnits="userSpaceOnUse" gradientTransform="translate(-2.45816 1.41361) rotate(78.6776) scale(7.85261 32.3769)">
<stop stop-color="#3771C8"/>
<stop offset="0.128" stop-color="#3771C8"/>
<stop offset="1" stop-color="#6600FF" stop-opacity="0"/>
</radialGradient>
<clipPath id="clip0_1071_31071">
<rect width="18" height="17.9995" fill="white" transform="translate(0.375)"/>
</clipPath>
</defs>
</svg>
