<svg width="41" height="40" viewBox="0 0 41 40" fill="none" xmlns="http://www.w3.org/2000/svg">
<path fill-rule="evenodd" clip-rule="evenodd" d="M21.0404 32.6269C20.6499 33.0174 20.0168 33.0174 19.6262 32.6269L18.6898 31.6905C18.2995 31.3002 18.2992 30.6675 18.6892 30.2769L27.2833 21.6673L8 21.6673C7.44772 21.6673 7 21.2196 7 20.6673L7 19.334C7 18.7817 7.44772 18.334 8 18.334L27.2833 18.334L18.6892 9.72443C18.2992 9.3338 18.2995 8.70112 18.6898 8.31084L19.6262 7.37443C20.0168 6.9839 20.6499 6.9839 21.0404 7.37443L33.6667 20.0007L21.0404 32.6269Z" fill="#C2D1D9"/>
<mask id="mask0_1071_25611" style="mask-type:luminance" maskUnits="userSpaceOnUse" x="7" y="7" width="27" height="26">
<path fill-rule="evenodd" clip-rule="evenodd" d="M21.0404 32.6269C20.6499 33.0174 20.0168 33.0174 19.6262 32.6269L18.6898 31.6905C18.2995 31.3002 18.2992 30.6675 18.6892 30.2769L27.2833 21.6673L8 21.6673C7.44772 21.6673 7 21.2196 7 20.6673L7 19.334C7 18.7817 7.44772 18.334 8 18.334L27.2833 18.334L18.6892 9.72443C18.2992 9.3338 18.2995 8.70112 18.6898 8.31084L19.6262 7.37443C20.0168 6.9839 20.6499 6.9839 21.0404 7.37443L33.6667 20.0007L21.0404 32.6269Z" fill="white"/>
</mask>
<g mask="url(#mask0_1071_25611)">
<rect x="40.333" y="40" width="40" height="40" transform="rotate(-180 40.333 40)" fill="#630C13"/>
</g>
</svg>
