<svg width="25" height="25" viewBox="0 0 25 25" fill="none" xmlns="http://www.w3.org/2000/svg">
<path d="M19.375 3.5C19.9054 3.5 20.4141 3.71071 20.7892 4.08579C21.1643 4.46086 21.375 4.96957 21.375 5.5V19.5C21.375 20.0304 21.1643 20.5391 20.7892 20.9142C20.4141 21.2893 19.9054 21.5 19.375 21.5H5.375C4.84457 21.5 4.33586 21.2893 3.96079 20.9142C3.58571 20.5391 3.375 20.0304 3.375 19.5V5.5C3.375 4.96957 3.58571 4.46086 3.96079 4.08579C4.33586 3.71071 4.84457 3.5 5.375 3.5H19.375ZM18.875 19V13.7C18.875 12.8354 18.5315 12.0062 17.9202 11.3948C17.3088 10.7835 16.4796 10.44 15.615 10.44C14.765 10.44 13.775 10.96 13.295 11.74V10.63H10.505V19H13.295V14.07C13.295 13.3 13.915 12.67 14.685 12.67C15.0563 12.67 15.4124 12.8175 15.6749 13.0801C15.9375 13.3426 16.085 13.6987 16.085 14.07V19H18.875ZM7.255 9.06C7.70056 9.06 8.12788 8.883 8.44294 8.56794C8.758 8.25288 8.935 7.82556 8.935 7.38C8.935 6.45 8.185 5.69 7.255 5.69C6.80678 5.69 6.37693 5.86805 6.05999 6.18499C5.74305 6.50193 5.565 6.93178 5.565 7.38C5.565 8.31 6.325 9.06 7.255 9.06ZM8.645 19V10.63H5.875V19H8.645Z" fill="#0A66C2"/>
</svg>
