<svg width="500" height="500" viewBox="0 0 500 500" fill="none" xmlns="http://www.w3.org/2000/svg">
<path d="M458.24 276.199H309.55V57.9395H458.24V276.199ZM313.55 272.199H454.24V61.9395H313.55V272.199Z" fill="#EBEBEB"/>
<path d="M385.84 62.9902H381.84V274.2H385.84V62.9902Z" fill="#EBEBEB"/>
<path d="M461.87 66.0293H305.92V71.5993H461.87V66.0293Z" fill="#EBEBEB"/>
<path d="M461.87 72.291H305.92V77.861H461.87V72.291Z" fill="#EBEBEB"/>
<path d="M461.87 78.5605H305.92V84.1305H461.87V78.5605Z" fill="#EBEBEB"/>
<path d="M461.87 84.8301H305.92V90.4001H461.87V84.8301Z" fill="#EBEBEB"/>
<path d="M461.87 91.0898H305.92V96.6599H461.87V91.0898Z" fill="#EBEBEB"/>
<path d="M461.87 97.3594H305.92V102.929H461.87V97.3594Z" fill="#EBEBEB"/>
<path d="M461.87 103.631H305.92V109.201H461.87V103.631Z" fill="#EBEBEB"/>
<path d="M461.87 109.891H305.92V115.461H461.87V109.891Z" fill="#EBEBEB"/>
<path d="M461.87 116.16H305.92V121.73H461.87V116.16Z" fill="#EBEBEB"/>
<path d="M449.99 64.9004H448.99V193.29H449.99V64.9004Z" fill="#263238"/>
<path d="M451.26 197.94H447.71L448.61 192.84H450.38L451.26 197.94Z" fill="#263238"/>
<path d="M453.59 64.9004H452.59V240.63H453.59V64.9004Z" fill="#263238"/>
<path d="M454.87 244.379H451.32L452.21 239.279H453.98L454.87 244.379Z" fill="#263238"/>
<path d="M468.07 57.1602H299.71V68.8102H468.07V57.1602Z" fill="#DBDBDB"/>
<path d="M66 171.551C66 170.711 66.11 168.481 66.11 167.551C66.11 163.481 64.66 161.651 60.87 161.551C60.505 161.573 60.1392 161.521 59.7953 161.396C59.4513 161.272 59.1365 161.079 58.8701 160.828C58.6037 160.577 58.3914 160.275 58.2463 159.939C58.1012 159.604 58.0264 159.242 58.0264 158.876C58.0264 158.51 58.1012 158.148 58.2463 157.813C58.3914 157.477 58.6037 157.175 58.8701 156.924C59.1365 156.673 59.4513 156.48 59.7953 156.356C60.1392 156.231 60.505 156.179 60.87 156.201C64.66 156.041 66.11 154.251 66.11 150.131C66.11 149.131 66 146.951 66 146.131C66 140.731 68.29 137.271 76.93 135.381C77.5228 135.228 78.1515 135.307 78.6885 135.6C79.2255 135.894 79.6306 136.381 79.8215 136.963C80.0124 137.545 79.9748 138.177 79.7164 138.732C79.4579 139.287 78.998 139.723 78.43 139.951C73.02 141.621 72.24 143.351 72.24 147.141C72.24 148.251 72.36 150.091 72.36 151.261C72.36 155.611 70.24 157.731 66.56 158.901C70.29 160.121 72.36 162.191 72.36 166.531C72.36 167.711 72.24 169.531 72.24 170.661C72.24 174.451 73.02 176.181 78.43 177.851C78.998 178.079 79.4579 178.515 79.7164 179.07C79.9748 179.625 80.0124 180.257 79.8215 180.839C79.6306 181.421 79.2255 181.908 78.6885 182.202C78.1515 182.495 77.5228 182.574 76.93 182.421C68.28 180.471 66 177.001 66 171.551Z" fill="#EBEBEB"/>
<path d="M98.6496 146.07C98.6496 146.91 98.5396 149.14 98.5396 150.07C98.5396 154.19 100.05 155.98 103.84 156.14C104.205 156.118 104.57 156.17 104.914 156.295C105.258 156.419 105.573 156.612 105.839 156.863C106.106 157.114 106.318 157.416 106.463 157.752C106.608 158.087 106.683 158.449 106.683 158.815C106.683 159.181 106.608 159.543 106.463 159.878C106.318 160.214 106.106 160.516 105.839 160.767C105.573 161.018 105.258 161.211 104.914 161.335C104.57 161.46 104.205 161.512 103.84 161.49C100.05 161.61 98.5396 163.49 98.5396 167.49C98.5396 168.44 98.6496 170.67 98.6496 171.49C98.6496 176.95 96.3696 180.41 87.7296 182.3C87.1335 182.458 86.4995 182.381 85.9589 182.084C85.4184 181.787 85.0128 181.294 84.8263 180.706C84.6398 180.118 84.6867 179.481 84.9573 178.927C85.2279 178.373 85.7014 177.944 86.2796 177.73C91.6296 176.06 92.4096 174.33 92.4096 170.54C92.4096 169.42 92.2996 167.59 92.2996 166.41C92.2996 162.07 94.4196 159.95 98.0996 158.78C94.3596 157.55 92.2996 155.49 92.2996 151.14C92.2996 149.97 92.4096 148.14 92.4096 147.02C92.4096 143.23 91.6296 141.5 86.2796 139.83C85.7014 139.616 85.2279 139.187 84.9573 138.633C84.6867 138.079 84.6398 137.442 84.8263 136.854C85.0128 136.266 85.4184 135.773 85.9589 135.476C86.4995 135.179 87.1335 135.102 87.7296 135.26C96.3696 137.21 98.6496 140.67 98.6496 146.07Z" fill="#EBEBEB"/>
<path d="M213.59 93.7499C214.051 94.2044 214.367 94.7856 214.498 95.42C214.629 96.0543 214.568 96.7132 214.324 97.313C214.08 97.9129 213.663 98.4267 213.126 98.7894C212.59 99.152 211.957 99.3471 211.31 99.3499C210.423 99.3575 209.568 99.0246 208.92 98.4199L194.34 83.6299C194.18 83.6299 194.13 83.4699 194.08 83.3199C194.03 83.2777 193.977 83.2408 193.92 83.2099C193.848 83.0822 193.797 82.9438 193.77 82.7999C193.729 82.7795 193.693 82.7499 193.665 82.7135C193.638 82.6771 193.618 82.6348 193.61 82.5899C193.56 82.4899 193.56 82.3299 193.51 82.2799C193.46 82.2299 193.41 82.0699 193.41 82.0199V81.66C193.41 81.55 193.35 81.4999 193.35 81.3499C193.35 81.1999 193.41 81.1399 193.41 81.0899V80.7199C193.41 80.6199 193.51 80.5699 193.51 80.5199C193.51 80.4699 193.56 80.2599 193.61 80.0999C193.66 79.9399 193.67 80.0999 193.67 79.9999C193.74 79.8369 193.824 79.6797 193.92 79.5299C193.92 79.5159 193.922 79.5021 193.928 79.4892C193.934 79.4764 193.942 79.4649 193.952 79.4555C193.963 79.446 193.975 79.4389 193.988 79.4345C194.002 79.4301 194.016 79.4285 194.03 79.4299C194.099 79.2815 194.206 79.1538 194.34 79.0599L208.92 64.2799C209.548 63.6791 210.385 63.3438 211.255 63.3438C212.124 63.3438 212.961 63.6791 213.59 64.2799C213.896 64.5864 214.14 64.9504 214.306 65.3511C214.472 65.7517 214.558 66.1812 214.558 66.6149C214.558 67.0487 214.472 67.4782 214.306 67.8788C214.14 68.2795 213.896 68.6435 213.59 68.9499L201.29 81.3499L213.59 93.7499Z" fill="#EBEBEB"/>
<path d="M226.82 95.4092L239.53 65.1592C239.834 64.4573 240.403 63.9043 241.113 63.6213C241.824 63.3382 242.617 63.3483 243.32 63.6492C244.001 63.9476 244.535 64.5034 244.807 65.1949C245.079 65.8864 245.065 66.6574 244.77 67.3392L232.06 97.6392C231.833 98.1511 231.461 98.5854 230.99 98.8892C230.519 99.1929 229.97 99.3528 229.41 99.3492C229.066 99.3524 228.724 99.2808 228.41 99.1392C228.055 99.0063 227.731 98.8026 227.457 98.5406C227.183 98.2786 226.965 97.9636 226.816 97.6149C226.667 97.2661 226.591 96.8907 226.592 96.5116C226.593 96.1325 226.67 95.7574 226.82 95.4092Z" fill="#EBEBEB"/>
<path d="M269.88 83.2107C269.88 83.2107 269.88 83.2707 269.83 83.2707C269.717 83.3981 269.597 83.5184 269.47 83.6307L254.89 98.4207C254.259 99.0214 253.421 99.3547 252.55 99.3507C251.681 99.3563 250.845 99.0226 250.22 98.4207C249.91 98.1156 249.665 97.7521 249.497 97.3512C249.329 96.9504 249.243 96.5202 249.243 96.0857C249.243 95.6512 249.329 95.2211 249.497 94.8202C249.665 94.4194 249.91 94.0559 250.22 93.7507L262.51 81.3507L250.22 69.0007C249.91 68.6956 249.665 68.3321 249.497 67.9312C249.329 67.5304 249.243 67.1002 249.243 66.6657C249.243 66.2312 249.329 65.8011 249.497 65.4002C249.665 64.9994 249.91 64.6359 250.22 64.3307C250.849 63.7298 251.685 63.3945 252.555 63.3945C253.424 63.3945 254.261 63.7298 254.89 64.3307L269.47 79.1107C269.6 79.2238 269.72 79.3476 269.83 79.4807C269.88 79.4807 269.88 79.5807 269.88 79.5807C269.975 79.7325 270.062 79.8894 270.14 80.0507C270.14 80.0507 270.19 80.0507 270.19 80.1507C270.223 80.3134 270.277 80.4713 270.35 80.6207C270.35 80.6707 270.35 80.6707 270.35 80.7707V81.1407C270.35 81.1407 270.4 81.3407 270.4 81.4007C270.4 81.4607 270.35 81.6007 270.35 81.6607V82.0007C270.35 82.0007 270.35 82.0007 270.35 82.1007C270.286 82.2537 270.232 82.4107 270.19 82.5707C270.19 82.5707 270.14 82.5707 270.14 82.7307C270.14 82.8907 270 83.0007 269.88 83.2107Z" fill="#EBEBEB"/>
<path d="M250 442.729C361.307 442.729 451.54 435.539 451.54 426.669C451.54 417.8 361.307 410.609 250 410.609C138.692 410.609 48.46 417.8 48.46 426.669C48.46 435.539 138.692 442.729 250 442.729Z" fill="#EBEBEB"/>
<path d="M440.04 407.23H318.92L343.07 266.75H433.64L440.04 407.23Z" fill="#DBDBDB"/>
<path d="M440.04 407.23H429.42L423.46 266.75H433.64L440.04 407.23Z" fill="#A6A6A6"/>
<path d="M40.7402 407.23L93.0602 406.99L145.37 406.9L250 406.73L354.63 406.9L406.94 406.99L459.26 407.23L406.94 407.48L354.63 407.56L250 407.73L145.37 407.56L93.0602 407.48L40.7402 407.23Z" fill="#263238"/>
<path d="M154.44 57.1602H55.0596V120.56H154.44V57.1602Z" fill="white"/>
<path d="M155.06 121.179H54.4297V56.5293H155.06V121.179ZM55.6797 119.929H153.81V57.7893H55.6797V119.929Z" fill="#EBEBEB"/>
<path d="M154.44 57.1602H55.0596V69.1502H154.44V57.1602Z" fill="#8E0B16"/>
<path d="M155.06 69.7793H54.4297V56.5293H155.06V69.7793ZM55.6797 68.5193H153.81V57.7893H55.6797V68.5193Z" fill="#EBEBEB"/>
<path d="M66.3096 63.2402C66.3096 63.8336 66.1336 64.4136 65.804 64.9069C65.4743 65.4003 65.0058 65.7848 64.4576 66.0119C63.9094 66.2389 63.3062 66.2983 62.7243 66.1826C62.1424 66.0668 61.6078 65.7811 61.1882 65.3616C60.7687 64.942 60.483 64.4074 60.3672 63.8255C60.2515 63.2436 60.3109 62.6404 60.5379 62.0922C60.765 61.544 61.1495 61.0755 61.6429 60.7458C62.1362 60.4162 62.7162 60.2402 63.3096 60.2402C64.1052 60.2402 64.8683 60.5563 65.4309 61.1189C65.9935 61.6815 66.3096 62.4446 66.3096 63.2402Z" fill="#A6A6A6"/>
<path d="M78.6299 63.2402C78.6299 63.8336 78.4539 64.4136 78.1243 64.9069C77.7947 65.4003 77.3261 65.7848 76.7779 66.0119C76.2298 66.2389 75.6266 66.2983 75.0446 66.1826C74.4627 66.0668 73.9281 65.7811 73.5086 65.3616C73.089 64.942 72.8033 64.4074 72.6875 63.8255C72.5718 63.2436 72.6312 62.6404 72.8582 62.0922C73.0853 61.544 73.4698 61.0755 73.9632 60.7458C74.4565 60.4162 75.0365 60.2402 75.6299 60.2402C76.4255 60.2402 77.1886 60.5563 77.7512 61.1189C78.3138 61.6815 78.6299 62.4446 78.6299 63.2402Z" fill="#EBEBEB"/>
<path d="M91 63.2402C91 63.8336 90.824 64.4136 90.4944 64.9069C90.1648 65.4003 89.6962 65.7848 89.148 66.0119C88.5999 66.2389 87.9967 66.2983 87.4147 66.1826C86.8328 66.0668 86.2982 65.7811 85.8787 65.3616C85.4591 64.942 85.1734 64.4074 85.0576 63.8255C84.9419 63.2436 85.0013 62.6404 85.2284 62.0922C85.4554 61.544 85.8399 61.0755 86.3333 60.7458C86.8266 60.4162 87.4067 60.2402 88 60.2402C88.7956 60.2402 89.5587 60.5563 90.1213 61.1189C90.6839 61.6815 91 62.4446 91 63.2402Z" fill="white"/>
<path d="M72.21 92.8498C72.2779 89.6453 73.5982 86.5948 75.8879 84.3518C78.1776 82.1088 81.2547 80.8517 84.46 80.8498C87.2526 80.833 89.9704 81.7519 92.18 83.4598C92.504 83.7922 92.6966 84.2308 92.7222 84.6943C92.7478 85.1578 92.6045 85.6149 92.319 85.9809C92.0335 86.3469 91.6251 86.5971 91.1693 86.6852C90.7135 86.7732 90.2413 86.6932 89.84 86.4598C88.3196 85.2314 86.4141 84.5798 84.46 84.6198C82.2297 84.6389 80.0881 85.4955 78.46 87.0198C77.6869 87.7822 77.0717 88.6896 76.6496 89.6899C76.2274 90.6903 76.0067 91.7641 76 92.8498C75.9979 93.9322 76.2127 95.0039 76.6318 96.0018C77.0509 96.9997 77.6657 97.9035 78.44 98.6598C80.0644 100.191 82.2076 101.052 84.44 101.07C86.3925 101.1 88.2946 100.449 89.82 99.2298C90.231 98.9476 90.7327 98.829 91.2267 98.8975C91.7206 98.9659 92.1711 99.2164 92.49 99.5998C92.7768 100.006 92.902 100.505 92.841 100.999C92.78 101.492 92.5372 101.946 92.16 102.27C89.9504 103.978 87.2326 104.897 84.44 104.88C81.2292 104.885 78.1454 103.626 75.8563 101.375C73.5673 99.1229 72.2573 96.0603 72.21 92.8498Z" fill="#EBEBEB"/>
<path d="M98.2494 99.0688C98.5421 98.7148 98.9629 98.491 99.42 98.446C99.8771 98.4011 100.333 98.5387 100.689 98.8288C102.482 100.353 104.721 101.255 107.069 101.399C108.553 101.428 110.009 100.998 111.239 100.169C111.658 99.915 112.008 99.5627 112.259 99.1426C112.51 98.7225 112.654 98.2475 112.679 97.7588C112.686 97.3805 112.582 97.0086 112.379 96.6888C112.122 96.2871 111.781 95.9459 111.379 95.6888C109.964 94.8932 108.415 94.3613 106.809 94.1188H106.739C105.257 93.8677 103.812 93.431 102.439 92.8188C101.173 92.2708 100.093 91.3677 99.3294 90.2188C98.8215 89.3955 98.5547 88.4462 98.5594 87.4788C98.5944 86.5138 98.854 85.5702 99.3175 84.7231C99.781 83.876 100.436 83.1486 101.229 82.5988C102.922 81.4238 104.939 80.8052 106.999 80.8288C109.642 80.9604 112.182 81.8953 114.279 83.5088C114.654 83.7627 114.913 84.1538 115.001 84.5974C115.089 85.0409 114.998 85.5013 114.749 85.8788C114.629 86.0696 114.471 86.2343 114.286 86.3632C114.1 86.492 113.891 86.5824 113.67 86.629C113.449 86.6757 113.221 86.6775 112.999 86.6345C112.778 86.5915 112.567 86.5046 112.379 86.3788C110.669 85.2388 109.039 84.2388 106.999 84.2388C105.666 84.2191 104.359 84.6139 103.259 85.3688C102.896 85.5945 102.593 85.9038 102.373 86.2708C102.154 86.6379 102.026 87.0521 101.999 87.4788C101.98 87.8062 102.064 88.1315 102.239 88.4088C102.475 88.7588 102.782 89.0553 103.139 89.2788C104.42 90.0365 105.837 90.5359 107.309 90.7488H107.379C108.967 91.026 110.515 91.4962 111.989 92.1488C113.341 92.741 114.495 93.7051 115.319 94.9288C115.85 95.7771 116.131 96.758 116.129 97.7588C116.097 98.7892 115.818 99.7969 115.317 100.698C114.816 101.599 114.107 102.367 113.249 102.939C111.446 104.209 109.285 104.875 107.079 104.839C103.94 104.695 100.935 103.521 98.5294 101.499C98.1768 101.209 97.9505 100.794 97.8983 100.34C97.8461 99.887 97.972 99.4311 98.2494 99.0688Z" fill="#EBEBEB"/>
<path d="M120.19 99.0689C120.483 98.715 120.903 98.4911 121.361 98.4461C121.818 98.4012 122.274 98.5388 122.63 98.8289C124.417 100.355 126.654 101.258 129 101.399C130.487 101.428 131.946 100.998 133.18 100.169C133.596 99.9139 133.944 99.5611 134.194 99.1411C134.443 98.7211 134.586 98.2467 134.61 97.7589C134.616 97.3806 134.512 97.0087 134.31 96.6889C134.054 96.2862 133.713 95.9448 133.31 95.6889C131.893 94.895 130.345 94.3631 128.74 94.1189H128.67C127.185 93.8664 125.737 93.4297 124.36 92.8189C123.097 92.2707 122.02 91.3675 121.26 90.2189C120.752 89.3956 120.485 88.4463 120.49 87.4789C120.523 86.5134 120.781 85.569 121.245 84.7215C121.709 83.874 122.364 83.147 123.16 82.5989C124.856 81.4219 126.876 80.8032 128.94 80.8289C131.582 80.9643 134.121 81.8988 136.22 83.5089C136.593 83.7644 136.85 84.1562 136.936 84.5996C137.022 85.0431 136.93 85.5026 136.68 85.8789C136.559 86.0697 136.402 86.2344 136.216 86.3633C136.031 86.4921 135.821 86.5826 135.601 86.6292C135.38 86.6758 135.152 86.6776 134.93 86.6346C134.708 86.5917 134.497 86.5047 134.31 86.3789C132.61 85.2389 130.97 84.2389 128.94 84.2389C127.606 84.2172 126.299 84.6122 125.2 85.3689C124.835 85.5935 124.529 85.9022 124.308 86.2694C124.087 86.6365 123.958 87.0513 123.93 87.4789C123.913 87.8048 123.993 88.1285 124.16 88.4089C124.401 88.7543 124.707 89.0498 125.06 89.2789C126.344 90.0364 127.764 90.5357 129.24 90.7489H129.3C130.889 91.0232 132.437 91.4935 133.91 92.1489C135.264 92.7409 136.422 93.7049 137.25 94.9289C137.773 95.78 138.05 96.7597 138.05 97.7589C138.019 98.7886 137.743 99.796 137.244 100.697C136.744 101.598 136.037 102.367 135.18 102.939C133.372 104.208 131.209 104.873 129 104.839C125.861 104.69 122.858 103.517 120.45 101.499C120.103 101.205 119.882 100.788 119.833 100.336C119.785 99.8835 119.913 99.4297 120.19 99.0689Z" fill="#EBEBEB"/>
<path d="M318.579 238.539H219.199V301.939H318.579V238.539Z" fill="white"/>
<path d="M319.209 302.57H218.569V237.91H319.209V302.57ZM219.829 301.31H317.999V239.17H219.829V301.31Z" fill="#EBEBEB"/>
<path d="M318.579 238.539H219.199V250.529H318.579V238.539Z" fill="#8E0B16"/>
<path d="M319.209 251.16H218.569V237.91H319.209V251.16ZM219.829 249.9H317.999V239.17H219.829V249.9Z" fill="#EBEBEB"/>
<path d="M230.46 244.619C230.46 245.212 230.284 245.793 229.954 246.286C229.625 246.779 229.156 247.164 228.608 247.391C228.06 247.618 227.457 247.677 226.875 247.562C226.293 247.446 225.758 247.16 225.339 246.74C224.919 246.321 224.633 245.786 224.518 245.204C224.402 244.622 224.461 244.019 224.688 243.471C224.915 242.923 225.3 242.454 225.793 242.125C226.287 241.795 226.867 241.619 227.46 241.619C228.256 241.619 229.019 241.935 229.581 242.498C230.144 243.06 230.46 243.823 230.46 244.619Z" fill="#A6A6A6"/>
<path d="M242.779 244.619C242.779 245.212 242.603 245.793 242.274 246.286C241.944 246.779 241.476 247.164 240.927 247.391C240.379 247.618 239.776 247.677 239.194 247.562C238.612 247.446 238.078 247.16 237.658 246.74C237.238 246.321 236.953 245.786 236.837 245.204C236.721 244.622 236.781 244.019 237.008 243.471C237.235 242.923 237.619 242.454 238.113 242.125C238.606 241.795 239.186 241.619 239.779 241.619C240.575 241.619 241.338 241.935 241.901 242.498C242.463 243.06 242.779 243.823 242.779 244.619Z" fill="#EBEBEB"/>
<path d="M255.1 244.619C255.1 245.212 254.924 245.793 254.594 246.286C254.264 246.779 253.796 247.164 253.248 247.391C252.699 247.618 252.096 247.677 251.514 247.562C250.932 247.446 250.398 247.16 249.978 246.74C249.559 246.321 249.273 245.786 249.157 245.204C249.041 244.622 249.101 244.019 249.328 243.471C249.555 242.923 249.94 242.454 250.433 242.125C250.926 241.795 251.506 241.619 252.1 241.619C252.895 241.619 253.658 241.935 254.221 242.498C254.784 243.06 255.1 243.823 255.1 244.619Z" fill="white"/>
<path d="M237.76 274.239C237.825 271.033 239.145 267.981 241.435 265.738C243.725 263.494 246.804 262.238 250.01 262.239C252.801 262.218 255.519 263.134 257.73 264.839C258.107 265.163 258.35 265.616 258.411 266.11C258.472 266.604 258.347 267.102 258.06 267.509C257.741 267.892 257.29 268.143 256.796 268.211C256.303 268.279 255.801 268.161 255.39 267.879C253.87 266.638 251.962 265.973 250 265.999C247.767 266.016 245.624 266.877 244 268.409C242.449 269.946 241.571 272.035 241.56 274.219C241.559 275.301 241.775 276.372 242.194 277.37C242.613 278.367 243.227 279.271 244 280.029C245.625 281.557 247.769 282.415 250 282.429C251.953 282.462 253.856 281.811 255.38 280.589C255.791 280.306 256.293 280.188 256.786 280.256C257.28 280.325 257.731 280.575 258.05 280.959C258.337 281.365 258.462 281.864 258.401 282.357C258.34 282.851 258.097 283.304 257.72 283.629C255.51 285.337 252.792 286.255 250 286.239C246.792 286.247 243.71 284.993 241.42 282.747C239.13 280.502 237.815 277.446 237.76 274.239Z" fill="#EBEBEB"/>
<path d="M269.78 276.34H265C264.748 276.358 264.494 276.325 264.255 276.241C264.017 276.157 263.798 276.025 263.612 275.853C263.427 275.681 263.279 275.472 263.178 275.24C263.077 275.008 263.024 274.758 263.024 274.505C263.024 274.252 263.077 274.001 263.178 273.769C263.279 273.537 263.427 273.329 263.612 273.156C263.798 272.984 264.017 272.852 264.255 272.768C264.494 272.685 264.748 272.651 265 272.67H269.74V268C269.74 267.496 269.94 267.012 270.296 266.656C270.653 266.3 271.136 266.1 271.64 266.1C272.144 266.1 272.627 266.3 272.983 266.656C273.34 267.012 273.54 267.496 273.54 268V272.64H278.29C278.753 272.674 279.186 272.882 279.503 273.222C279.819 273.563 279.994 274.01 279.994 274.475C279.994 274.939 279.819 275.386 279.503 275.727C279.186 276.067 278.753 276.275 278.29 276.31H273.54V281C273.54 281.504 273.34 281.987 272.983 282.343C272.627 282.699 272.144 282.9 271.64 282.9C271.136 282.9 270.653 282.699 270.296 282.343C269.94 281.987 269.74 281.504 269.74 281L269.78 276.34Z" fill="#EBEBEB"/>
<path d="M290.479 276.34H285.739C285.487 276.359 285.233 276.325 284.995 276.241C284.756 276.157 284.537 276.025 284.351 275.853C284.166 275.681 284.018 275.472 283.917 275.24C283.816 275.008 283.764 274.758 283.764 274.505C283.764 274.252 283.816 274.002 283.917 273.77C284.018 273.538 284.166 273.329 284.351 273.157C284.537 272.985 284.756 272.852 284.995 272.769C285.233 272.685 285.487 272.651 285.739 272.67H290.479V268C290.475 267.749 290.522 267.5 290.615 267.267C290.709 267.034 290.849 266.822 291.026 266.644C291.203 266.466 291.414 266.325 291.647 266.23C291.879 266.135 292.128 266.087 292.379 266.09C292.886 266.09 293.372 266.291 293.73 266.649C294.088 267.008 294.289 267.493 294.289 268V272.64H298.999C299.463 272.674 299.896 272.882 300.212 273.223C300.528 273.563 300.704 274.01 300.704 274.475C300.704 274.939 300.528 275.387 300.212 275.727C299.896 276.068 299.463 276.276 298.999 276.31H294.259V281C294.259 281.251 294.21 281.499 294.114 281.731C294.018 281.963 293.877 282.173 293.7 282.351C293.522 282.528 293.312 282.669 293.08 282.765C292.848 282.861 292.6 282.91 292.349 282.91C292.098 282.913 291.849 282.865 291.617 282.77C291.384 282.675 291.173 282.534 290.996 282.356C290.819 282.178 290.679 281.966 290.585 281.733C290.492 281.5 290.445 281.251 290.449 281L290.479 276.34Z" fill="#EBEBEB"/>
<path d="M272.229 116.729H106.489V252.839H272.229V116.729Z" fill="white"/>
<path d="M272.859 253.479H105.859V116.109H272.859V253.479ZM107.119 252.219H271.599V117.359H107.119V252.219Z" fill="#EBEBEB"/>
<path d="M272.229 116.729H106.489V128.719H272.229V116.729Z" fill="#8E0B16"/>
<path d="M272.859 129.349H105.859V116.109H272.859V129.349ZM107.119 128.089H271.599V117.359H107.119V128.089Z" fill="#EBEBEB"/>
<path d="M117.739 122.818C117.739 123.412 117.563 123.992 117.234 124.485C116.904 124.978 116.435 125.363 115.887 125.59C115.339 125.817 114.736 125.876 114.154 125.761C113.572 125.645 113.037 125.359 112.618 124.94C112.198 124.52 111.913 123.986 111.797 123.404C111.681 122.822 111.741 122.218 111.968 121.67C112.195 121.122 112.579 120.654 113.073 120.324C113.566 119.994 114.146 119.818 114.739 119.818C115.535 119.818 116.298 120.134 116.861 120.697C117.423 121.26 117.739 122.023 117.739 122.818Z" fill="#A6A6A6"/>
<path d="M130.06 122.818C130.06 123.412 129.884 123.992 129.554 124.485C129.224 124.978 128.756 125.363 128.208 125.59C127.659 125.817 127.056 125.876 126.474 125.761C125.892 125.645 125.358 125.359 124.938 124.94C124.519 124.52 124.233 123.986 124.117 123.404C124.001 122.822 124.061 122.218 124.288 121.67C124.515 121.122 124.9 120.654 125.393 120.324C125.886 119.994 126.466 119.818 127.06 119.818C127.855 119.818 128.618 120.134 129.181 120.697C129.744 121.26 130.06 122.023 130.06 122.818Z" fill="#EBEBEB"/>
<path d="M142.39 122.818C142.39 123.412 142.214 123.992 141.884 124.485C141.554 124.978 141.086 125.363 140.538 125.59C139.99 125.817 139.386 125.876 138.804 125.761C138.222 125.645 137.688 125.359 137.268 124.94C136.849 124.52 136.563 123.986 136.447 123.404C136.332 122.822 136.391 122.218 136.618 121.67C136.845 121.122 137.23 120.654 137.723 120.324C138.216 119.994 138.796 119.818 139.39 119.818C140.185 119.818 140.948 120.134 141.511 120.697C142.074 121.26 142.39 122.023 142.39 122.818Z" fill="white"/>
<path d="M125.76 152.568H119.35V154.908H125.76V152.568Z" fill="#EBEBEB"/>
<path d="M203.96 152.568H130.43V154.908H203.96V152.568Z" fill="#EBEBEB"/>
<path d="M220.069 152.568H207.899V154.908H220.069V152.568Z" fill="#8E0B16"/>
<path d="M247.919 183.898H235.739V186.238H247.919V183.898Z" fill="#EBEBEB"/>
<path d="M243.77 152.568H222.72V154.908H243.77V152.568Z" fill="#A6A6A6"/>
<path d="M132.17 158.84H125.76V161.18H132.17V158.84Z" fill="#EBEBEB"/>
<path d="M184.93 158.84H136.68V161.18H184.93V158.84Z" fill="#A6A6A6"/>
<path d="M232.85 183.898H204.6V186.238H232.85V183.898Z" fill="#A6A6A6"/>
<path d="M176.52 177.639H130.43V179.979H176.52V177.639Z" fill="#A6A6A6"/>
<path d="M169.01 165.1H136.68V167.44H169.01V165.1Z" fill="#8E0B16"/>
<path d="M228.37 171.369H216.04V173.709H228.37V171.369Z" fill="#A6A6A6"/>
<path d="M224.23 165.1H172.6V167.44H224.23V165.1Z" fill="#A6A6A6"/>
<path d="M192.06 183.898H130.43V186.238H192.06V183.898Z" fill="#8E0B16"/>
<path d="M254.759 158.84H221.359V161.18H254.759V158.84Z" fill="#8E0B16"/>
<path d="M218.71 158.84H187.96V161.18H218.71V158.84Z" fill="#EBEBEB"/>
<path d="M247.41 165.1H226.66V167.44H247.41V165.1Z" fill="#EBEBEB"/>
<path d="M132.17 165.1H125.76V167.44H132.17V165.1Z" fill="#EBEBEB"/>
<path d="M125.76 171.369H119.35V173.709H125.76V171.369Z" fill="#A6A6A6"/>
<path d="M168.31 171.369H130.43V173.709H168.31V171.369Z" fill="#EBEBEB"/>
<path d="M174.56 190.17H136.68V192.51H174.56V190.17Z" fill="#EBEBEB"/>
<path d="M236.119 196.439H207.319V198.779H236.119V196.439Z" fill="#8E0B16"/>
<path d="M215.63 190.17H177.64V192.51H215.63V190.17Z" fill="#8E0B16"/>
<path d="M204.009 196.439H170.939V198.779H204.009V196.439Z" fill="#EBEBEB"/>
<path d="M147.65 196.439H136.68V198.779H147.65V196.439Z" fill="#A6A6A6"/>
<path d="M220.07 177.639H179.13V179.979H220.07V177.639Z" fill="#EBEBEB"/>
<path d="M248.77 177.639H222.72V179.979H248.77V177.639Z" fill="#8E0B16"/>
<path d="M213.05 171.369H172.16V173.709H213.05V171.369Z" fill="#8E0B16"/>
<path d="M125.76 177.639H119.35V179.979H125.76V177.639Z" fill="#EBEBEB"/>
<path d="M125.76 183.898H119.35V186.238H125.76V183.898Z" fill="#EBEBEB"/>
<path d="M132.17 190.17H125.76V192.51H132.17V190.17Z" fill="#A6A6A6"/>
<path d="M132.17 196.439H125.76V198.779H132.17V196.439Z" fill="#EBEBEB"/>
<path d="M125.76 201.68H119.35V204.02H125.76V201.68Z" fill="#EBEBEB"/>
<path d="M203.96 201.68H130.43V204.02H203.96V201.68Z" fill="#EBEBEB"/>
<path d="M132.17 207.949H125.76V210.289H132.17V207.949Z" fill="#EBEBEB"/>
<path d="M184.93 207.949H136.68V210.289H184.93V207.949Z" fill="#A6A6A6"/>
<path d="M176.52 226.75H130.43V229.09H176.52V226.75Z" fill="#A6A6A6"/>
<path d="M169.01 214.219H136.68V216.559H169.01V214.219Z" fill="#8E0B16"/>
<path d="M224.23 214.219H172.6V216.559H224.23V214.219Z" fill="#A6A6A6"/>
<path d="M192.06 233.01H130.43V235.35H192.06V233.01Z" fill="#8E0B16"/>
<path d="M254.759 207.949H221.359V210.289H254.759V207.949Z" fill="#8E0B16"/>
<path d="M218.71 207.949H187.96V210.289H218.71V207.949Z" fill="#EBEBEB"/>
<path d="M247.41 214.219H226.66V216.559H247.41V214.219Z" fill="#EBEBEB"/>
<path d="M132.17 214.219H125.76V216.559H132.17V214.219Z" fill="#EBEBEB"/>
<path d="M125.76 220.479H119.35V222.819H125.76V220.479Z" fill="#A6A6A6"/>
<path d="M168.31 220.479H130.43V222.819H168.31V220.479Z" fill="#EBEBEB"/>
<path d="M220.07 226.75H179.13V229.09H220.07V226.75Z" fill="#EBEBEB"/>
<path d="M213.05 220.479H172.16V222.819H213.05V220.479Z" fill="#8E0B16"/>
<path d="M125.76 226.75H119.35V229.09H125.76V226.75Z" fill="#EBEBEB"/>
<path d="M123.31 146.41C123.414 146.515 123.473 146.657 123.473 146.805C123.473 146.953 123.414 147.095 123.31 147.2C123.204 147.302 123.062 147.359 122.915 147.359C122.768 147.359 122.626 147.302 122.52 147.2L120.05 144.69C120.045 144.674 120.045 144.656 120.05 144.64C120.046 144.617 120.046 144.593 120.05 144.57C120.046 144.55 120.046 144.53 120.05 144.51V144.45C120.05 144.45 120.05 144.45 120.05 144.39V144.33C120.046 144.307 120.046 144.283 120.05 144.26C120.05 144.26 120.05 144.19 120.05 144.18C120.062 144.154 120.083 144.132 120.11 144.12L122.58 141.61C122.686 141.508 122.828 141.451 122.975 141.451C123.122 141.451 123.264 141.508 123.37 141.61C123.474 141.715 123.533 141.857 123.533 142.005C123.533 142.153 123.474 142.295 123.37 142.4L121.29 144.5L123.31 146.41Z" fill="#8E0B16"/>
<path d="M125.549 146.689L127.709 141.559C127.734 141.5 127.769 141.447 127.814 141.402C127.859 141.358 127.912 141.322 127.97 141.298C128.029 141.274 128.092 141.262 128.155 141.262C128.218 141.262 128.281 141.274 128.339 141.299C128.398 141.323 128.451 141.358 128.495 141.403C128.54 141.448 128.576 141.501 128.6 141.56C128.624 141.618 128.636 141.681 128.636 141.744C128.636 141.808 128.624 141.87 128.599 141.929L126.439 147.069C126.4 147.155 126.337 147.229 126.257 147.281C126.177 147.332 126.084 147.359 125.989 147.359C125.933 147.373 125.875 147.373 125.819 147.359C125.754 147.338 125.693 147.302 125.643 147.255C125.593 147.208 125.553 147.151 125.527 147.087C125.501 147.023 125.49 146.954 125.494 146.885C125.498 146.817 125.517 146.749 125.549 146.689Z" fill="#8E0B16"/>
<path d="M132.849 144.619C132.835 144.644 132.814 144.665 132.789 144.679L130.319 147.189C130.21 147.289 130.068 147.346 129.919 147.349C129.774 147.348 129.634 147.29 129.529 147.189C129.425 147.084 129.366 146.942 129.366 146.794C129.366 146.646 129.425 146.504 129.529 146.399L131.609 144.289L129.529 142.189C129.425 142.084 129.366 141.942 129.366 141.794C129.366 141.646 129.425 141.504 129.529 141.399C129.635 141.297 129.777 141.24 129.924 141.24C130.072 141.24 130.213 141.297 130.319 141.399L132.789 143.909C132.816 143.921 132.837 143.943 132.849 143.969C132.869 143.994 132.886 144.02 132.899 144.049C132.895 144.076 132.895 144.103 132.899 144.129V144.189V144.309C132.897 144.336 132.897 144.363 132.899 144.389L132.849 144.619Z" fill="#8E0B16"/>
<path d="M291.13 97.6484H223.43V122.718H291.13V97.6484Z" fill="#455A64"/>
<path d="M233.199 115.38V104.26C233.199 103.994 233.305 103.74 233.492 103.553C233.68 103.365 233.934 103.26 234.199 103.26C234.335 103.251 234.472 103.271 234.6 103.318C234.729 103.364 234.846 103.437 234.945 103.53C235.045 103.624 235.124 103.737 235.178 103.863C235.232 103.988 235.259 104.123 235.259 104.26V108.78H240.139V104.26C240.139 103.994 240.245 103.74 240.432 103.553C240.62 103.365 240.874 103.26 241.139 103.26C241.276 103.251 241.412 103.271 241.54 103.318C241.669 103.364 241.786 103.437 241.885 103.53C241.985 103.624 242.064 103.737 242.118 103.863C242.172 103.988 242.199 104.123 242.199 104.26V115.38C242.199 115.516 242.172 115.651 242.118 115.777C242.064 115.902 241.985 116.015 241.885 116.109C241.786 116.202 241.669 116.275 241.54 116.321C241.412 116.368 241.276 116.388 241.139 116.38C240.874 116.38 240.62 116.274 240.432 116.087C240.245 115.899 240.139 115.645 240.139 115.38V110.86H235.259V115.38C235.259 115.516 235.232 115.651 235.178 115.777C235.124 115.902 235.045 116.015 234.945 116.109C234.846 116.202 234.729 116.275 234.6 116.321C234.472 116.368 234.335 116.388 234.199 116.38C233.934 116.38 233.68 116.274 233.492 116.087C233.305 115.899 233.199 115.645 233.199 115.38Z" fill="white"/>
<path d="M254.62 105.32H251.62V115.38C251.62 115.656 251.51 115.92 251.315 116.115C251.12 116.31 250.856 116.42 250.58 116.42C250.304 116.42 250.04 116.31 249.844 116.115C249.649 115.92 249.54 115.656 249.54 115.38V105.32H246.54C246.403 105.32 246.268 105.292 246.143 105.238C246.017 105.184 245.904 105.105 245.811 105.006C245.717 104.907 245.645 104.789 245.598 104.661C245.552 104.533 245.532 104.396 245.54 104.26C245.54 103.995 245.645 103.74 245.833 103.553C246.02 103.365 246.275 103.26 246.54 103.26H254.54C254.805 103.26 255.059 103.365 255.247 103.553C255.435 103.74 255.54 103.995 255.54 104.26C255.542 104.518 255.45 104.769 255.28 104.964C255.111 105.159 254.876 105.286 254.62 105.32Z" fill="white"/>
<path d="M270.11 104.26V115.38C270.092 115.65 269.973 115.903 269.776 116.088C269.58 116.274 269.32 116.378 269.05 116.38C268.785 116.38 268.53 116.275 268.343 116.087C268.155 115.9 268.05 115.645 268.05 115.38V107.45L265.33 111.22C265.236 111.355 265.11 111.465 264.964 111.54C264.817 111.615 264.654 111.653 264.49 111.65C264.321 111.651 264.155 111.613 264.004 111.538C263.853 111.464 263.721 111.355 263.62 111.22L260.93 107.45V115.38C260.93 115.657 260.82 115.923 260.624 116.119C260.428 116.315 260.162 116.425 259.885 116.425C259.608 116.425 259.342 116.315 259.146 116.119C258.95 115.923 258.84 115.657 258.84 115.38V104.26C258.84 103.995 258.945 103.741 259.133 103.553C259.32 103.366 259.575 103.26 259.84 103.26H259.9C260.063 103.259 260.224 103.297 260.368 103.372C260.513 103.447 260.637 103.556 260.73 103.69L264.48 108.89L268.23 103.69C268.325 103.553 268.452 103.443 268.6 103.367C268.749 103.292 268.914 103.255 269.08 103.26C269.345 103.27 269.597 103.377 269.787 103.562C269.978 103.747 270.093 103.995 270.11 104.26Z" fill="white"/>
<path d="M274.67 115.379V104.259C274.67 103.994 274.775 103.739 274.963 103.552C275.15 103.364 275.405 103.259 275.67 103.259C275.805 103.252 275.941 103.273 276.068 103.32C276.195 103.368 276.311 103.44 276.409 103.534C276.508 103.627 276.586 103.74 276.639 103.864C276.692 103.989 276.72 104.123 276.72 104.259V114.319H281.83C282.108 114.319 282.375 114.43 282.572 114.627C282.769 114.824 282.88 115.091 282.88 115.369C282.88 115.648 282.769 115.915 282.572 116.112C282.375 116.308 282.108 116.419 281.83 116.419H275.67C275.535 116.419 275.402 116.392 275.278 116.339C275.154 116.287 275.041 116.209 274.948 116.112C274.855 116.015 274.782 115.9 274.734 115.774C274.686 115.648 274.664 115.514 274.67 115.379Z" fill="white"/>
<path d="M110.22 193.41H54.4297V218.48H110.22V193.41Z" fill="#455A64"/>
<path d="M71.0001 207.06H68.7101V211.15C68.7101 211.427 68.6 211.693 68.404 211.889C68.2081 212.085 67.9423 212.195 67.6651 212.195C67.388 212.195 67.1222 212.085 66.9262 211.889C66.7302 211.693 66.6201 211.427 66.6201 211.15V200C66.6201 199.735 66.7255 199.48 66.913 199.293C67.1005 199.105 67.3549 199 67.6201 199H71.0001C72.0689 199 73.094 199.425 73.8498 200.18C74.6055 200.936 75.0301 201.961 75.0301 203.03C75.0301 204.099 74.6055 205.124 73.8498 205.88C73.094 206.635 72.0689 207.06 71.0001 207.06ZM68.7101 205H71.0001C71.5146 205 72.0081 204.796 72.3719 204.432C72.7357 204.068 72.9401 203.575 72.9401 203.06C72.9401 202.545 72.7357 202.052 72.3719 201.688C72.0081 201.324 71.5146 201.12 71.0001 201.12H68.7101V205Z" fill="white"/>
<path d="M77.5996 211.15V200C77.5996 199.735 77.705 199.48 77.8925 199.293C78.08 199.105 78.3344 199 78.5996 199C78.8648 199 79.1192 199.105 79.3067 199.293C79.4943 199.48 79.5996 199.735 79.5996 200V204.52H84.4796V200C84.4796 199.735 84.585 199.48 84.7725 199.293C84.96 199.105 85.2144 199 85.4796 199C85.6159 198.992 85.7524 199.011 85.8807 199.058C86.0091 199.105 86.1265 199.177 86.2258 199.271C86.3251 199.364 86.4042 199.477 86.4582 199.603C86.5121 199.728 86.5399 199.863 86.5396 200V211.12C86.5399 211.256 86.5121 211.392 86.4582 211.517C86.4042 211.642 86.3251 211.755 86.2258 211.849C86.1265 211.943 86.0091 212.015 85.8807 212.062C85.7524 212.108 85.6159 212.128 85.4796 212.12C85.2144 212.12 84.96 212.014 84.7725 211.827C84.585 211.639 84.4796 211.385 84.4796 211.12V206.6H79.6896V211.12C79.6896 211.385 79.5843 211.639 79.3967 211.827C79.2092 212.014 78.9548 212.12 78.6896 212.12C78.5534 212.132 78.4161 212.116 78.2862 212.074C78.1564 212.031 78.0366 211.962 77.9345 211.871C77.8323 211.78 77.7499 211.669 77.6923 211.545C77.6347 211.421 77.6032 211.287 77.5996 211.15Z" fill="white"/>
<path d="M95.37 207.06H93.05V211.15C93.05 211.427 92.9399 211.693 92.7439 211.889C92.5479 212.085 92.2821 212.195 92.005 212.195C91.7278 212.195 91.462 212.085 91.266 211.889C91.0701 211.693 90.96 211.427 90.96 211.15V200C90.96 199.735 91.0653 199.48 91.2529 199.293C91.4404 199.105 91.6947 199 91.96 199H95.33C96.3988 199 97.4238 199.425 98.1796 200.18C98.9354 200.936 99.36 201.961 99.36 203.03C99.36 204.099 98.9354 205.124 98.1796 205.88C97.4238 206.635 96.3988 207.06 95.33 207.06H95.37ZM93.05 205H95.37C95.8845 205 96.3779 204.796 96.7418 204.432C97.1056 204.068 97.31 203.575 97.31 203.06C97.31 202.545 97.1056 202.052 96.7418 201.688C96.3779 201.324 95.8845 201.12 95.37 201.12H93.05V205Z" fill="white"/>
<path d="M274.67 191.78L278.9 202L274.67 203.75L270.42 193.46L263.43 198.88V170.09L283.59 190.45L274.67 191.78Z" fill="#263238"/>
<path d="M263.43 167C263.253 166.537 263.165 166.045 263.17 165.55C263.159 165.054 263.247 164.561 263.43 164.1C263.609 164.561 263.694 165.054 263.68 165.55C263.689 166.044 263.604 166.536 263.43 167Z" fill="#263238"/>
<path d="M260.93 167.999C260.481 167.795 260.075 167.511 259.73 167.159C259.369 166.818 259.083 166.406 258.89 165.949C259.341 166.153 259.748 166.441 260.09 166.799C260.45 167.137 260.736 167.545 260.93 167.999Z" fill="#263238"/>
<path d="M259.9 170.469C258.968 170.815 257.942 170.815 257.01 170.469C257.944 170.135 258.965 170.135 259.9 170.469Z" fill="#263238"/>
<path d="M260.93 173C260.736 173.454 260.45 173.863 260.09 174.2C259.748 174.558 259.341 174.847 258.89 175.05C259.083 174.593 259.369 174.181 259.73 173.84C260.075 173.489 260.481 173.204 260.93 173Z" fill="#263238"/>
<path d="M267 170.469C267.938 170.135 268.962 170.135 269.9 170.469C268.964 170.816 267.936 170.816 267 170.469Z" fill="#263238"/>
<path d="M265.92 167.999C266.121 167.549 266.406 167.142 266.76 166.799C267.103 166.439 267.514 166.15 267.97 165.949C267.546 166.838 266.819 167.547 265.92 167.949V167.999Z" fill="#263238"/>
<path d="M339.371 290.42C331.661 324 316.051 366.51 304.001 375.09C294.281 382.01 243.251 394.19 240.411 394.5C233.361 395.21 219.411 345.45 226.751 343.43C235.961 340.88 279.681 339.52 282.171 336.97C284.661 334.42 300.661 312.75 318.681 287.78C331.101 270.53 344.151 269.59 339.371 290.42Z" fill="#DD6A57"/>
<path d="M246.05 391.769C245.21 392.189 233.3 398.179 225.93 400.319C220.44 401.909 204.49 406.069 202.14 400.199C200.53 396.199 209.61 392.639 215.98 389.979C219.34 388.589 223.48 385.069 222.49 382.919C220.76 379.139 212.12 382.919 206.44 386.229C195.44 392.619 180.81 404.109 174.1 398.529C171.57 396.429 174.51 392.589 178.82 388.829C171.82 393.209 164.37 396.829 161.46 394.579C159.8 393.309 159.72 391.579 160.65 389.579C158.49 390.279 156.58 390.139 155.25 388.739C152.98 386.359 154.08 382.849 156.57 379.249C156.144 379.202 155.735 379.054 155.377 378.818C155.018 378.581 154.722 378.263 154.51 377.889C149.69 370.549 173.78 349.479 182.12 347.509C206.63 341.679 232.7 343.809 232.7 343.809C242.33 351.499 246.07 391.749 246.05 391.769Z" fill="#DD6A57"/>
<path d="M210 369.2C204.165 370.109 198.59 372.253 193.65 375.49C187.43 379.6 183.31 384.4 178.1 389.23C178.081 389.257 178.072 389.29 178.073 389.323C178.075 389.357 178.088 389.389 178.11 389.414C178.131 389.439 178.161 389.456 178.194 389.463C178.226 389.469 178.26 389.465 178.29 389.45C180.77 387.15 191.07 378.51 193.73 376.55C198.532 372.928 204.096 370.449 210 369.3C210.09 369.29 210.07 369.19 210 369.2Z" fill="#263238"/>
<path d="M205.44 358.799C199 360.559 192.44 362.339 186.44 365.389C179.89 368.719 174.77 374.159 169.74 379.389C166.714 382.529 163.76 385.739 160.88 389.019C160.76 389.149 160.94 389.369 161.07 389.229C166.177 383.829 171.447 378.583 176.88 373.489C181.888 368.738 187.784 365.02 194.23 362.549C197.92 361.149 201.7 360.029 205.48 358.909C205.53 358.889 205.51 358.779 205.44 358.799Z" fill="#263238"/>
<path d="M198.56 349.699C192.3 350.989 186.84 352.089 181.29 355.439C173.96 359.879 166.87 367.359 164.39 370.019C161.64 372.949 159 376.019 156.39 379.019C156.28 379.139 156.5 379.329 156.61 379.199C162.561 372.493 168.938 366.177 175.7 360.289C178.882 357.441 182.485 355.1 186.38 353.349C190.328 351.796 194.404 350.589 198.56 349.739C198.56 349.739 198.58 349.699 198.56 349.699Z" fill="#263238"/>
<path d="M282.54 332.07L329.54 330.07C329.54 330.07 338.08 306.76 341.22 286.07C344.36 265.38 326.73 272.8 309.28 295.07C291.83 317.34 282.54 332.07 282.54 332.07Z" fill="#8E0B16"/>
<path d="M297.931 318C298.251 317.91 298.571 317.88 298.931 317.81C299.209 317.748 299.498 317.75 299.776 317.815C300.053 317.88 300.313 318.006 300.535 318.185C300.758 318.363 300.938 318.589 301.061 318.846C301.185 319.103 301.25 319.384 301.251 319.67C301.245 319.926 301.306 320.179 301.426 320.405C301.547 320.631 301.724 320.822 301.941 320.96C302.178 321.113 302.449 321.206 302.731 321.23C303.051 321.29 303.371 321.33 303.731 321.42C303.411 321.51 303.091 321.55 302.731 321.62C302.371 321.692 301.998 321.653 301.661 321.51C301.306 321.355 301.004 321.101 300.791 320.777C300.578 320.454 300.463 320.077 300.461 319.69C300.458 319.436 300.39 319.187 300.262 318.968C300.133 318.749 299.951 318.567 299.731 318.44C299.487 318.296 299.213 318.214 298.931 318.2C298.571 318.14 298.251 318.1 297.931 318ZM331.001 289.44C331.286 289.461 331.563 289.546 331.811 289.69C332.029 289.818 332.211 290 332.339 290.219C332.467 290.438 332.536 290.686 332.541 290.94C332.543 291.327 332.658 291.704 332.871 292.027C333.084 292.351 333.386 292.605 333.741 292.76C334.079 292.901 334.452 292.935 334.811 292.86C335.131 292.8 335.451 292.76 335.811 292.67C335.491 292.58 335.171 292.54 334.811 292.48C334.529 292.458 334.257 292.365 334.021 292.21C333.806 292.07 333.631 291.879 333.51 291.653C333.39 291.428 333.328 291.175 333.331 290.92C333.317 290.531 333.191 290.155 332.967 289.837C332.744 289.519 332.432 289.273 332.071 289.13C331.727 289.009 331.357 288.985 331.001 289.06C330.681 289.12 330.361 289.16 330.051 289.25C330.371 289.34 330.691 289.38 331.001 289.44ZM332.201 307.77C331.985 307.957 331.728 308.091 331.451 308.16C331.208 308.225 330.952 308.227 330.708 308.164C330.464 308.101 330.241 307.975 330.061 307.8C329.786 307.525 329.438 307.336 329.058 307.256C328.678 307.176 328.283 307.209 327.921 307.35C327.583 307.495 327.295 307.734 327.091 308.04C326.911 308.31 326.711 308.56 326.551 308.85C326.841 308.69 327.091 308.49 327.361 308.31C327.58 308.131 327.836 308.005 328.111 307.94C328.361 307.887 328.621 307.898 328.866 307.974C329.111 308.049 329.333 308.185 329.511 308.37C329.714 308.577 329.962 308.735 330.236 308.833C330.51 308.931 330.802 308.965 331.091 308.933C331.38 308.901 331.658 308.804 331.904 308.65C332.149 308.495 332.357 308.286 332.511 308.04C332.691 307.77 332.891 307.51 333.051 307.22C332.731 307.39 332.481 307.59 332.211 307.77H332.201ZM319.421 286.39C319.202 286.575 318.946 286.712 318.671 286.79C318.425 286.851 318.168 286.849 317.923 286.785C317.678 286.72 317.454 286.594 317.271 286.42L317.021 286.2C316.831 286.39 316.651 286.58 316.471 286.78C316.566 286.838 316.654 286.908 316.731 286.99C317.015 287.256 317.37 287.435 317.754 287.502C318.138 287.57 318.533 287.524 318.891 287.37C319.219 287.213 319.497 286.967 319.691 286.66C319.871 286.39 320.071 286.14 320.231 285.85C320.001 286 319.701 286.21 319.431 286.39H319.421ZM314.111 304C314.091 304.284 314.01 304.561 313.871 304.81C313.741 305.027 313.558 305.208 313.34 305.335C313.121 305.463 312.874 305.533 312.621 305.54C312.232 305.54 311.852 305.654 311.527 305.867C311.202 306.08 310.946 306.383 310.791 306.74C310.655 307.076 310.621 307.444 310.691 307.8C310.761 308.12 310.791 308.44 310.881 308.8C310.971 308.48 311.011 308.16 311.081 307.8C311.108 307.52 311.196 307.25 311.341 307.01C311.481 306.797 311.673 306.622 311.898 306.504C312.124 306.385 312.376 306.325 312.631 306.33C313.021 306.318 313.399 306.193 313.719 305.969C314.039 305.745 314.286 305.432 314.431 305.07C314.547 304.725 314.571 304.356 314.501 304C314.431 303.68 314.391 303.36 314.301 303C314.211 303.36 314.181 303.68 314.111 304ZM327.571 321.91C327.556 322.195 327.474 322.472 327.331 322.72C327.202 322.938 327.02 323.12 326.801 323.248C326.582 323.376 326.334 323.445 326.081 323.45C325.695 323.451 325.318 323.564 324.995 323.776C324.672 323.987 324.417 324.287 324.261 324.64C324.118 324.977 324.079 325.35 324.151 325.71C324.221 326.03 324.261 326.35 324.351 326.71C324.441 326.39 324.481 326.07 324.541 325.71C324.566 325.428 324.659 325.158 324.811 324.92C324.949 324.705 325.141 324.53 325.367 324.411C325.593 324.292 325.845 324.233 326.101 324.24C326.489 324.226 326.865 324.1 327.183 323.876C327.501 323.652 327.747 323.341 327.891 322.98C328.011 322.636 328.035 322.266 327.961 321.91C327.901 321.59 327.861 321.27 327.771 320.91C327.681 321.27 327.641 321.59 327.571 321.91Z" fill="white"/>
<path d="M331.17 319.87C321 319.61 310.8 320.06 300.63 320.71C297.75 320.903 294.877 321.156 292.01 321.47C291.93 321.47 291.92 321.6 292.01 321.6C297.09 321.6 302.17 321.43 307.25 321.28C312.33 321.13 317.45 320.92 322.54 320.63C325.42 320.46 328.29 320.29 331.16 320.06C331.29 320.05 331.3 319.87 331.17 319.87Z" fill="#263238"/>
<path d="M295.73 407.23H415.73C417.05 404.81 397.37 299.66 356.89 270.05C347.89 263.49 331.98 267.71 327.55 274.1C305.31 306.2 295.73 407.23 295.73 407.23Z" fill="#8E0B16"/>
<path d="M346.641 318C346.961 317.91 347.281 317.88 347.641 317.81C347.919 317.749 348.208 317.751 348.486 317.816C348.763 317.881 349.023 318.007 349.245 318.185C349.468 318.364 349.648 318.59 349.771 318.847C349.895 319.103 349.96 319.385 349.961 319.67C349.955 319.926 350.016 320.18 350.136 320.406C350.257 320.631 350.434 320.822 350.651 320.96C350.889 321.112 351.16 321.204 351.441 321.23C351.761 321.29 352.081 321.33 352.441 321.42C352.121 321.51 351.801 321.55 351.441 321.62C351.081 321.691 350.708 321.653 350.371 321.51C350.016 321.355 349.714 321.101 349.501 320.778C349.288 320.455 349.173 320.077 349.171 319.69C349.168 319.436 349.099 319.187 348.971 318.968C348.843 318.749 348.66 318.567 348.441 318.44C348.198 318.295 347.923 318.213 347.641 318.2C347.281 318.14 347.001 318.1 346.641 318ZM365.291 381.47C365.573 381.491 365.847 381.576 366.091 381.72C366.31 381.845 366.492 382.026 366.62 382.243C366.748 382.461 366.817 382.708 366.821 382.96C366.821 383.349 366.935 383.729 367.148 384.054C367.361 384.379 367.664 384.635 368.021 384.79C368.36 384.926 368.732 384.96 369.091 384.89C369.411 384.83 369.731 384.79 370.091 384.7C369.771 384.61 369.451 384.57 369.091 384.5C368.809 384.482 368.537 384.393 368.301 384.24C368.086 384.1 367.911 383.909 367.79 383.683C367.67 383.458 367.608 383.206 367.611 382.95C367.605 382.559 367.482 382.18 367.257 381.86C367.032 381.541 366.716 381.297 366.351 381.16C366.012 381.034 365.643 381.01 365.291 381.09C364.971 381.15 364.651 381.19 364.291 381.28C364.651 381.38 365.001 381.42 365.291 381.48V381.47ZM387.291 321.62C387.573 321.634 387.847 321.717 388.091 321.86C388.31 321.987 388.493 322.169 388.621 322.388C388.749 322.607 388.818 322.856 388.821 323.11C388.823 323.497 388.938 323.875 389.151 324.198C389.364 324.521 389.666 324.775 390.021 324.93C390.358 325.074 390.731 325.112 391.091 325.04C391.411 324.97 391.731 324.93 392.091 324.84C391.771 324.75 391.451 324.71 391.091 324.65C390.809 324.626 390.538 324.534 390.301 324.38C390.084 324.242 389.907 324.051 389.786 323.826C389.666 323.6 389.605 323.346 389.611 323.09C389.61 322.805 389.545 322.523 389.421 322.267C389.298 322.01 389.118 321.784 388.895 321.605C388.673 321.427 388.413 321.301 388.136 321.236C387.858 321.171 387.569 321.169 387.291 321.23C386.971 321.3 386.651 321.33 386.291 321.42C386.671 321.52 387.001 321.56 387.311 321.63L387.291 321.62ZM331.001 289.44C331.286 289.461 331.563 289.546 331.811 289.69C332.029 289.818 332.211 290.001 332.339 290.22C332.467 290.439 332.536 290.687 332.541 290.94C332.543 291.327 332.658 291.705 332.871 292.028C333.084 292.351 333.386 292.605 333.741 292.76C334.079 292.901 334.452 292.936 334.811 292.86C335.131 292.8 335.451 292.76 335.811 292.67C335.491 292.58 335.171 292.54 334.811 292.48C334.529 292.458 334.257 292.365 334.021 292.21C333.806 292.07 333.631 291.879 333.51 291.653C333.39 291.428 333.328 291.176 333.331 290.92C333.317 290.531 333.191 290.155 332.967 289.837C332.743 289.519 332.432 289.274 332.071 289.13C331.727 289.01 331.357 288.986 331.001 289.06C330.681 289.12 330.361 289.16 330.051 289.25C330.371 289.34 330.691 289.38 331.001 289.44ZM365.651 288.72C365.935 288.739 366.212 288.821 366.461 288.96C366.678 289.09 366.859 289.273 366.986 289.491C367.114 289.71 367.184 289.957 367.191 290.21C367.191 290.599 367.305 290.979 367.518 291.304C367.731 291.629 368.034 291.885 368.391 292.04C368.73 292.176 369.102 292.21 369.461 292.14C369.771 292.07 370.091 292.03 370.411 291.95C370.091 291.86 369.771 291.82 369.461 291.75C369.178 291.725 368.904 291.636 368.661 291.49C368.448 291.35 368.273 291.158 368.155 290.933C368.036 290.707 367.976 290.455 367.981 290.2C367.969 289.81 367.844 289.431 367.62 289.111C367.396 288.792 367.083 288.544 366.721 288.4C366.377 288.28 366.007 288.255 365.651 288.33C365.331 288.4 365.011 288.44 364.651 288.53C365.001 288.61 365.341 288.65 365.661 288.72H365.651ZM322.501 344.72C322.785 344.739 323.062 344.821 323.311 344.96C323.527 345.09 323.706 345.273 323.832 345.492C323.958 345.711 324.026 345.958 324.031 346.21C324.031 346.599 324.145 346.979 324.358 347.304C324.571 347.629 324.874 347.885 325.231 348.04C325.57 348.176 325.942 348.21 326.301 348.14C326.621 348.08 326.941 348.04 327.301 347.95C326.981 347.86 326.661 347.82 326.301 347.75C326.02 347.728 325.749 347.639 325.511 347.49C325.296 347.35 325.121 347.159 325 346.933C324.88 346.708 324.818 346.456 324.821 346.2C324.817 345.809 324.694 345.429 324.469 345.109C324.244 344.789 323.927 344.546 323.561 344.41C323.222 344.284 322.853 344.259 322.501 344.34C322.181 344.4 321.861 344.44 321.501 344.53C321.871 344.58 322.191 344.62 322.511 344.68L322.501 344.72ZM360.281 402.72C360.565 402.738 360.842 402.82 361.091 402.96C361.308 403.09 361.489 403.273 361.616 403.491C361.744 403.71 361.814 403.957 361.821 404.21C361.827 404.59 361.942 404.959 362.15 405.276C362.359 405.593 362.654 405.844 363.001 406C363.34 406.136 363.712 406.17 364.071 406.1C364.391 406.03 364.711 405.99 365.071 405.9C364.751 405.81 364.431 405.78 364.071 405.71C363.789 405.688 363.517 405.595 363.281 405.44C363.066 405.303 362.89 405.114 362.769 404.89C362.648 404.666 362.587 404.415 362.591 404.16C362.59 403.874 362.525 403.591 362.401 403.333C362.276 403.075 362.096 402.848 361.872 402.668C361.649 402.489 361.388 402.362 361.109 402.297C360.83 402.231 360.54 402.229 360.261 402.29C359.941 402.36 359.631 402.4 359.261 402.49C359.661 402.55 360.001 402.59 360.291 402.66L360.281 402.72ZM341.681 371.57C341.966 371.585 342.243 371.667 342.491 371.81C342.709 371.937 342.891 372.12 343.017 372.339C343.143 372.558 343.21 372.807 343.211 373.06C343.213 373.447 343.328 373.825 343.541 374.148C343.754 374.471 344.056 374.725 344.411 374.88C344.748 375.023 345.121 375.061 345.481 374.99C345.801 374.92 346.121 374.88 346.481 374.79C346.161 374.7 345.841 374.66 345.481 374.6C345.2 374.574 344.929 374.482 344.691 374.33C344.466 374.191 344.283 373.994 344.162 373.76C344.04 373.526 343.985 373.263 344.001 373C343.998 372.714 343.932 372.433 343.807 372.176C343.682 371.919 343.502 371.693 343.279 371.515C343.055 371.337 342.795 371.211 342.517 371.146C342.239 371.081 341.95 371.079 341.671 371.14C341.351 371.2 341.031 371.24 340.671 371.33C341.051 371.4 341.371 371.44 341.691 371.51L341.681 371.57ZM299.081 403.5C298.8 403.474 298.529 403.382 298.291 403.23C298.074 403.093 297.897 402.902 297.778 402.676C297.659 402.45 297.601 402.196 297.611 401.94C297.597 401.575 297.483 401.221 297.282 400.916C297.081 400.611 296.8 400.367 296.471 400.21C296.471 400.47 296.411 400.71 296.391 400.95C296.525 401.08 296.631 401.235 296.703 401.407C296.775 401.579 296.812 401.764 296.811 401.95C296.813 402.337 296.928 402.715 297.141 403.038C297.354 403.361 297.656 403.615 298.011 403.77C298.348 403.913 298.721 403.951 299.081 403.88C299.401 403.81 299.721 403.77 300.081 403.68C299.731 403.54 299.411 403.5 299.091 403.44L299.081 403.5ZM307.261 377.23C307.546 377.245 307.823 377.327 308.071 377.47C308.289 377.598 308.471 377.781 308.599 378C308.727 378.219 308.796 378.467 308.801 378.72C308.803 379.107 308.918 379.485 309.131 379.808C309.344 380.131 309.646 380.385 310.001 380.54C310.338 380.684 310.711 380.722 311.071 380.65C311.391 380.58 311.701 380.54 312.021 380.45C311.701 380.36 311.391 380.32 311.071 380.26C310.789 380.238 310.517 380.145 310.281 379.99C310.063 379.854 309.885 379.663 309.764 379.437C309.643 379.211 309.583 378.957 309.591 378.7C309.577 378.311 309.451 377.935 309.227 377.617C309.003 377.299 308.692 377.054 308.331 376.91C307.987 376.79 307.617 376.766 307.261 376.84C306.941 376.91 306.621 376.94 306.261 377.03C306.631 377.06 307.001 377.1 307.271 377.17L307.261 377.23ZM357.521 345.5C357.806 345.522 358.082 345.608 358.331 345.75C358.549 345.878 358.731 346.061 358.859 346.28C358.987 346.499 359.056 346.747 359.061 347C359.063 347.387 359.178 347.765 359.391 348.088C359.604 348.411 359.906 348.665 360.261 348.82C360.596 348.96 360.965 348.995 361.321 348.92C361.641 348.86 361.961 348.82 362.321 348.73C362.001 348.64 361.681 348.6 361.321 348.54C361.04 348.514 360.769 348.422 360.531 348.27C360.318 348.13 360.143 347.938 360.025 347.713C359.906 347.487 359.846 347.235 359.851 346.98C359.837 346.591 359.711 346.215 359.487 345.897C359.263 345.579 358.952 345.334 358.591 345.19C358.247 345.07 357.877 345.045 357.521 345.12C357.201 345.18 356.881 345.22 356.521 345.31C356.891 345.34 357.211 345.38 357.531 345.44L357.521 345.5ZM401.521 388.16C401.802 388.179 402.075 388.261 402.321 388.4C402.539 388.528 402.721 388.711 402.849 388.93C402.977 389.149 403.046 389.397 403.051 389.65C403.051 390.039 403.165 390.419 403.378 390.744C403.591 391.069 403.894 391.325 404.251 391.48C404.59 391.616 404.962 391.65 405.321 391.58C405.641 391.51 405.961 391.47 406.321 391.38C406.001 391.29 405.681 391.26 405.321 391.19C405.039 391.166 404.768 391.074 404.531 390.92C404.316 390.783 404.14 390.594 404.019 390.37C403.898 390.146 403.837 389.895 403.841 389.64C403.841 389.354 403.778 389.071 403.655 388.813C403.531 388.555 403.352 388.328 403.129 388.148C402.907 387.969 402.646 387.842 402.368 387.776C402.09 387.711 401.8 387.709 401.521 387.77C401.201 387.84 400.881 387.88 400.521 387.97C400.911 388 401.231 388 401.551 388.1L401.521 388.16ZM384.041 362.16C384.325 362.178 384.602 362.26 384.851 362.4C385.068 362.53 385.249 362.713 385.376 362.931C385.504 363.15 385.574 363.397 385.581 363.65C385.581 364.039 385.695 364.419 385.908 364.744C386.121 365.069 386.424 365.325 386.781 365.48C387.12 365.616 387.492 365.65 387.851 365.58C388.171 365.51 388.491 365.48 388.851 365.39C388.531 365.3 388.211 365.26 387.851 365.19C387.57 365.171 387.298 365.082 387.061 364.93C386.846 364.79 386.671 364.599 386.55 364.373C386.43 364.148 386.368 363.896 386.371 363.64C386.357 363.251 386.231 362.875 386.007 362.557C385.783 362.239 385.472 361.994 385.111 361.85C384.768 361.726 384.398 361.699 384.041 361.77C383.721 361.84 383.411 361.88 383.091 361.97C383.441 362 383.751 362 384.071 362.06L384.041 362.16ZM332.181 307.87C331.965 308.057 331.708 308.191 331.431 308.26C331.188 308.326 330.932 308.327 330.688 308.264C330.444 308.201 330.221 308.076 330.041 307.9C329.766 307.625 329.418 307.437 329.038 307.357C328.658 307.277 328.262 307.309 327.901 307.45C327.563 307.595 327.275 307.835 327.071 308.14C326.891 308.41 326.691 308.66 326.531 308.95C326.821 308.79 327.071 308.59 327.341 308.41C327.559 308.232 327.816 308.105 328.091 308.04C328.341 307.987 328.601 307.999 328.846 308.074C329.091 308.149 329.313 308.285 329.491 308.47C329.694 308.677 329.942 308.836 330.216 308.933C330.49 309.031 330.782 309.065 331.071 309.034C331.36 309.002 331.637 308.905 331.883 308.75C332.129 308.595 332.337 308.387 332.491 308.14C332.671 307.87 332.871 307.61 333.031 307.32C332.731 307.39 332.481 307.59 332.211 307.77L332.181 307.87ZM383.921 345C383.708 345.188 383.455 345.325 383.181 345.4C382.935 345.461 382.678 345.46 382.433 345.395C382.188 345.33 381.964 345.205 381.781 345.03C381.506 344.759 381.159 344.573 380.781 344.495C380.403 344.417 380.01 344.45 379.651 344.59C379.314 344.731 379.025 344.968 378.821 345.27C378.641 345.54 378.441 345.79 378.281 346.08C378.571 345.92 378.821 345.72 379.091 345.54C379.308 345.36 379.565 345.233 379.841 345.17C380.09 345.117 380.348 345.129 380.592 345.204C380.835 345.279 381.055 345.415 381.231 345.6C381.435 345.806 381.683 345.962 381.957 346.059C382.23 346.155 382.522 346.189 382.81 346.157C383.098 346.126 383.376 346.029 383.622 345.876C383.868 345.722 384.076 345.515 384.231 345.27C384.411 345 384.611 344.75 384.771 344.46C384.451 344.6 384.201 344.8 383.921 345ZM351.651 275.71C351.438 275.898 351.184 276.035 350.911 276.11C350.665 276.176 350.407 276.177 350.161 276.112C349.915 276.047 349.691 275.919 349.511 275.74C349.235 275.467 348.886 275.28 348.506 275.202C348.126 275.124 347.732 275.158 347.371 275.3C347.034 275.441 346.745 275.678 346.541 275.98C346.361 276.26 346.161 276.51 346.001 276.8C346.291 276.64 346.551 276.44 346.821 276.26C347.035 276.08 347.288 275.954 347.561 275.89C347.81 275.837 348.07 275.847 348.314 275.921C348.559 275.994 348.781 276.128 348.961 276.31C349.163 276.52 349.41 276.68 349.683 276.78C349.957 276.879 350.249 276.915 350.539 276.884C350.828 276.853 351.107 276.757 351.353 276.602C351.6 276.447 351.807 276.238 351.961 275.99C352.141 275.71 352.341 275.46 352.501 275.17C352.181 275.32 351.921 275.51 351.651 275.69V275.71ZM351.001 296.22C350.978 296.502 350.893 296.775 350.751 297.02C350.624 297.24 350.442 297.423 350.222 297.551C350.003 297.679 349.754 297.747 349.501 297.75C349.114 297.753 348.736 297.867 348.413 298.08C348.09 298.293 347.835 298.595 347.681 298.95C347.542 299.289 347.503 299.66 347.571 300.02C347.641 300.34 347.681 300.66 347.771 301.02C347.861 300.7 347.901 300.38 347.961 300.02C347.984 299.738 348.077 299.467 348.231 299.23C348.37 299.016 348.562 298.84 348.787 298.72C349.013 298.599 349.265 298.537 349.521 298.54C349.806 298.539 350.087 298.475 350.344 298.351C350.601 298.227 350.827 298.047 351.005 297.825C351.184 297.602 351.31 297.343 351.375 297.065C351.44 296.787 351.442 296.499 351.381 296.22C351.321 295.9 351.281 295.58 351.191 295.22C351.121 295.58 351.081 295.9 351.001 296.22ZM343.381 352.44C343.36 352.725 343.274 353.002 343.131 353.25C343.002 353.469 342.82 353.65 342.601 353.778C342.382 353.906 342.134 353.976 341.881 353.98C341.494 353.983 341.116 354.097 340.793 354.31C340.47 354.523 340.215 354.825 340.061 355.18C339.925 355.52 339.89 355.891 339.961 356.25C340.021 356.57 340.061 356.89 340.151 357.25C340.241 356.93 340.281 356.61 340.351 356.25C340.365 355.968 340.455 355.695 340.611 355.46C340.75 355.246 340.942 355.07 341.167 354.95C341.393 354.829 341.645 354.767 341.901 354.77C342.289 354.757 342.665 354.63 342.983 354.407C343.301 354.183 343.547 353.871 343.691 353.51C343.817 353.168 343.841 352.796 343.761 352.44C343.701 352.13 343.661 351.81 343.571 351.49C343.501 351.81 343.461 352.13 343.401 352.44H343.381ZM383.281 303.44H383.121C382.732 303.441 382.352 303.554 382.027 303.768C381.702 303.981 381.446 304.284 381.291 304.64C381.155 304.98 381.12 305.351 381.191 305.71C381.251 306.03 381.291 306.35 381.381 306.71C381.471 306.39 381.511 306.07 381.581 305.71C381.601 305.429 381.691 305.158 381.841 304.92C381.98 304.706 382.172 304.53 382.397 304.41C382.623 304.289 382.875 304.227 383.131 304.23C383.308 304.23 383.484 304.2 383.651 304.14L383.281 303.44ZM383.001 394.28C382.986 394.565 382.904 394.843 382.761 395.09C382.632 395.309 382.45 395.49 382.231 395.618C382.012 395.746 381.764 395.816 381.511 395.82C381.124 395.823 380.746 395.937 380.423 396.15C380.1 396.363 379.845 396.665 379.691 397.02C379.552 397.359 379.513 397.73 379.581 398.09C379.651 398.41 379.691 398.73 379.781 399.09C379.871 398.78 379.911 398.46 379.971 398.09C379.993 397.808 380.086 397.536 380.241 397.3C380.377 397.082 380.567 396.904 380.794 396.783C381.02 396.662 381.274 396.602 381.531 396.61C381.919 396.597 382.295 396.47 382.613 396.247C382.931 396.023 383.177 395.711 383.321 395.35C383.441 395.006 383.465 394.636 383.391 394.28C383.331 393.96 383.291 393.64 383.201 393.28C383.131 393.64 383.091 394 383.001 394.28ZM400.171 343.28C400.174 343.307 400.174 343.333 400.171 343.36C400.044 343.58 399.862 343.763 399.642 343.891C399.423 344.019 399.174 344.087 398.921 344.09C398.534 344.093 398.156 344.207 397.833 344.42C397.51 344.633 397.255 344.935 397.101 345.29C396.958 345.628 396.919 346 396.991 346.36C397.061 346.68 397.101 347 397.191 347.36C397.281 347.04 397.321 346.72 397.381 346.36C397.406 346.079 397.499 345.808 397.651 345.57C397.788 345.354 397.979 345.177 398.205 345.056C398.431 344.935 398.684 344.874 398.941 344.88C399.24 344.872 399.534 344.797 399.801 344.66C400.067 344.523 400.299 344.329 400.481 344.09L400.171 343.28ZM312.401 354.46C312.383 354.742 312.301 355.015 312.161 355.26C312.032 355.479 311.85 355.66 311.631 355.788C311.412 355.916 311.164 355.986 310.911 355.99C310.522 355.991 310.142 356.104 309.817 356.318C309.492 356.531 309.236 356.834 309.081 357.19C308.945 357.53 308.91 357.901 308.981 358.26C309.051 358.58 309.081 358.9 309.171 359.26C309.261 358.94 309.301 358.62 309.371 358.26C309.396 357.98 309.485 357.71 309.631 357.47C309.77 357.256 309.962 357.08 310.187 356.96C310.413 356.839 310.665 356.777 310.921 356.78C311.311 356.769 311.689 356.643 312.009 356.419C312.329 356.195 312.576 355.883 312.721 355.52C312.837 355.179 312.861 354.813 312.791 354.46C312.721 354.14 312.681 353.82 312.591 353.46C312.501 353.82 312.471 354.14 312.401 354.46ZM314.511 304.07L314.001 305.74C314.191 305.551 314.338 305.322 314.431 305.07C314.542 304.749 314.569 304.405 314.511 304.07ZM332.511 271.2C332.49 271.485 332.404 271.762 332.261 272.01C332.132 272.229 331.95 272.41 331.731 272.538C331.512 272.666 331.264 272.736 331.011 272.74C330.624 272.743 330.246 272.857 329.923 273.07C329.6 273.283 329.345 273.585 329.191 273.94C329.052 274.279 329.013 274.65 329.081 275.01C329.151 275.33 329.191 275.65 329.281 276.01C329.371 275.69 329.411 275.37 329.471 275.01C329.493 274.728 329.586 274.456 329.741 274.22C329.88 274.006 330.072 273.83 330.297 273.71C330.523 273.589 330.775 273.527 331.031 273.53C331.419 273.517 331.795 273.39 332.113 273.167C332.431 272.943 332.677 272.631 332.821 272.27C332.941 271.926 332.965 271.556 332.891 271.2C332.831 270.89 332.791 270.57 332.701 270.25C332.621 270.57 332.581 270.89 332.521 271.2H332.511ZM327.561 321.91C327.546 322.195 327.464 322.473 327.321 322.72C327.192 322.939 327.01 323.12 326.791 323.248C326.572 323.376 326.324 323.446 326.071 323.45C325.685 323.452 325.308 323.565 324.985 323.776C324.662 323.987 324.407 324.287 324.251 324.64C324.108 324.978 324.069 325.35 324.141 325.71C324.211 326.03 324.251 326.35 324.341 326.71C324.431 326.39 324.471 326.07 324.531 325.71C324.556 325.429 324.649 325.158 324.801 324.92C324.939 324.706 325.131 324.53 325.357 324.411C325.583 324.292 325.835 324.233 326.091 324.24C326.479 324.227 326.855 324.1 327.173 323.877C327.491 323.653 327.737 323.341 327.881 322.98C328.001 322.636 328.025 322.266 327.951 321.91C327.891 321.59 327.851 321.27 327.761 320.91C327.681 321.27 327.641 321.59 327.571 321.91H327.561ZM371.931 328.73C371.913 329.012 371.831 329.285 371.691 329.53C371.562 329.749 371.38 329.93 371.161 330.058C370.942 330.186 370.694 330.256 370.441 330.26C370.052 330.261 369.672 330.374 369.347 330.587C369.022 330.801 368.766 331.104 368.611 331.46C368.475 331.8 368.44 332.171 368.511 332.53C368.581 332.85 368.611 333.17 368.701 333.53C368.791 333.21 368.831 332.89 368.901 332.53C368.928 332.251 369.016 331.981 369.161 331.74C369.3 331.526 369.492 331.35 369.717 331.23C369.943 331.109 370.195 331.047 370.451 331.05C370.841 331.039 371.219 330.913 371.539 330.689C371.859 330.465 372.106 330.153 372.251 329.79C372.367 329.449 372.391 329.083 372.321 328.73C372.251 328.41 372.211 328.09 372.121 327.73C372.001 328.09 372.001 328.41 371.941 328.73H371.931ZM330.931 385.67C330.91 385.952 330.824 386.226 330.681 386.47C330.554 386.69 330.372 386.873 330.152 387.001C329.933 387.129 329.684 387.198 329.431 387.2C329.044 387.203 328.666 387.317 328.343 387.53C328.02 387.743 327.765 388.045 327.611 388.4C327.47 388.738 327.435 389.111 327.511 389.47C327.571 389.79 327.611 390.11 327.701 390.47C327.791 390.15 327.831 389.83 327.891 389.47C327.916 389.189 328.009 388.918 328.161 388.68C328.3 388.466 328.492 388.29 328.717 388.17C328.943 388.049 329.195 387.987 329.451 387.99C329.736 387.989 330.017 387.925 330.274 387.801C330.531 387.677 330.757 387.497 330.935 387.275C331.114 387.052 331.24 386.793 331.305 386.515C331.37 386.237 331.372 385.949 331.311 385.67C331.251 385.35 331.211 385.03 331.121 384.67C331.001 385 331.001 385.35 330.941 385.67H330.931ZM365.341 311.13C365.553 310.942 365.807 310.805 366.081 310.73C366.326 310.669 366.583 310.67 366.828 310.735C367.073 310.8 367.297 310.925 367.481 311.1C367.754 311.373 368.101 311.56 368.479 311.64C368.857 311.72 369.25 311.689 369.611 311.55C369.948 311.405 370.236 311.165 370.441 310.86C370.621 310.59 370.821 310.34 370.981 310.05C370.691 310.21 370.441 310.41 370.171 310.59C369.953 310.77 369.696 310.897 369.421 310.96C369.171 311.013 368.913 311.001 368.67 310.926C368.426 310.851 368.206 310.715 368.031 310.53C367.826 310.324 367.578 310.168 367.305 310.071C367.031 309.975 366.739 309.941 366.451 309.973C366.163 310.004 365.886 310.101 365.64 310.254C365.394 310.408 365.186 310.615 365.031 310.86C364.851 311.13 364.651 311.38 364.491 311.67C364.821 311.51 365.071 311.31 365.351 311.13H365.341ZM339.451 334.57C339.666 334.383 339.923 334.249 340.201 334.18C340.445 334.114 340.703 334.113 340.948 334.176C341.193 334.239 341.418 334.364 341.601 334.54C341.874 334.813 342.221 335 342.599 335.08C342.977 335.16 343.37 335.129 343.731 334.99C344.068 334.845 344.356 334.605 344.561 334.3C344.741 334.03 344.941 333.78 345.101 333.49C344.811 333.65 344.561 333.85 344.291 334.03C344.073 334.21 343.816 334.337 343.541 334.4C343.29 334.452 343.03 334.44 342.785 334.365C342.541 334.29 342.319 334.154 342.141 333.97C341.937 333.763 341.689 333.604 341.415 333.507C341.142 333.409 340.849 333.375 340.56 333.406C340.272 333.438 339.994 333.535 339.748 333.69C339.502 333.845 339.294 334.053 339.141 334.3C338.961 334.57 338.761 334.83 338.601 335.12C338.941 335 339.191 334.75 339.461 334.57H339.451ZM321.921 369.11C322.136 368.926 322.388 368.789 322.661 368.71C322.906 368.648 323.163 368.65 323.408 368.715C323.653 368.78 323.877 368.905 324.061 369.08C324.336 369.353 324.685 369.54 325.065 369.618C325.445 369.696 325.84 369.662 326.201 369.52C326.537 369.379 326.826 369.142 327.031 368.84C327.211 368.57 327.411 368.31 327.571 368.02C327.281 368.19 327.031 368.38 326.751 368.56C326.541 368.747 326.286 368.875 326.011 368.93C325.761 368.987 325.501 368.978 325.255 368.905C325.01 368.831 324.788 368.695 324.611 368.51C324.327 368.243 323.971 368.065 323.587 367.998C323.204 367.93 322.809 367.976 322.451 368.13C322.122 368.286 321.845 368.532 321.651 368.84C321.471 369.11 321.271 369.36 321.111 369.65C321.411 369.49 321.661 369.29 321.931 369.11H321.921ZM329.511 405C329.724 404.815 329.977 404.681 330.251 404.61C330.495 404.544 330.753 404.543 330.998 404.606C331.243 404.669 331.468 404.794 331.651 404.97C331.925 405.245 332.274 405.433 332.654 405.513C333.034 405.593 333.429 405.561 333.791 405.42C334.128 405.275 334.416 405.035 334.621 404.73C334.801 404.46 335.001 404.21 335.161 403.92C334.871 404.08 334.621 404.28 334.341 404.46C334.126 404.64 333.873 404.766 333.601 404.83C333.35 404.884 333.09 404.873 332.845 404.797C332.599 404.722 332.378 404.585 332.201 404.4C331.997 404.193 331.749 404.034 331.475 403.937C331.202 403.839 330.909 403.805 330.62 403.836C330.332 403.868 330.054 403.965 329.808 404.12C329.562 404.275 329.354 404.483 329.201 404.73C329.021 405 328.821 405.26 328.661 405.54C329.001 405.37 329.241 405.17 329.511 405ZM363.441 365.57C363.653 365.382 363.907 365.245 364.181 365.17C364.426 365.109 364.683 365.11 364.928 365.175C365.173 365.24 365.397 365.365 365.581 365.54C365.856 365.813 366.205 366 366.585 366.078C366.965 366.156 367.36 366.122 367.721 365.98C368.055 365.839 368.34 365.602 368.541 365.3C368.721 365.03 368.921 364.77 369.091 364.48C368.801 364.65 368.541 364.84 368.271 365.02C368.058 365.208 367.799 365.335 367.521 365.39C367.272 365.447 367.014 365.439 366.77 365.365C366.526 365.291 366.306 365.155 366.131 364.97C365.847 364.703 365.491 364.525 365.107 364.458C364.724 364.39 364.329 364.436 363.971 364.59C363.637 364.743 363.356 364.99 363.161 365.3C362.981 365.57 362.791 365.82 362.621 366.11C362.911 365.94 363.171 365.74 363.441 365.56V365.57ZM386.791 379.86C387.006 379.676 387.258 379.539 387.531 379.46C387.776 379.398 388.033 379.4 388.278 379.465C388.523 379.53 388.747 379.655 388.931 379.83C389.206 380.103 389.555 380.29 389.935 380.368C390.315 380.446 390.71 380.412 391.071 380.27C391.407 380.129 391.696 379.892 391.901 379.59C392.081 379.32 392.281 379.07 392.441 378.78C392.151 378.94 391.901 379.14 391.621 379.32C391.406 379.5 391.153 379.627 390.881 379.69C390.63 379.744 390.37 379.733 390.125 379.657C389.879 379.582 389.658 379.445 389.481 379.26C389.277 379.053 389.029 378.894 388.755 378.797C388.482 378.699 388.189 378.665 387.9 378.696C387.612 378.728 387.334 378.825 387.088 378.98C386.842 379.135 386.634 379.343 386.481 379.59C386.301 379.86 386.101 380.11 385.941 380.4C386.261 380.23 386.521 380 386.791 379.85V379.86ZM347.511 390.7C347.725 390.514 347.978 390.377 348.251 390.3C348.496 390.238 348.753 390.24 348.998 390.305C349.243 390.37 349.467 390.495 349.651 390.67C349.926 390.943 350.275 391.13 350.655 391.208C351.035 391.286 351.43 391.252 351.791 391.11C352.127 390.969 352.416 390.732 352.621 390.43C352.801 390.16 352.991 389.9 353.161 389.61C352.871 389.78 352.611 389.98 352.341 390.16C352.124 390.342 351.867 390.469 351.591 390.53C351.341 390.583 351.083 390.571 350.84 390.496C350.596 390.421 350.376 390.285 350.201 390.1C349.917 389.833 349.561 389.655 349.177 389.588C348.794 389.52 348.399 389.566 348.041 389.72C347.714 389.88 347.438 390.125 347.241 390.43C347.061 390.7 346.861 390.95 346.691 391.24C347.001 391.08 347.241 390.88 347.511 390.7ZM398.171 405C398.384 404.815 398.637 404.681 398.911 404.61C399.155 404.544 399.413 404.543 399.658 404.606C399.903 404.669 400.128 404.794 400.311 404.97C400.585 405.245 400.934 405.433 401.314 405.513C401.694 405.593 402.089 405.561 402.451 405.42C402.788 405.275 403.076 405.035 403.281 404.73C403.461 404.46 403.661 404.21 403.821 403.92C403.531 404.08 403.281 404.28 403.001 404.46C402.786 404.64 402.533 404.766 402.261 404.83C402.01 404.883 401.75 404.871 401.505 404.796C401.26 404.721 401.038 404.585 400.861 404.4C400.657 404.193 400.409 404.034 400.135 403.937C399.862 403.839 399.569 403.805 399.28 403.836C398.992 403.868 398.714 403.965 398.468 404.12C398.222 404.275 398.014 404.483 397.861 404.73C397.681 405 397.481 405.26 397.321 405.54C397.651 405.37 397.901 405.17 398.171 405ZM407.171 366.16C406.932 366.089 406.715 365.958 406.541 365.78C406.337 365.573 406.089 365.414 405.815 365.317C405.542 365.219 405.249 365.185 404.96 365.216C404.672 365.248 404.394 365.345 404.148 365.5C403.902 365.655 403.694 365.863 403.541 366.11C403.361 366.38 403.161 366.63 403.001 366.92C403.291 366.76 403.541 366.56 403.811 366.38C404.026 366.196 404.278 366.059 404.551 365.98C404.796 365.919 405.053 365.92 405.298 365.985C405.543 366.05 405.767 366.175 405.951 366.35C406.319 366.721 406.818 366.933 407.341 366.94L407.171 366.16ZM311.321 395.65C311.536 395.466 311.788 395.329 312.061 395.25C312.306 395.188 312.563 395.19 312.808 395.255C313.053 395.32 313.277 395.445 313.461 395.62C313.735 395.895 314.084 396.083 314.464 396.163C314.844 396.243 315.239 396.211 315.601 396.07C315.938 395.925 316.226 395.685 316.431 395.38C316.611 395.11 316.811 394.86 316.971 394.57C316.681 394.73 316.431 394.93 316.151 395.11C315.936 395.29 315.683 395.417 315.411 395.48C315.16 395.533 314.9 395.521 314.655 395.446C314.41 395.371 314.188 395.235 314.011 395.05C313.807 394.843 313.559 394.684 313.285 394.587C313.012 394.489 312.719 394.455 312.43 394.486C312.142 394.518 311.864 394.615 311.618 394.77C311.372 394.925 311.164 395.133 311.011 395.38C310.831 395.65 310.631 395.91 310.471 396.19C310.841 396 311.091 395.82 311.361 395.64L311.321 395.65ZM308.431 335.4C308.641 335.208 308.895 335.071 309.171 335C309.416 334.934 309.674 334.933 309.92 334.998C310.166 335.063 310.39 335.191 310.571 335.37C310.846 335.643 311.195 335.83 311.575 335.908C311.955 335.986 312.35 335.952 312.711 335.81C313.045 335.669 313.33 335.432 313.531 335.13C313.711 334.85 313.911 334.6 314.081 334.31C313.791 334.47 313.531 334.67 313.261 334.85C313.049 335.039 312.79 335.167 312.511 335.22C312.262 335.275 312.004 335.266 311.761 335.192C311.517 335.119 311.297 334.984 311.121 334.8C310.837 334.533 310.481 334.355 310.097 334.288C309.714 334.22 309.319 334.266 308.961 334.42C308.63 334.573 308.35 334.815 308.151 335.12C307.971 335.4 307.781 335.65 307.611 335.94C307.941 335.77 308.201 335.57 308.471 335.39L308.431 335.4Z" fill="white"/>
<path d="M314.801 302.068C313.701 306.068 312.634 310.068 311.601 314.068C311.731 312.318 311.921 310.578 312.151 308.838C312.151 308.738 312.011 308.688 311.981 308.838C311.555 310.997 311.317 313.188 311.271 315.388C310.031 320.222 308.871 325.072 307.791 329.938C305.741 339.268 303.911 348.678 302.391 358.108C301.541 363.438 300.881 368.788 299.971 374.108C299.971 374.208 300.111 374.248 300.131 374.108C300.961 369.398 302.071 364.718 303.131 360.038C304.191 355.358 305.131 350.738 306.131 346.088C308.071 336.718 310.131 327.378 312.051 318.018C313.141 312.738 314.151 307.448 315.241 302.178C315.248 302.149 315.249 302.119 315.245 302.09C315.241 302.06 315.23 302.032 315.215 302.007C315.184 301.955 315.134 301.918 315.076 301.903C315.017 301.889 314.956 301.898 314.904 301.929C314.852 301.96 314.815 302.01 314.801 302.068Z" fill="#263238"/>
<path d="M310.11 239.78C311.44 247.06 307.34 253.91 300.95 255.08C294.56 256.25 288.31 251.29 286.95 244.01C285.59 236.73 289.71 229.87 296.1 228.71C302.49 227.55 308.78 232.5 310.11 239.78Z" fill="#455A64"/>
<path d="M313.94 239.55C315.42 247.65 310.86 255.27 303.76 256.55C296.66 257.83 289.69 252.34 288.21 244.24C286.73 236.14 291.29 228.52 298.39 227.24C305.49 225.96 312.46 231.45 313.94 239.55Z" fill="#C7C7C7"/>
<path d="M334.211 296.709C341.451 296.709 350.661 283.349 353.211 273.709C353.381 273.049 345.331 250.379 344.211 245.709C343.981 244.709 316.721 259.889 316.721 259.889C316.721 259.889 321.961 268.959 323.881 277.089C324.061 277.819 327.211 296.739 334.211 296.709Z" fill="#DD6A57"/>
<path d="M327.251 278.86C326.305 279.122 325.338 279.3 324.361 279.39C324.241 278.82 324.141 278.34 324.071 277.97C324.074 277.953 324.074 277.936 324.071 277.92C324.075 277.877 324.075 277.833 324.071 277.79C324.071 277.65 324.021 277.5 323.981 277.35C323.985 277.32 323.985 277.29 323.981 277.26V277.14C323.538 275.323 322.99 273.533 322.341 271.78C321.067 268.384 319.577 265.074 317.881 261.87C317.741 261.603 317.611 261.363 317.491 261.15L316.851 259.97L317.571 259.56L318.571 259.03L319.211 258.68L320.001 258.24L320.731 257.84L320.871 257.76L321.871 257.24L322.091 257.12L323.041 256.6L323.541 256.33L325.081 255.49L326.261 254.85L327.261 254.31L330.681 252.47L331.781 251.87L335.731 249.79L336.581 249.35L337.001 249L337.671 248.65L339.111 247.92L339.991 247.48C340.421 247.26 340.821 247.07 341.201 246.89C341.391 246.79 341.581 246.71 341.751 246.63C342.271 246.38 342.751 246.18 343.091 246.03L343.331 245.93C343.671 253.85 343.001 274.64 327.251 278.86Z" fill="#263238"/>
<path d="M336.06 210.669C342.51 219.759 346.91 250.739 341.89 259.669C334.61 272.589 317.84 279.179 305.64 269.319C293.82 259.769 288.81 219.319 294.87 210.679C303.79 197.999 326.52 197.259 336.06 210.669Z" fill="#DD6A57"/>
<path d="M313 237.999C313 237.909 313.17 238.069 313.18 238.159C313.42 240.249 314.05 242.609 316.04 243.029C316.1 243.029 316.11 243.149 316.04 243.149C313.64 243.189 312.84 240.049 313 237.999Z" fill="#263238"/>
<path d="M314.49 235.568C317.81 234.828 319.06 241.568 315.98 242.208C312.9 242.848 311.71 236.198 314.49 235.568Z" fill="#263238"/>
<path d="M301.56 240.479C301.56 240.399 301.42 240.599 301.43 240.689C301.89 242.749 302.06 245.179 300.31 246.219C300.26 246.219 300.31 246.359 300.31 246.339C302.58 245.589 302.32 242.359 301.56 240.479Z" fill="#263238"/>
<path d="M299.31 238.659C295.93 239.029 296.91 245.759 300.05 245.419C303.19 245.079 302.14 238.349 299.31 238.659Z" fill="#263238"/>
<path d="M316.56 232C315.633 231.907 314.711 231.764 313.8 231.57C312.801 231.551 311.836 231.199 311.06 230.57C310.855 230.326 310.736 230.022 310.72 229.705C310.703 229.387 310.791 229.073 310.97 228.81C311.409 228.351 311.961 228.017 312.57 227.842C313.18 227.666 313.825 227.655 314.44 227.81C315.736 227.932 316.94 228.531 317.82 229.49C318.012 229.718 318.132 229.998 318.167 230.295C318.202 230.592 318.149 230.892 318.015 231.159C317.881 231.425 317.672 231.647 317.413 231.797C317.155 231.946 316.858 232.017 316.56 232Z" fill="#263238"/>
<path d="M296.091 235.769C296.954 235.421 297.799 235.027 298.621 234.589C299.569 234.291 300.395 233.69 300.971 232.879C301.101 232.589 301.131 232.264 301.057 231.954C300.983 231.645 300.808 231.369 300.561 231.169C300.013 230.847 299.39 230.678 298.756 230.678C298.121 230.678 297.498 230.847 296.951 231.169C295.734 231.64 294.74 232.555 294.171 233.729C294.054 234.003 294.02 234.304 294.073 234.596C294.125 234.889 294.261 235.16 294.465 235.376C294.668 235.592 294.93 235.745 295.219 235.814C295.508 235.884 295.811 235.869 296.091 235.769Z" fill="#263238"/>
<path d="M319 256.77C318.6 257.35 318.23 258.11 317.49 258.31C316.715 258.441 315.921 258.407 315.16 258.21C315.144 258.203 315.127 258.202 315.111 258.208C315.094 258.213 315.081 258.224 315.072 258.239C315.063 258.254 315.061 258.271 315.064 258.288C315.067 258.304 315.076 258.319 315.09 258.33C315.462 258.682 315.923 258.927 316.423 259.038C316.923 259.149 317.444 259.122 317.93 258.96C318.332 258.772 318.669 258.47 318.898 258.091C319.128 257.711 319.24 257.273 319.22 256.83C319.23 256.7 319.06 256.69 319 256.77Z" fill="#263238"/>
<path d="M315.671 251C315.295 251.915 314.734 252.743 314.024 253.431C313.313 254.119 312.468 254.653 311.541 255C310.737 255.317 309.892 255.516 309.031 255.59C308.864 255.604 308.697 255.604 308.531 255.59C308.378 255.6 308.224 255.6 308.071 255.59C307.956 255.59 307.844 255.553 307.752 255.485C307.661 255.416 307.593 255.32 307.561 255.21C307.555 255.14 307.555 255.07 307.561 255V254.82C307.221 253.23 306.921 250.82 306.921 250.82C306.391 251.22 303.671 253.11 303.561 252.27C302.681 245.27 301.701 237.53 302.301 230.4C302.311 230.356 302.336 230.316 302.371 230.288C302.407 230.26 302.45 230.244 302.496 230.244C302.541 230.244 302.585 230.26 302.621 230.288C302.656 230.316 302.681 230.356 302.691 230.4C303.801 237.08 303.691 243.9 304.741 250.62C305.704 249.929 306.762 249.381 307.881 248.99C308.121 248.99 308.371 253.74 308.581 254.44V254.52C311.321 254.36 313.191 253.17 315.461 250.88C315.571 250.68 315.761 250.79 315.671 251Z" fill="#263238"/>
<path d="M309.82 254.599C310.905 255.583 312.223 256.271 313.65 256.599C314.435 256.746 315.246 256.645 315.97 256.309C317.54 255.569 317.3 254.039 316.75 252.799C316.456 252.14 316.083 251.519 315.64 250.949C314.14 252.756 312.1 254.035 309.82 254.599Z" fill="#263238"/>
<path d="M313.651 256.57C314.435 256.716 315.246 256.615 315.971 256.28C317.541 255.54 317.301 254.01 316.751 252.77C315.001 253.29 313.481 254.82 313.651 256.57Z" fill="#FF99BA"/>
<path opacity="0.2" d="M334.9 223.68C336.96 226.29 341.46 232.55 342.99 232.63C341.41 222.54 338.84 213.73 334.82 209.04C333.157 207.103 331.154 205.486 328.91 204.27C329.49 206.93 332.71 221 334.9 223.68Z" fill="#263238"/>
<path d="M304.84 217.548C306.087 218.718 307.614 219.548 309.273 219.959C310.933 220.371 312.671 220.35 314.32 219.898C316.009 219.439 317.552 218.555 318.802 217.329C320.052 216.104 320.967 214.578 321.46 212.898C321.46 212.877 321.468 212.857 321.483 212.842C321.498 212.827 321.519 212.818 321.54 212.818C321.561 212.818 321.581 212.827 321.596 212.842C321.611 212.857 321.62 212.877 321.62 212.898C321.25 214.701 320.397 216.369 319.151 217.724C317.906 219.079 316.315 220.069 314.55 220.588C312.785 220.999 310.942 220.938 309.208 220.411C307.474 219.885 305.909 218.911 304.67 217.588C304.678 217.574 304.689 217.562 304.702 217.552C304.715 217.542 304.73 217.535 304.746 217.532C304.762 217.528 304.779 217.527 304.795 217.53C304.811 217.533 304.826 217.539 304.84 217.548Z" fill="#263238"/>
<path d="M312.381 191.779C318.171 191.259 323.831 193.859 326.381 197.559C327.805 199.663 328.475 202.186 328.281 204.719C328.281 204.819 328.071 204.819 328.071 204.719C327.945 202.512 327.23 200.378 325.998 198.542C324.767 196.706 323.065 195.233 321.071 194.279C318.876 193.166 316.453 192.577 313.993 192.56C311.532 192.542 309.101 193.097 306.891 194.179C304.726 195.183 302.992 196.928 302.001 199.099C301.911 199.319 301.461 199.229 301.531 199.009C302.661 195.219 307.141 192.259 312.381 191.779Z" fill="#263238"/>
<path d="M280.251 208.079C280.874 205.12 282.525 202.478 284.911 200.619C288.201 198.029 292.251 197.899 296.261 197.859C296.371 197.859 296.381 198.029 296.261 198.029C292.841 198.079 289.371 198.329 286.441 200.269C284.009 201.857 282.203 204.239 281.331 207.009C280.517 209.848 280.752 212.884 281.994 215.563C283.235 218.242 285.399 220.385 288.091 221.599C289.659 222.257 291.346 222.587 293.047 222.568C294.748 222.549 296.427 222.182 297.981 221.489C298.101 221.439 298.221 221.609 298.091 221.669C296 222.696 293.665 223.121 291.346 222.895C289.028 222.67 286.819 221.803 284.965 220.392C283.112 218.981 281.688 217.081 280.854 214.907C280.019 212.732 279.807 210.368 280.241 208.079H280.251Z" fill="#263238"/>
<path d="M339.29 217.289C339.29 217.289 343.56 206.289 338.29 200.889C335.29 197.809 326.74 199.259 326.74 199.259C325.396 197.692 323.755 196.406 321.912 195.475C320.069 194.545 318.059 193.989 316 193.839C308.6 193.029 300.52 198.249 300.52 198.249C300.52 198.249 293.21 195.129 287.22 199.549C278.88 205.709 281.6 219.199 291.11 222.549C297.8 224.879 305.72 218.279 305.72 218.279C306.56 218.279 315.61 222.389 321.12 214.099C321.12 214.099 326.85 218.099 331.12 214.329C332.014 215.601 333.277 216.567 334.739 217.096C336.2 217.626 337.789 217.693 339.29 217.289Z" fill="#263238"/>
<path d="M317.34 247.109C316.157 247.185 314.97 247.026 313.849 246.642C312.727 246.258 311.692 245.656 310.804 244.871C309.916 244.086 309.191 243.133 308.672 242.067C308.153 241.001 307.85 239.843 307.78 238.659C307.676 236.979 308.045 235.304 308.845 233.823C309.645 232.342 310.845 231.115 312.307 230.282C313.77 229.449 315.436 229.042 317.118 229.109C318.8 229.175 320.43 229.712 321.822 230.658C323.214 231.604 324.313 232.922 324.994 234.461C325.674 236.001 325.91 237.7 325.673 239.367C325.437 241.033 324.737 242.6 323.655 243.889C322.573 245.178 321.15 246.138 319.55 246.659C318.835 246.902 318.093 247.053 317.34 247.109ZM309 238.579C309.096 240.12 309.646 241.599 310.582 242.827C311.518 244.056 312.797 244.979 314.257 245.481C315.718 245.983 317.294 246.04 318.787 245.646C320.281 245.252 321.623 244.424 322.646 243.267C323.669 242.111 324.326 240.676 324.534 239.146C324.742 237.616 324.491 236.058 323.814 234.67C323.137 233.283 322.064 232.126 320.73 231.348C319.396 230.57 317.861 230.205 316.32 230.299C315.671 230.342 315.03 230.463 314.41 230.659C312.759 231.194 311.332 232.262 310.353 233.695C309.373 235.129 308.898 236.846 309 238.579Z" fill="#8E0B16"/>
<path d="M298.63 250.719C295 251.429 291.26 248.039 290.31 243.159C289.836 240.959 290.063 238.664 290.96 236.599C291.293 235.691 291.855 234.883 292.592 234.255C293.328 233.627 294.214 233.199 295.164 233.013C296.114 232.827 297.096 232.889 298.015 233.193C298.934 233.498 299.759 234.033 300.41 234.749C302.019 236.321 303.096 238.356 303.49 240.569C304.39 245.189 302.49 249.569 299.2 250.569C299.013 250.631 298.823 250.681 298.63 250.719ZM292.06 237.109C291.264 238.942 291.065 240.978 291.49 242.929C292.32 247.149 295.42 250.119 298.4 249.539C301.38 248.959 303.13 245.039 302.31 240.809C301.961 238.843 301.011 237.033 299.59 235.629C299.056 235.072 298.395 234.651 297.664 234.402C296.934 234.154 296.154 234.084 295.39 234.199C295.24 234.222 295.093 234.259 294.95 234.309C294.301 234.55 293.708 234.924 293.211 235.406C292.714 235.888 292.322 236.468 292.06 237.109Z" fill="#8E0B16"/>
<path d="M308.28 239.618L308.87 238.568C307.3 237.698 303.87 236.788 302.19 239.568L303.19 240.208C304.74 237.718 308.14 239.548 308.28 239.618Z" fill="#8E0B16"/>
<path d="M348.18 234.169L349.13 233.419C348.78 232.979 345.63 229.119 342.9 229.209C340.36 229.299 324.78 233.889 324.12 234.089L324.46 235.249C328.93 233.919 340.97 230.479 342.94 230.409C344.74 230.359 347.33 233.109 348.18 234.169Z" fill="#8E0B16"/>
<path d="M337.75 236.559C337.75 236.559 341.44 224.999 346.49 225.999C351.54 226.999 350.83 242.369 346.35 245.829C345.807 246.312 345.171 246.681 344.482 246.912C343.792 247.144 343.063 247.233 342.338 247.175C341.613 247.117 340.907 246.913 340.263 246.575C339.619 246.237 339.05 245.772 338.59 245.209L337.75 236.559Z" fill="#DD6A57"/>
<path d="M346.18 230.398C346.26 230.398 346.31 230.478 346.25 230.528C343.14 233.068 342.3 236.948 342.05 240.768C342.7 239.128 343.91 237.958 346.05 238.668C346.17 238.668 346.12 238.878 346.05 238.888C345.363 238.884 344.692 239.092 344.128 239.484C343.564 239.876 343.135 240.433 342.9 241.078C342.516 242.16 342.251 243.28 342.11 244.418C342.04 244.788 341.42 244.798 341.43 244.418V244.328C339.91 239.798 341.46 232.368 346.18 230.398Z" fill="#263238"/>
<path d="M343.331 227.798C343.331 227.798 342.611 211.608 336.921 203.278C330.581 193.998 313.081 187.788 300.561 198.278C300.561 198.278 318.741 193.548 330.651 204.728C336.121 209.868 338.021 228.848 338.021 228.848L343.331 227.798Z" fill="#C7C7C7"/>
<path d="M343.704 251.114C350.891 250.385 356.044 243.153 355.213 234.96C354.383 226.768 347.883 220.717 340.696 221.446C333.509 222.175 328.356 229.407 329.187 237.6C330.018 245.792 336.517 251.843 343.704 251.114Z" fill="#C7C7C7"/>
<path d="M332.94 236.739C333.69 244.109 339.53 249.549 345.99 248.889C352.45 248.229 357.08 241.729 356.34 234.369C355.6 227.009 349.75 221.569 343.28 222.219C336.81 222.869 332.19 229.379 332.94 236.739Z" fill="#455A64"/>
<path d="M372.291 280.44C391.671 301.2 437.781 379.1 422.831 393.44C407.881 407.78 324.931 388.44 301.631 377.37C294.691 374.07 321.031 330.85 329.181 329.84C335.961 329 370.641 344.84 371.641 342.84C372.781 340.59 364.901 326.12 356.561 295.99C346.941 261.3 363.731 271.27 372.291 280.44Z" fill="#DD6A57"/>
<path d="M294.74 315.909C277.9 313.569 273.21 315.549 260.05 306.019C251.41 299.769 243.71 302.599 248.63 312.539C256.7 328.789 277.8 336.379 285.87 336.909L294.74 315.909Z" fill="#DD6A57"/>
<path d="M339.49 332.129C339.49 332.129 320.56 321.619 302.86 317.339C290.61 314.389 263.26 310.919 237.09 337.909C230.88 344.319 226.57 357.839 240.51 351.069C250.41 346.249 255.23 340.209 261.51 338.459C261.51 338.459 258.08 356.319 264.73 362.279C270.552 367.498 276.738 372.297 283.24 376.639C284.306 375.629 285.308 374.553 286.24 373.419C286.24 373.419 292.99 378.419 305.68 377.199L339.49 332.129Z" fill="#DD6A57"/>
<path d="M290.721 316.389C284.871 319.439 272.571 326.119 264.411 335.079C255.351 345.029 240.571 366.649 247.981 373.269C253.421 378.119 259.791 370.359 259.791 370.359C259.791 370.359 255.571 380.579 261.441 383.889C266.791 386.889 271.351 380.609 271.351 380.609C271.351 380.609 269.861 387.249 275.571 389.159C282.441 391.459 284.451 377.159 293.421 373.469C295.431 372.649 290.721 316.389 290.721 316.389Z" fill="#DD6A57"/>
<path d="M276.52 342.898C271.52 346.678 262.25 358.178 259.7 370.088C259.64 370.358 259.81 370.548 259.92 370.318C264.356 360.567 269.964 351.393 276.62 342.998C276.66 342.928 276.58 342.858 276.52 342.898Z" fill="#263238"/>
<path d="M286.31 352.339C282.31 356.049 273.31 368.339 271.13 380.489C271.08 380.759 271.27 380.939 271.37 380.699C275.289 370.738 280.321 361.251 286.37 352.419C286.45 352.359 286.36 352.299 286.31 352.339Z" fill="#263238"/>
<path d="M261.5 338.348C256.01 339.968 252.44 342.658 247.8 345.878C245.529 347.502 243.168 348.997 240.73 350.358C238.49 351.568 235.2 353.358 232.81 351.498C231.49 350.448 231.51 348.498 231.81 347.018C232.128 345.31 232.81 343.69 233.81 342.268C233.86 342.198 233.74 342.108 233.69 342.178C232.744 343.417 231.98 344.784 231.42 346.238C230.824 347.585 230.649 349.081 230.92 350.528C231.73 353.528 235.3 353.948 237.82 353.118C239.33 352.568 240.781 351.868 242.15 351.028C243.48 350.258 244.77 349.438 246.04 348.578C248.65 346.808 251.16 344.898 253.75 343.108C256.265 341.416 258.887 339.89 261.6 338.538C261.626 338.525 261.644 338.502 261.653 338.475C261.661 338.448 261.659 338.418 261.645 338.393C261.632 338.368 261.609 338.349 261.582 338.341C261.555 338.332 261.526 338.335 261.5 338.348Z" fill="#263238"/>
<path d="M250 357.669C251.42 354.539 259.11 341.499 261.61 338.479C261.619 338.464 261.623 338.446 261.621 338.428C261.619 338.41 261.611 338.394 261.598 338.381C261.586 338.368 261.569 338.36 261.551 338.358C261.533 338.356 261.515 338.36 261.5 338.369C257.22 342.429 250.34 353.199 248.74 356.659C247.14 360.119 245.33 364.429 245.33 368.229C245.33 373.969 249.13 375.049 250.54 375.329C252.209 375.633 253.932 375.354 255.42 374.539C257.163 373.466 258.67 372.051 259.85 370.379C259.91 370.299 259.8 370.189 259.73 370.269C257.73 372.529 254.44 374.759 251.33 374.349C250.641 374.283 249.972 374.08 249.362 373.752C248.753 373.424 248.215 372.978 247.78 372.439C246.93 371.059 246.604 369.42 246.86 367.819C247.32 364.282 248.382 360.849 250 357.669Z" fill="#263238"/>
<path d="M271.131 380.488C270.331 381.168 268.691 383.548 266.081 384.058C265.154 384.31 264.18 384.333 263.242 384.124C262.305 383.915 261.432 383.48 260.701 382.858C259.356 381.455 258.613 379.582 258.631 377.638C258.847 375.205 259.248 372.791 259.831 370.418C259.831 370.308 259.721 370.258 259.691 370.368C258.732 372.855 258.149 375.47 257.961 378.128C257.924 379.181 258.101 380.229 258.479 381.212C258.857 382.195 259.429 383.091 260.161 383.848C260.949 384.589 261.926 385.098 262.985 385.318C264.043 385.539 265.143 385.463 266.161 385.098C267.161 384.718 270.411 382.648 271.341 380.608C271.371 380.558 271.171 380.458 271.131 380.488Z" fill="#263238"/>
<path d="M292.88 372.439C291.997 373.031 291.182 373.718 290.45 374.489C289.64 375.269 288.86 376.079 288.11 376.899C286.592 378.565 285.251 380.385 284.11 382.329C282.95 384.279 281.88 386.449 279.99 387.799C279.093 388.483 278.004 388.867 276.876 388.896C275.749 388.924 274.641 388.597 273.71 387.959C272.73 387.247 272.024 386.22 271.71 385.049C271.337 383.778 271.214 382.447 271.35 381.129C271.35 381.108 271.342 381.088 271.327 381.073C271.312 381.058 271.291 381.049 271.27 381.049C271.249 381.049 271.229 381.058 271.214 381.073C271.199 381.088 271.19 381.108 271.19 381.129C270.982 382.301 270.889 383.489 270.91 384.679C271.013 385.76 271.399 386.795 272.03 387.679C272.711 388.548 273.618 389.212 274.652 389.598C275.686 389.985 276.807 390.078 277.89 389.869C280.29 389.429 282.04 387.629 283.35 385.679C284.79 383.509 285.99 381.199 287.54 379.089C288.35 377.979 289.15 376.859 290.04 375.809C290.93 374.759 292.04 373.739 292.94 372.599C293.08 372.509 293 372.379 292.88 372.439Z" fill="#263238"/>
<path d="M299.59 377.34C296.456 376.995 293.362 376.352 290.35 375.42C290.25 375.42 290.12 375.66 290.21 375.71C291.666 376.377 293.192 376.88 294.76 377.21C296.339 377.55 297.961 377.651 299.57 377.51C299.65 377.5 299.69 377.35 299.59 377.34Z" fill="#263238"/>
<path d="M403.001 357.999C393.333 351.455 382.739 346.399 371.571 342.999C368.411 341.999 365.221 341.159 362.031 340.289C362.015 340.295 362.002 340.305 361.993 340.318C361.984 340.332 361.979 340.348 361.979 340.364C361.979 340.38 361.984 340.396 361.993 340.41C362.002 340.423 362.015 340.433 362.031 340.439C367.589 342.175 373.045 344.225 378.371 346.579C383.704 348.872 388.971 351.259 394.171 353.739C397.171 355.149 400.011 356.689 402.921 358.189C402.934 358.201 402.949 358.21 402.966 358.215C402.983 358.22 403.001 358.22 403.019 358.217C403.036 358.213 403.052 358.205 403.066 358.194C403.08 358.182 403.091 358.168 403.097 358.152C403.104 358.135 403.107 358.117 403.106 358.1C403.104 358.082 403.098 358.065 403.089 358.05C403.079 358.035 403.066 358.023 403.051 358.014C403.036 358.005 403.018 358 403.001 357.999Z" fill="#263238"/>
<path d="M412.001 329.399L364.951 327.839C364.951 327.839 356.191 304.619 352.861 283.959C349.531 263.299 366.451 269.609 384.111 291.729C401.771 313.849 412.001 329.399 412.001 329.399Z" fill="#8E0B16"/>
<path d="M370.18 310.588C369.962 310.769 369.705 310.895 369.43 310.958C369.181 311.011 368.922 311 368.679 310.925C368.436 310.849 368.216 310.713 368.04 310.528C367.836 310.323 367.587 310.166 367.314 310.069C367.04 309.973 366.749 309.939 366.461 309.971C366.172 310.003 365.895 310.099 365.649 310.253C365.403 310.406 365.195 310.613 365.04 310.858C364.86 311.128 364.66 311.378 364.5 311.668C364.79 311.508 365.04 311.308 365.32 311.128C365.533 310.94 365.786 310.803 366.06 310.728C366.306 310.667 366.563 310.669 366.808 310.733C367.052 310.798 367.277 310.924 367.46 311.098C367.734 311.371 368.08 311.559 368.458 311.639C368.836 311.718 369.229 311.687 369.59 311.548C369.928 311.403 370.216 311.164 370.42 310.858C370.6 310.588 370.8 310.338 370.96 310.048C370.7 310.208 370.45 310.408 370.18 310.588ZM385 301.938C384.93 301.618 384.89 301.298 384.8 300.938C384.71 301.258 384.67 301.578 384.61 301.938C384.591 302.22 384.509 302.493 384.37 302.738C384.242 302.957 384.059 303.139 383.84 303.267C383.621 303.394 383.373 303.464 383.12 303.468C382.731 303.469 382.351 303.583 382.026 303.796C381.701 304.009 381.445 304.312 381.29 304.668C381.154 305.008 381.12 305.379 381.19 305.738C381.25 306.058 381.29 306.378 381.38 306.738C381.47 306.418 381.51 306.098 381.58 305.738C381.601 305.458 381.69 305.186 381.84 304.948C381.98 304.734 382.171 304.559 382.397 304.438C382.622 304.317 382.874 304.256 383.13 304.258C383.415 304.255 383.695 304.189 383.952 304.065C384.208 303.941 384.434 303.761 384.612 303.54C384.791 303.318 384.919 303.059 384.986 302.782C385.053 302.506 385.058 302.217 385 301.938ZM368.47 276.068C368.46 276.181 368.46 276.295 368.47 276.408C368.54 276.718 368.57 277.038 368.66 277.358C368.75 277.038 368.79 276.718 368.86 276.408C368.77 276.268 368.63 276.168 368.49 276.068H368.47ZM402 315.198C401.648 315.19 401.314 315.043 401.07 314.788C400.794 314.515 400.445 314.328 400.065 314.25C399.685 314.172 399.291 314.206 398.93 314.348C398.593 314.49 398.305 314.726 398.1 315.028C397.92 315.308 397.72 315.558 397.56 315.848C397.85 315.688 398.1 315.488 398.38 315.308C398.589 315.121 398.845 314.993 399.12 314.938C399.37 314.883 399.63 314.893 399.875 314.966C400.12 315.04 400.342 315.175 400.52 315.358C400.773 315.598 401.084 315.767 401.423 315.85C401.761 315.932 402.115 315.925 402.45 315.828L402 315.198ZM369.44 291.748C369.157 291.723 368.884 291.634 368.64 291.488C368.427 291.348 368.253 291.156 368.134 290.931C368.015 290.705 367.955 290.453 367.96 290.198C367.949 289.808 367.823 289.43 367.599 289.11C367.375 288.79 367.063 288.543 366.7 288.398C366.356 288.278 365.986 288.254 365.63 288.328C365.31 288.398 364.99 288.438 364.63 288.528C364.95 288.608 365.27 288.648 365.63 288.718C365.914 288.738 366.191 288.82 366.44 288.958C366.657 289.088 366.838 289.271 366.966 289.489C367.093 289.708 367.164 289.955 367.17 290.208C367.171 290.597 367.284 290.977 367.497 291.302C367.711 291.627 368.014 291.883 368.37 292.038C368.71 292.174 369.081 292.209 369.44 292.138C369.75 292.068 370.07 292.038 370.39 291.948C370.1 291.858 369.78 291.818 369.47 291.748H369.44ZM391.08 324.658C390.798 324.635 390.527 324.542 390.29 324.388C390.074 324.251 389.897 324.06 389.776 323.834C389.655 323.608 389.594 323.355 389.6 323.098C389.599 322.813 389.535 322.532 389.411 322.275C389.287 322.018 389.107 321.792 388.885 321.614C388.662 321.435 388.403 321.309 388.125 321.244C387.847 321.179 387.559 321.177 387.28 321.238C386.96 321.308 386.64 321.338 386.28 321.428C386.6 321.518 386.92 321.558 387.28 321.628C387.562 321.643 387.837 321.725 388.08 321.868C388.3 321.995 388.483 322.177 388.611 322.397C388.739 322.616 388.807 322.865 388.81 323.118C388.813 323.505 388.927 323.883 389.14 324.206C389.353 324.529 389.655 324.784 390.01 324.938C390.347 325.082 390.72 325.12 391.08 325.048C391.4 324.978 391.72 324.938 392.08 324.848C391.75 324.758 391.43 324.718 391.11 324.658H391.08Z" fill="white"/>
<path d="M366.881 327.679C366.621 327.679 364.971 327.389 364.961 327.389C364.841 326.779 362.161 317.069 361.451 314.959C360.021 310.649 358.331 306.419 356.701 302.189C356.686 302.167 356.665 302.15 356.64 302.142C356.616 302.133 356.589 302.133 356.564 302.14C356.539 302.148 356.518 302.164 356.503 302.185C356.487 302.207 356.48 302.232 356.481 302.259C357.541 305.899 358.541 309.559 359.631 313.199C359.301 312.679 358.981 312.199 358.631 311.639C358.001 310.559 357.441 309.439 356.851 308.339C356.837 308.319 356.818 308.305 356.795 308.298C356.773 308.292 356.748 308.293 356.727 308.303C356.705 308.313 356.688 308.329 356.678 308.35C356.667 308.372 356.665 308.396 356.671 308.419C357.174 309.944 357.87 311.399 358.741 312.749C359.116 313.327 359.526 313.881 359.971 314.409L360.241 315.319C360.911 317.439 364.351 327.949 364.531 327.959H366.801C367.001 327.999 367.001 327.679 366.881 327.679Z" fill="#263238"/>
<path d="M404.371 320.289C394.231 319.529 384.011 319.479 373.831 319.639C370.944 319.679 368.061 319.788 365.181 319.968C365.168 319.974 365.157 319.983 365.149 319.994C365.141 320.006 365.137 320.02 365.137 320.033C365.137 320.047 365.141 320.061 365.149 320.073C365.157 320.084 365.168 320.093 365.181 320.098C370.261 320.368 375.341 320.428 380.431 320.528C385.521 320.628 390.631 320.668 395.731 320.618C398.611 320.618 401.491 320.569 404.371 320.479C404.391 320.472 404.408 320.459 404.421 320.442C404.433 320.425 404.44 320.405 404.44 320.384C404.44 320.362 404.433 320.342 404.421 320.325C404.408 320.308 404.391 320.295 404.371 320.289Z" fill="#263238"/>
<path d="M241.48 410.658H248.66V405.968H241.48V410.658Z" fill="#455A64"/>
<path d="M232.171 410.35H239.351V405.66H232.171V410.35Z" fill="#455A64"/>
<path d="M222.85 410.039H230.03V405.349H222.85V410.039Z" fill="#455A64"/>
<path d="M213.54 409.729H220.72V405.039H213.54V409.729Z" fill="#455A64"/>
<path d="M204.22 409.42H211.4V404.73H204.22V409.42Z" fill="#455A64"/>
<path d="M194.91 409.109H202.09V404.419H194.91V409.109Z" fill="#455A64"/>
<path d="M185.59 408.799H192.771V404.109H185.59V408.799Z" fill="#455A64"/>
<path d="M176.28 408.488H183.46V403.798H176.28V408.488Z" fill="#455A64"/>
<path d="M166.961 408.18H174.141V403.49H166.961V408.18Z" fill="#455A64"/>
<path d="M165.2 413.359H250.42V407.659L165.2 405.279V413.359Z" fill="#37474F"/>
<path d="M82.0304 390.859H222.71L200.34 286.119H59.6504L82.0304 390.859Z" fill="#455A64"/>
<path d="M76.8202 390.859H217.51L195.13 286.119H54.4502L76.8202 390.859Z" fill="#37474F"/>
<path d="M123.82 332.418C124.25 334.804 125.485 336.969 127.32 338.553C129.155 340.137 131.478 341.042 133.9 341.118C134.994 341.153 136.082 340.939 137.081 340.493C138.08 340.047 138.965 339.381 139.67 338.543C140.374 337.706 140.88 336.72 141.148 335.659C141.417 334.598 141.442 333.49 141.22 332.418C140.786 330.036 139.549 327.873 137.715 326.29C135.881 324.708 133.561 323.8 131.14 323.718C130.047 323.684 128.959 323.897 127.96 324.344C126.961 324.79 126.075 325.456 125.371 326.294C124.666 327.131 124.161 328.117 123.892 329.178C123.624 330.239 123.599 331.347 123.82 332.418Z" fill="#263238"/>
<path d="M116.61 418.21H185.8V412.84L116.61 410.6V418.21Z" fill="#455A64"/>
<path d="M97.7998 418.2H134.95L157.32 359.52H120.17L97.7998 418.2Z" fill="#455A64"/>
<path d="M91.6807 418.2H128.831L151.211 359.52H114.061L91.6807 418.2Z" fill="#263238"/>
<path d="M253.05 419.639H324.39C330.48 419.639 321.67 402.309 299.45 395.639C277.23 388.969 246 413.139 253.05 419.639Z" fill="#37474F"/>
<path d="M281.05 419.639C280.599 417.749 280.021 415.892 279.32 414.079C278.627 412.29 277.78 410.563 276.79 408.919C275.817 407.27 274.656 405.74 273.33 404.359L272.33 403.359L271.22 402.429C270.52 401.749 269.65 401.309 268.88 400.689C270.716 401.433 272.408 402.493 273.88 403.819C275.368 405.15 276.643 406.701 277.66 408.419C278.675 410.128 279.484 411.95 280.07 413.849C280.647 415.729 280.976 417.675 281.05 419.639Z" fill="#263238"/>
<path d="M272.59 403.148C271.59 403.668 270.64 404.148 269.68 404.718C268.72 405.288 267.75 405.788 266.81 406.348C264.93 407.478 263.06 408.618 261.29 409.898C259.492 411.131 257.818 412.534 256.29 414.088C255.532 414.863 254.861 415.718 254.29 416.638C253.692 417.556 253.259 418.572 253.01 419.638C253.073 418.516 253.363 417.417 253.86 416.408C254.368 415.401 254.985 414.452 255.7 413.578C257.164 411.867 258.845 410.355 260.7 409.078C264.354 406.541 268.355 404.544 272.58 403.148H272.59Z" fill="#263238"/>
<path d="M386.99 378.129L382.75 431.369H353.47L349.23 378.129H386.99Z" fill="#8E0B16"/>
<path opacity="0.1" d="M386.99 378.129L382.75 431.369H353.47L349.23 378.129H386.99Z" fill="black"/>
<path d="M389.51 373.33H346.46V381.09H389.51V373.33Z" fill="#455A64"/>
<path d="M386.56 373.329H349.41L351.58 364.609H384.39L386.56 373.329Z" fill="#37474F"/>
<path d="M378.28 405.219C378.28 412.129 373.73 417.729 368.11 417.729C362.49 417.729 357.94 412.129 357.94 405.219C357.94 398.309 362.5 392.699 368.11 392.699C373.72 392.699 378.28 398.309 378.28 405.219Z" fill="white"/>
</svg>
