<svg width="25" height="25" viewBox="0 0 25 25" fill="none" xmlns="http://www.w3.org/2000/svg">
<path fill-rule="evenodd" clip-rule="evenodd" d="M19.1326 6.99288L19.0954 6.96808C18.3264 6.23634 17.4211 5.88907 16.3793 5.93868L16.3421 5.86426L16.3669 5.85186C17.3094 5.64102 17.8676 5.41778 18.0412 5.16973C18.0908 4.97129 18.0288 4.85967 17.8179 4.83486C17.3467 4.89688 16.9002 4.9961 16.5157 5.15733C17.0118 4.83486 17.1978 4.61162 17.0862 4.5C16.6025 4.5124 16.0692 4.76045 15.5235 5.25655C15.7219 4.90928 15.8088 4.71084 15.7591 4.68604C15.4863 4.85967 15.263 5.05811 15.0646 5.26895C14.6429 5.74024 14.3081 6.17432 14.0476 6.5712L14.0352 6.59601C13.3779 7.67501 12.9066 8.75402 12.6337 9.85784L12.5345 9.94465L12.5097 9.95706C12.1128 9.46096 11.6291 9.03928 11.0586 8.70441C10.3889 8.25793 9.59515 7.84865 8.67737 7.43937C7.68518 6.91847 6.66818 6.49679 5.65119 6.16192C5.63878 7.31535 6.20929 8.22072 7.31311 8.89045V8.90285C6.92863 8.90285 6.54416 8.96486 6.17209 9.07649C6.2465 10.1431 7.00305 10.8748 8.42932 11.2717L8.41692 11.2965C7.85881 11.2593 7.39992 11.4577 7.04026 11.867C7.51155 12.7848 8.34251 13.2189 9.54554 13.1941C9.30989 13.3181 9.12386 13.4421 8.99984 13.591C8.77659 13.8266 8.70218 14.0995 8.77659 14.4095C9.03704 14.8808 9.49593 15.0917 10.1781 15.0544L10.2153 15.1041L10.2029 15.1289C9.02464 16.3443 7.59836 16.89 5.93644 16.7784L5.91164 16.7908C4.89464 16.7784 3.80323 16.2947 2.625 15.3273C3.80323 17.0264 5.37833 18.2543 7.32551 19.0356C9.54554 19.7674 11.778 19.8294 13.998 19.1968H14.0352C16.1932 18.5767 18.0164 17.2869 19.5295 15.3521C20.224 14.3475 20.6581 13.3801 20.8317 12.4499C21.9603 12.4871 22.7665 12.1647 23.275 11.4701L23.2626 11.4453C22.8781 11.5818 22.1464 11.5446 21.0674 11.3213V11.1973C22.258 11.0609 22.9649 10.6764 23.1882 10.0439C22.3572 10.3663 21.5387 10.3787 20.7325 10.0687C20.5837 8.95246 20.0504 7.92306 19.1326 6.99288" fill="#C2D1D9"/>
<mask id="mask0_1071_31101" style="mask-type:luminance" maskUnits="userSpaceOnUse" x="2" y="4" width="22" height="16">
<path fill-rule="evenodd" clip-rule="evenodd" d="M19.1326 6.99288L19.0954 6.96808C18.3264 6.23634 17.4211 5.88907 16.3793 5.93868L16.3421 5.86426L16.3669 5.85186C17.3094 5.64102 17.8676 5.41778 18.0412 5.16973C18.0908 4.97129 18.0288 4.85967 17.8179 4.83486C17.3467 4.89688 16.9002 4.9961 16.5157 5.15733C17.0118 4.83486 17.1978 4.61162 17.0862 4.5C16.6025 4.5124 16.0692 4.76045 15.5235 5.25655C15.7219 4.90928 15.8088 4.71084 15.7591 4.68604C15.4863 4.85967 15.263 5.05811 15.0646 5.26895C14.6429 5.74024 14.3081 6.17432 14.0476 6.5712L14.0352 6.59601C13.3779 7.67501 12.9066 8.75402 12.6337 9.85784L12.5345 9.94465L12.5097 9.95706C12.1128 9.46096 11.6291 9.03928 11.0586 8.70441C10.3889 8.25793 9.59515 7.84865 8.67737 7.43937C7.68518 6.91847 6.66818 6.49679 5.65119 6.16192C5.63878 7.31535 6.20929 8.22072 7.31311 8.89045V8.90285C6.92863 8.90285 6.54416 8.96486 6.17209 9.07649C6.2465 10.1431 7.00305 10.8748 8.42932 11.2717L8.41692 11.2965C7.85881 11.2593 7.39992 11.4577 7.04026 11.867C7.51155 12.7848 8.34251 13.2189 9.54554 13.1941C9.30989 13.3181 9.12386 13.4421 8.99984 13.591C8.77659 13.8266 8.70218 14.0995 8.77659 14.4095C9.03704 14.8808 9.49593 15.0917 10.1781 15.0544L10.2153 15.1041L10.2029 15.1289C9.02464 16.3443 7.59836 16.89 5.93644 16.7784L5.91164 16.7908C4.89464 16.7784 3.80323 16.2947 2.625 15.3273C3.80323 17.0264 5.37833 18.2543 7.32551 19.0356C9.54554 19.7674 11.778 19.8294 13.998 19.1968H14.0352C16.1932 18.5767 18.0164 17.2869 19.5295 15.3521C20.224 14.3475 20.6581 13.3801 20.8317 12.4499C21.9603 12.4871 22.7665 12.1647 23.275 11.4701L23.2626 11.4453C22.8781 11.5818 22.1464 11.5446 21.0674 11.3213V11.1973C22.258 11.0609 22.9649 10.6764 23.1882 10.0439C22.3572 10.3663 21.5387 10.3787 20.7325 10.0687C20.5837 8.95246 20.0504 7.92306 19.1326 6.99288" fill="white"/>
</mask>
<g mask="url(#mask0_1071_31101)">
<rect x="0.625" y="0.5" width="24" height="24" fill="#1C93E4"/>
</g>
</svg>
